<svg id="Layer_1" data-name="Layer 1" xmlns="http://www.w3.org/2000/svg" viewBox="0 0 300 300"><defs><style>.cls-1,.cls-7{fill:#c62127;}.cls-1,.cls-2,.cls-3,.cls-5,.cls-6{fill-rule:evenodd;}.cls-2{fill:#fdfeff;}.cls-3{fill:#6eba44;}.cls-4{fill:#fbb45f;}.cls-6{fill:#d72027;}.cls-8{fill:#070508;}.cls-9{fill:#040406;}.cls-10{fill:none;}</style></defs><path class="cls-1" d="M150,15.39A134.61,134.61,0,1,0,284.61,150,134.61,134.61,0,0,0,150,15.39ZM33.68,155.88a5.69,5.69,0,1,1,5.69-5.69A5.69,5.69,0,0,1,33.68,155.88Zm204,30.07a95,95,0,0,1-18.76,29.16c-15.44,16.57-36.08,29.16-65.25,30.89-30.39,1.8-55.16-11.36-70.44-25.7a100.27,100.27,0,0,1-20.79-27.42,89.32,89.32,0,0,1-10.1-37.82c-1.26-31.45,10.7-54.59,25.4-70.74,11-12.09,26.14-21.84,45-27.13a100,100,0,0,1,21.07-3.47,94.63,94.63,0,0,1,70.45,25.7c15.93,15.3,28.49,36.46,30.31,65.82A90.06,90.06,0,0,1,237.69,186Zm25.9-30.07a5.69,5.69,0,1,1,5.7-5.69A5.69,5.69,0,0,1,263.59,155.88Z"/><path class="cls-2" d="M201.32,35c1.58.95,2.62,3.86,1.73,6.35a46.48,46.48,0,0,0-11.26-4.62,3.67,3.67,0,0,0,2,3.75c-.51.83-.52,2.18-1.15,2.89-1.06.7-2.9.13-3.18-.87,3.27-3.17.14-9.1-5.49-7.79a6.62,6.62,0,0,0,.58,2.88c1.83-.5,4.18,0,4.62,1.74-.85,1.17-3.2.83-5.2.86A3.45,3.45,0,0,0,185.15,43c1.26.22,2.25-.78,3.18,0-.41,4.39-4.33,3-5.49,1.15-.77-1.2-.42-2.79-1.44-3.46-1.43-.09-.47,1.67-.29,2.6.72,3.8,3.63,6.8,7.5,4.91.63-.82.72-2.17,1.45-2.89.45.51,1.32.6,1.44,1.44a10.43,10.43,0,0,1-1.15,3.47c.87.76,1.23,2,2.31,2.6C194.21,49,195.11,44.53,197,41a10.64,10.64,0,0,1,3.75,2.31c-1.81,2.81-2.8,6.44-4.62,9.24.56,1.07.87,2.4,2,2.88,1.73-3.66,3.39-7.39,5.2-11,1.1.25,1.83.86,2.89,1.16V42.75c-.64-.43-1.56-.56-2-1.15.39-2.53,1.06-8.73-2.31-9.24A19.49,19.49,0,0,0,201.32,35Z"/><path class="cls-2" d="M180.82,33.51c-11.52-3.19-26.45-4.44-40.71-3.17a3.53,3.53,0,0,0,1.73,2.88c2.45-.82,6-.52,8.95-.86a5.37,5.37,0,0,1,.29,3.46c-2-2.08-5.13-2.79-7.22-1.44-3.6,2.32-1,8.36,3.47,8.37,1.45,0,2.25-.93,3.75-1.44-.51,2.72,1.65,2.78,2.89,3.75a87.44,87.44,0,0,1,.58-12.7c4.82.47,10.09.49,14.43,1.44-.35,1.67-.65,3.39-.86,5.2-1.71.59-4.14,2.92-6.07,1.44,0-1.58.88-2.21,1.74-2.89a7.31,7.31,0,0,1,2.88.29c0-1.43-.89-2-1.44-2.88-2.84-.05-5.36-.42-8.08-.58,0,2,1.46,2.58,2.88,3.17-1.22,4.28,3.55,6.93,7.51,5.2-.87,2,1,3.07,2.31,3.75.86-4,.9-8.91,2.31-12.41,1.1.44,2.74.34,3.46,1.15a99.77,99.77,0,0,0-2,10.4c1,.45,1,1.89,2.31,2,1.19-3.82,1.43-8.58,2.89-12.13.91,0,2.18,1.08,2.89.29C181.15,35.3,181.31,34.08,180.82,33.51Zm-36.67,6.35A3.35,3.35,0,0,1,145,37c1.35.57,1.74,2.11,2.31,3.46A3,3,0,0,1,144.15,39.86Zm4.62-.57A9,9,0,0,0,147,36.4c.94-1.17,2.43,0,4,.29C151.15,38.39,150,38.9,148.77,39.29Z"/><path class="cls-2" d="M102.58,48a7.18,7.18,0,0,1,3.46,2.6C104.28,52.39,101.19,50.8,102.58,48Zm4.91.86c-1.48-.35-2.06-1.6-3.47-2,.61-1,3-1.5,4.33-.86C108.56,47.39,107.56,47.64,107.49,48.81Zm.58-10.68c-1.93-1.8-3.2-5.12-8.4-4.07l1.47,1.76A5.38,5.38,0,0,1,106.62,39a61.44,61.44,0,0,0-11.26,5.19c.8.56,1.52,1.18,2.31,1.74.72-.45,1.46-.86,2.21-1.31S103.12,43,103.12,43a21.09,21.09,0,0,1,3.5-1.12c.23.85,1.4,2.24.87,2.89a7.85,7.85,0,0,0-4-.58A4.12,4.12,0,0,0,100,47.37c-1.33,5.85,8.06,7.46,9.82,2.31q.63,2.68,4,2.6c-1.09-4.3-3.27-7.51-4.33-11.84,2.53-.93,6.1-2.37,8.37-2.6,1.52,2.71-2.9,2.89-3.46,5.2-1.64,6.7,9.26,7.84,11.26,2.89a2.88,2.88,0,0,0-2-2c-1,2.2-6,5.08-7.22,1.15,1.26-3,6.65-3.61,4.33-8.37a18.14,18.14,0,0,1,5.48-1.16c.45,3.69,1.61,6.67,2,10.4a21.16,21.16,0,0,0,3.17,1.15c-.38-4.52-1.89-7.93-2.31-12.41,1-.27,2.38-.12,2.89-.87-.86-.39-1.2-1.3-1.73-2a19.83,19.83,0,0,1-2.6.58c-.56-2.19-1.9-5.68-4.62-6.35-1.67-.42-3.4-.12-4.21,1-1,1.39-1.35,3.51,1,6.33l.92-.37c-3.1-6.11,4.91-5.77,5.48-.28-1.7.41-3.4.83-5.19,1.15C116.26,35.21,108.07,38.13,108.07,38.13Z"/><path class="cls-3" d="M110.38,166c9.52,3.32,20.63,4,27.42,10.1,2.18,2,3.44,4.42,5.49,6.64v1.45l-.53-.15-.34.43c-6.27-8.44-21.17-8.28-31.47-12.7-.2-2.1-1.35-3.26-1.44-5.48l.53.14Z"/><path class="cls-2" d="M111,259.86c-3,.07-3.38-4.23,0-4.05Zm2,0a24,24,0,0,1-.29-3.76,3.78,3.78,0,0,1,3.18,3.18C114.71,259.28,114.13,259.86,113,259.86Zm4.62-5.2c-.6.84-.65,2.24-1.44,2.89,0,0,0-3.82-3.75-4.33-9.73-1-4.14,12.54,2.31,8.66-1.43,1.94-.48,4.08,1.15,5.19,1.52-3.86,2.83-7.95,4.62-11.54,1.3.48,2.91.73,4.33,1.15s3,.6,3.47,1.73c-.41,2.47-3.15,1-4.34,1.45-6.29,2.12-.85,12.89,6.64,9.24-.06-1.19,0-2.46-.86-2.89-2.08,1.47-7.43,1.37-6.64-2.6,1.32-1.57,4.91-.86,6.93-1.73.79-.75.74-2.34,1.44-3.18,1.6.23,2.59,1.07,4.62.87a99.67,99.67,0,0,0-1.73,10.68c.78.76,1.11,2,2.6,2,.75-4.06.79-8.83,2.31-12.12,1.11-.16,1.41.51,2.59.28.37-2.77-2.28-2.52-3.46-3.75.47-4.44-2.56-9.57-6.35-7.51-1.41.77-1.74,3.41-1.16,5.78l-.14.43-.15.43c-3.22-1.2-7.37-1.47-9.81-3.46-.64-3.5-.18-8.1-3.75-8.66,0,.95-.49,1.44-.29,2.6,1.84.76,3,3.73,2.6,5.77-3.88-1-6.51-3.31-10.4-4.33a28.69,28.69,0,0,0,.29,2.89S115.28,253.32,117.59,254.66ZM136.94,257a15.27,15.27,0,0,1-4.91-.87l.14-.43-.14-.43C130.6,249.16,139.34,251.9,136.94,257Z"/><path class="cls-2" d="M154.84,267.65c-.64-1.67-.13-4.49-.29-6.64h4C159.61,264.7,158.17,267.46,154.84,267.65Zm37.37-16.24,1.89-.5c.43,1.21,1.33,1.93,1.44,3.46-.79.66-1.31,1.57-2.88,1.44a5.33,5.33,0,0,0-1.45-3.75,3.27,3.27,0,0,0-.86-.58,5.76,5.76,0,0,0-7.22,2.6,17.11,17.11,0,0,1,2.6,1.45c.44-1.33,3-3.14,4.33-1.74-.37,2.13-2.6,2.41-3.18,4.33a5.49,5.49,0,0,1,2,1.16c1.58,0,1.83-2.54,2.89-2.31.81.17,1.26,1.8,1.15,2.6-.21,1.7-2.54,2.63-4.61,2-1.53-.45-1.77-2.6-3.18-1.44.56,3.53,10,5.72,10.68,0,.1-1.08-1.24-2.21-.86-2.6a4.57,4.57,0,0,1,2-.29c.57,1.15,1.15,2.31,1.73,3.46a17.52,17.52,0,0,0,3.17.58c-1.29-4.28-3.73-7.43-4.9-11.84,1.57,0,2.07-1,2.88-1.73,1.85,3.16,3.79,6.23,5.78,9.24h3.17c-1.81-3.86-4.42-6.93-6.35-10.68.49-1,1.91-1,2.31-2-1-.24-1.34-1.17-2.6-1.16a10.74,10.74,0,0,1-2,1.16c-2.37-1.34-6.4-5-9.24-2.31,1,.36,1.1,1.6,2.31,1.73,2-1.26,4.55.22,5.78,1.44a41.06,41.06,0,0,1-8.66,4.62Zm-10,3a2.38,2.38,0,0,0-2.31-.58c-4.8,1.31-10.17,3.26-16.45,4a121.22,121.22,0,0,1-14.73.57c.14,1.89,1.56,2.49,2.89,3.18-.38,2-.16,3.16.29,5.77,1.22,2,5.53,2.42,7.22,1.45-.09,2.43,1.67,4.42,3.46,4-.51-4-.79-8.26-1.15-12.42,3.16.94,8.21-2.92,9,.29-1.59.53-3.51.73-4.62,1.74a2.47,2.47,0,0,0-.82,1.78c-.22,2.77-.1,8.44,8,7.16,3.78-.38,3.7-7,0-7.5-3,.08-3.46,1.73-3.46,1.73-.45,1.52.87,2.77.29,3.47-3,0-3.73-5.33.28-5.68a30.53,30.53,0,0,0,3.47-.68,34.74,34.74,0,0,1-.58-4c1.65-.06,3.69-1,4.62-.86.77,3.46,2,6.43,2.89,9.81a13.42,13.42,0,0,0,3.18,1.16c-.79-4.42-2.37-8-3.47-12.13a10.1,10.1,0,0,1,2.89-.87A5.34,5.34,0,0,0,182.26,254.37Zm-8.37,11.55c.84,1.77-.78,2.89-2.31,3.18C170.79,267.53,171.6,265.33,173.89,265.92Z"/><path class="cls-3" d="M149.06,186.24c2.2-6.2,4.61-11.3,10.4-13.86,3.89-1.72,8.73-1.79,13-2.89a38.17,38.17,0,0,0,11.83-5.19c-.16,2.44-1.57,6.11-2.59,8.66-6.12,2.47-13.2,2.51-19.06,4.62-5.43,1.95-8.91,5.83-12.7,8.95l-.34-.44Z"/><path class="cls-3" d="M177.64,223.19c5.35-17,10.59-34.07,16.17-50.81-5.44,3.56-12.07,5.91-19.34,7.51s-14.6,2.6-19.63,7.21c-3.48,3.19-5.5,8.26-6.64,13.28-.36,1.58-.06,3.74-1.74,4.91-1.65-6.54-2.4-13.71-6.64-17-1.25-1-.74-.69-1.44-1.45-4.51-4.86-14-5.88-21.65-8.08-2.73-.78-5.44-1.5-8.09-2.31s-5.46-2-8.08-2c5.42,16,10.37,32.55,15.59,48.79,13.76-1.48,23.51,3.39,31.18,8.95C147.33,232.14,158.44,220.3,177.64,223.19Z"/><path class="cls-4" d="M120.57,159.57c-10.36-8.72-16.45-22.68-16.45-37.27l3.39-.36,11.84-3,11-4.91,5.48-5.77,3.18-6.07,3.9-6.49L145,90.33l1.38-4.62,2.73-.73,1.09,5.2,3.61,7.23,5.48,10.82s11,9,11.3,8.74,11.94,5.19,11.94,5.19l7.65,1.07h6.5l1.19,1.06c-.3,11.9-3.79,21.31-11.37,29.43a25.64,25.64,0,0,1-11.18,6c-7,1.73-21.41,2.19-26,12.58l-6-.6a4.06,4.06,0,0,1-2.74-2c-1.2-1.88-8-7.39-17.19-8.78,0,0-.42-.06-.77-.14A6.07,6.07,0,0,1,120.57,159.57Z"/><path d="M175.14,163.3c22.16-14.18,22.54-40.65,22.55-40.86v-.07c.52-6.49-1.53-13.23-4.06-19.11-6.27-14.54-21.26-30.07-44.55-30.07-1.79,0-3.62.09-5.45.27a48.55,48.55,0,0,0-35.72,20.93c-8.43,12.51-10.48,28.25-5.79,44.33.51,1.2,7.12,17.86,22,25.89l-11.74-3.12c-8-6.78-13.65-20.73-13.92-21.4l-.06-.18c-5.06-17.24-2.84-34.18,6.26-47.69a52.43,52.43,0,0,1,38.55-22.61c1.95-.19,3.91-.29,5.83-.29a50.76,50.76,0,0,1,30.06,9.59,55,55,0,0,1,18,22.82c2.72,6.31,5.42,13.74,4.86,21.06a44.27,44.27,0,0,1-2.38,13.78c-2.36,6.88-4.62,11.43-11.22,21.07C183,161.59,175.14,163.3,175.14,163.3Zm-51-3.53"/><path class="cls-5" d="M165.45,150.09c-1.32,15.49-32.12,15.44-33.78.29,4.9,2.18,10.37,5.19,16.74,5.19C155.09,155.58,160.61,152.65,165.45,150.09Z"/><path class="cls-6" d="M98.67,144.88s-8.41-3.66-12.78,14.59c-2.32,9.65-4.1,13.6-4.68,14.45,0,0,17.72-.78,24.53-16.55C105.74,157.37,105.45,148.88,98.67,144.88Z"/><path class="cls-6" d="M209.42,145s3.89-2,8.18,16.14c2.29,9.59,4.7,10.2,5.27,11,0,0-16.35,1.84-21.92-13.61C201,158.59,197.7,146.6,209.42,145Z"/><path d="M206.57,174.33l-.09,0c-5.33-2.23-9.95-5.16-12.68-8-3.74-3.94-5.23-7.83-4.55-11.91a21.9,21.9,0,0,1,8.24-13.77l.18-.1a10.81,10.81,0,0,1,5.67-1.22c4.34.17,8.95,2.58,11,5.73,2.32,3.61,3.24,8.88,4.13,14,.16.89.31,1.78.47,2.65a25.61,25.61,0,0,0,5.64,12l2.51,2.72-3.68.36a29.55,29.55,0,0,1-4,.05A43.24,43.24,0,0,1,206.57,174.33Zm8.72-12c-.16-.88-.32-1.78-.48-2.69-.82-4.73-1.68-9.63-3.6-12.62-1.2-1.88-4.53-3.9-8-4a7.35,7.35,0,0,0-3.68.74A18.52,18.52,0,0,0,192.88,155c-.48,2.9.66,5.69,3.59,8.78,2.35,2.47,6.6,5.14,11.39,7.15a40,40,0,0,0,11.62,2.23h.05A31.57,31.57,0,0,1,215.29,162.29Z"/><path d="M76.72,176.78a29.75,29.75,0,0,1-4.06-.05L69,176.37l2.5-2.72a25.42,25.42,0,0,0,5.64-12c.16-.87.32-1.76.47-2.65.89-5.1,1.81-10.37,4.14-14,2-3.15,6.63-5.56,11-5.73a10.86,10.86,0,0,1,5.68,1.22l.17.1a21.9,21.9,0,0,1,8.25,13.77c.68,4.08-.81,8-4.56,11.91-2.72,2.87-7.34,5.8-12.67,8l-.09,0A43.35,43.35,0,0,1,76.72,176.78Zm-.21-3.67h.06a40,40,0,0,0,11.62-2.23c4.78-2,9-4.68,11.39-7.15,2.93-3.09,4.07-5.88,3.59-8.78a18.51,18.51,0,0,0-6.64-11.28,7.32,7.32,0,0,0-3.68-.74c-3.48.15-6.81,2.17-8,4-1.92,3-2.77,7.89-3.6,12.62-.16.91-.31,1.81-.48,2.69A31.37,31.37,0,0,1,76.51,173.11Z"/><path class="cls-7" d="M197.3,121.08c-2.46-24.15-22.88-43.1-47.06-44l2.24,15,3.82,9.38,5.27,8.52,10.83,8.37,17.68,3.75,6.64,1.15Z"/><path class="cls-7" d="M103.9,121.08c1-23.52,19.3-43.29,42.52-45.48l-1.09,15.3-5.92,11.41s-7.07,8.8-7.36,9.24S121,117.61,121,117.61l-8.56,2.89Z"/><path class="cls-8" d="M102.47,123.23c-1.51,0-3,0-4.61-.14l.16-4.47c15.12,2.56,26.37-2.57,34.75-10.35,15.64-14.53,11.51-36.45,11.5-36.68H149c.05,1,2.78,25-13.31,39.52C125.44,120.32,116.4,123.23,102.47,123.23Z"/><path class="cls-8" d="M194.09,124.68c1.5,0,3-.05,4.6-.14l-.16-4.47c-15.12,2.56-26.37-4-34.75-11.8-15.64-14.53-11.51-36.45-11.5-36.68h-4.67c-.06,1-3.07,25.24,13,39.78C170.83,120.57,180.16,124.68,194.09,124.68Z"/><path class="cls-9" d="M127.42,129.69a5.43,5.43,0,1,0,5.43,5.42A5.42,5.42,0,0,0,127.42,129.69Zm1,5.64a1.61,1.61,0,1,1,1.6-1.61A1.61,1.61,0,0,1,128.47,135.33Z"/><path class="cls-9" d="M169.86,129.69a5.43,5.43,0,1,0,5.43,5.42A5.42,5.42,0,0,0,169.86,129.69Zm2,5.64a1.61,1.61,0,1,1,1.61-1.61A1.61,1.61,0,0,1,171.9,135.33Z"/><polygon class="cls-2" points="170.72 273.28 172.13 271.74 173.72 273.11 172.32 274.58 170.72 273.28"/><rect class="cls-10" width="300" height="300"/></svg>