<?xml version="1.0" encoding="utf-8"?>
<!-- Generator: Adobe Illustrator 21.1.0, SVG Export Plug-In . SVG Version: 6.00 Build 0)  -->
<svg version="1.1" id="Layer_1" xmlns="http://www.w3.org/2000/svg" xmlns:xlink="http://www.w3.org/1999/xlink" x="0px" y="0px"
	 viewBox="0 0 834.4 300" style="enable-background:new 0 0 834.4 300;" xml:space="preserve">
<style type="text/css">
	.st0{fill:#3F599B;}
	.st1{fill:#3B6135;}
	.st2{fill:#756D38;}
	.st3{fill:none;}
</style>
<title>Buyer Seller - mKisan</title>
<g>
	<g>
		<path class="st0" d="M735.6,181.6l24.7-6.5c0,0,8.8-3.1,8.5,3.7v30.6c0,0,28.9-65,53.3-24.5c0,0,10.8,17.1,2.5,66.3h9.7v6.8h-42.6
			v-6.8h8.9c0,0,11.2-88.3-21.1-50.8c0,0-14,17.5-11.8,50.8h8v6.8h-42.6v-6.8H746v-66.3l-9.2,2C736.8,186.9,730.9,185.9,735.6,181.6
			z"/>
		<path class="st0" d="M622,174.4c2.2,0.4,3.8,2.3,3.8,4.5v19.5c0,0,0.1,2.1-2.8,2.4c-1.7,0.2-2.6-2.4-2.6-2.4s-0.4-20-11.9-21
			c-11.7-1-26.1,7.4-18.7,22.4c7.1,14.6,54.8,9.9,34.5,48c-1.5,2.9-3.7,5.3-6.5,7c-7.8,4.7-26.2,13.3-49.3,7.5
			c-2-0.5-3.4-2.3-3.4-4.4v-20.4c0.3-0.8,1.1-1.4,2-1.4c1.4-0.1,2,1.4,2,1.4s0.3,21.2,11.7,22c20.9,1.4,30.3-14.3,24-22
			c-15.2-18.6-45.4-8.5-39.7-41.7C569.9,168,609.5,172.3,622,174.4z"/>
		<polygon class="st0" points="542,154.1 553.5,154.1 553.5,147.3 505.2,147.3 505.2,154.1 514.3,154.1 514.3,252 505.2,252 
			505.2,258.9 550.6,258.9 550.6,252 541.8,252 		"/>
		<circle class="st0" cx="529.5" cy="100.9" r="18.6"/>
		<path class="st0" d="M201.3,105.3c0,0,20.7-13.9,38,25.3c1.8,4,3.6,8,5.5,11.9c2,4.2,4.1,8.3,6.2,12.4s4.5,8.2,6.9,12.4
			c2.4,4.1,4.8,8.1,7.3,12c2.5,3.8,5,7.6,7.7,11.3c2.5,3.5,5.1,6.9,7.9,10.1c2.5,3,5.2,5.9,8,8.6c2.5,2.4,5.2,4.7,8,6.7
			c2.4,1.8,5.1,3.3,7.9,4.4c0.4,0.2,0.9,0.4,1.4,0.5c0.6,0.2,1.1,0.5,1.6,0.9c0.3,0.2,0.6,0.5,0.8,0.8c0.7,1.4,0.9,3,0.3,4.5
			c-0.7,1.4-2,2.3-3.5,2.3c-3.2,0.4-6.7-0.6-9.7-1.6c-1.6-0.5-3.1-1.1-4.7-1.7c-24.1-9.6-48.5-61-62.1-86S209.3,105.9,201.3,105.3z"
			/>
		<path class="st0" d="M169.3,120.4c0,0,17.3-23.8,30.1,0c12.4,23.2,41.6,93.1,87.4,118.7c3.1,1.7,5.1,5.1,4.5,8.5
			c-0.7,3.6-4.2,6.3-16.7,0.2c-22.7-11.1-59.8-50-76.6-91.7c-15-37.2-28.9,3.7-35.2,21.9s-19.6,55-49.7,38.9
			c-28.8-15.5-25.3-64.1-45.4-52.3c-1.8,1.1-3.2,2.6-4.1,4.5l-23.4,46.4L21.7,212l29.5-58.7c0,0,15-34.9,38.6,0
			c20.4,30.3,24.4,52.3,37.8,52.2c3.8-0.1,7.2-2.5,8.5-6.1C142.4,182.8,164.6,125.3,169.3,120.4z"/>
		<path class="st0" d="M46.4,82.5l8.3,9.8c0.5,0.6,0.8,1.4,0.8,2.2l0.2,33.9c0,0-6.6,5.9-1.9,9.1c2.2,1.5,9.1-5.1,11-9
			c0.5-1,0.7-2.1,0.7-3.3l-0.3-4.6c-0.1-17.8,6.5-10.9,6.5-10.9s51.9,70.5,54.5,72.2s10.2,0,10.2,0L76.9,95.3c0,0,14-9.5,16.1-18.9
			c2.4-10.9-10.8,1.4-10.8,1.4s-14,17.3-25,3.6c-0.2-0.3-13.4-13-13.4-13"/>
		<circle class="st0" cx="67.9" cy="76.3" r="8.4"/>
		<path class="st1" d="M416,21.9c0,0-5.3-19.1,12.9-21.2C428.9,0.7,433.9,18.7,416,21.9z"/>
		<path class="st1" d="M405.6,68.8c0,0-5.3-19.2,12.9-21.2C418.5,47.6,423.5,65.6,405.6,68.8z"/>
		<path class="st1" d="M317.1,48.8c0,0-18.6-12.5-4.5-27.6C312.5,21.3,330,33,317.1,48.8z"/>
		<path class="st1" d="M375,64.1c0,0-16.3-6.8-7.7-20.6C367.3,43.5,382.5,49.8,375,64.1z"/>
		<path class="st1" d="M462.7,74.4c0,0-3-17.4,13.2-17.6C475.8,56.8,478.7,73.1,462.7,74.4z"/>
		<path class="st1" d="M457.3,79.1c0,0-7.3-4.4-2.3-10.4C455,68.7,461.9,72.8,457.3,79.1z"/>
		<path class="st1" d="M462.1,79.3c0,0,6-6.1,10.6,0.2C472.7,79.5,467.1,85.2,462.1,79.3z"/>
		<path class="st1" d="M377.1,66.3c0,0-4.3,10.1-12.8,4.7C364.3,71.1,368.3,61.6,377.1,66.3z"/>
		<path class="st1" d="M404.2,70.8c0,0-10.9-0.5-8.9-10.3C395.2,60.5,405.5,60.9,404.2,70.8z"/>
		<path class="st1" d="M378.1,64.8c0,0-0.9-10.9,9.1-10.2C387.3,54.7,388.1,64.9,378.1,64.8z"/>
		<path class="st1" d="M411.3,21.3c0,0-10.1-2.9-6-11.7C405.3,9.6,414.8,12.3,411.3,21.3z"/>
		<path class="st1" d="M319.7,49.5c0,0,2.7-10.2,11.5-6.2C331.3,43.3,328.7,52.8,319.7,49.5z"/>
		<path class="st1" d="M323,81c0,0-8.4-6.3-1.4-13C321.5,67.9,329.4,73.9,323,81z"/>
		<path class="st1" d="M263.8,82.8c0,0,0.4-10.5,9.8-8.7C273.6,74.1,273.3,84,263.8,82.8z"/>
		<path class="st1" d="M326.5,81c0,0,2.2-6.3,7.6-3.4C334.2,77.7,332.1,83.6,326.5,81z"/>
		<path class="st1" d="M414.5,26.1c0,0,4.3-5.9,9-1.1C423.5,25,419.5,30.5,414.5,26.1z"/>
		<path class="st0" d="M714.9,251.2v-49.9c0,0-5-55-66.2-10.6c0,0-2.5,2.1-0.7,4.2c1.3,1.6,5.1-0.5,5.1-0.5s41-32.4,44.4,14.1
			c0,0-42.7-19-55.5,17.5c-12.4,35.3,36.6,52.5,51.6,18.7V258H726v-6.8H714.9z M684.1,251.2c-18.8,11.6-29.5-32.9-10-40.5
			c20-7.8,20,18.9,20,18.9C693.4,246.7,684.1,251.2,684.1,251.2L684.1,251.2z"/>
		
			<rect x="21.8" y="25.2" transform="matrix(0.9814 -0.1922 0.1922 0.9814 -5.5364 5.5229)" class="st0" width="7.7" height="12.3"/>
		<path class="st0" d="M37.7,34.4c-0.1-0.5-0.6-0.9-1.2-0.8l-35.7,7c-0.5,0.1-0.9,0.6-0.8,1.1c0,0,0,0,0,0L13.6,111
			c0.1,0.5,0.6,0.9,1.2,0.8l35.7-7c0.5-0.1,0.9-0.6,0.8-1.2L37.7,34.4z M14.5,84.4c-0.2-1.3,0.7-2.6,2-2.9c1.3-0.2,2.6,0.7,2.9,2
			c0.2,1.3-0.6,2.6-2,2.9C16,86.7,14.7,85.8,14.5,84.4C14.5,84.5,14.5,84.5,14.5,84.4z M16.1,93.1c-0.2-1.3,0.7-2.6,2-2.9
			c1.3-0.2,2.6,0.7,2.9,2c0.2,1.3-0.6,2.6-2,2.9C17.7,95.4,16.4,94.5,16.1,93.1C16.2,93.1,16.2,93.1,16.1,93.1z M20.8,103.7
			c-1.3,0.2-2.6-0.7-2.9-2c-0.2-1.3,0.7-2.6,2-2.9c1.3-0.2,2.6,0.6,2.9,2C23,102.2,22.1,103.5,20.8,103.7
			C20.8,103.7,20.8,103.7,20.8,103.7z M25,82.4c-0.2-1.3,0.7-2.6,2-2.9c1.3-0.2,2.6,0.7,2.9,2c0.2,1.3-0.6,2.6-2,2.9
			C26.6,84.6,25.3,83.8,25,82.4C25,82.4,25,82.4,25,82.4z M26.7,91c-0.2-1.3,0.7-2.6,2-2.9c1.3-0.2,2.6,0.7,2.9,2
			c0.2,1.3-0.6,2.6-2,2.9C28.3,93.3,27,92.4,26.7,91C26.7,91,26.7,91,26.7,91z M31.3,101.6c-1.3,0.2-2.6-0.7-2.9-2
			c-0.2-1.3,0.7-2.6,2-2.9c1.3-0.2,2.6,0.6,2.9,2C33.6,100.1,32.7,101.4,31.3,101.6C31.3,101.6,31.3,101.7,31.3,101.6L31.3,101.6z
			 M14.4,70.1L9.9,47.3l20.6-4L35,66.1L14.4,70.1z M35.5,80.3c-0.2-1.3,0.7-2.6,2-2.9c1.3-0.2,2.6,0.7,2.9,2c0.2,1.3-0.6,2.6-2,2.9
			C37.1,82.6,35.8,81.7,35.5,80.3C35.5,80.3,35.5,80.3,35.5,80.3z M37.2,89c-0.2-1.3,0.7-2.6,2-2.9c1.3-0.2,2.6,0.7,2.9,2
			c0.2,1.3-0.6,2.6-2,2.9C38.8,91.3,37.5,90.4,37.2,89C37.2,89,37.2,89,37.2,89z M41.8,99.6c-1.3,0.2-2.6-0.7-2.9-2s0.7-2.6,2-2.9
			c1.3-0.2,2.6,0.6,2.9,2C44.1,98.1,43.2,99.3,41.8,99.6L41.8,99.6z"/>
		<path class="st2" d="M272.6,50.9c0.3,1,0.2,2-0.1,3c0,0-1.3,5.3,3.5,7.6c0,0,0.7,0.3,1.7,0.5l0.5,1.2l-1.3,1.7l2.7-1.3l-0.6-1.3
			c0.4,0.1,0.9,0.2,1.3,0.2l0.6,1.4l-1.4,1.7l2.7-1.3l-0.7-1.7c2.2-0.8,4.2-2.1,5.9-3.8c3.3-1.3,6.5-2.7,9.6-4.4
			c0.1-0.3,1-1.4-3.1-1.8l-6.9,2.8c0,0-8.8-2.4-8.2-3.8c0,0,0.1-3.7-2.9-4c-1-0.1-2,0.2-2.8,0.8c-0.7-0.2-1.5-0.2-2.3,0.1
			c0,0,1,0.6,1.6,1.2C272.6,50,272.6,50.5,272.6,50.9z"/>
		<path class="st2" d="M360.7,3c-0.2,1-0.1,2,0.3,3c0,0,1.8,5.2-2.8,7.8c0,0-0.7,0.3-1.7,0.7l-0.4,1.3l1.5,1.6l-2.8-1.1l0.5-1.4
			c-0.4,0.1-0.9,0.3-1.3,0.4l-0.5,1.4l1.6,1.6l-2.8-1.1l0.6-1.7c-2.3-0.6-4.4-1.7-6.2-3.2c-3.4-1-6.7-2.1-10-3.5
			c-0.1-0.2-1.1-1.3,2.9-2l7.1,2.2c0,0,8.5-3.2,7.8-4.6c0,0-0.4-3.7,2.5-4.2c1-0.2,2,0,2.8,0.5c0.7-0.3,1.5-0.3,2.3-0.1
			c0,0-0.9,0.7-1.5,1.3C360.6,2.2,360.7,2.6,360.7,3z"/>
		<path class="st2" d="M446.8,49.3c-0.2,1-0.1,2.1,0.3,3c0,0,1.8,5.2-2.8,7.8c0,0-0.7,0.3-1.7,0.7l-0.4,1.2l1.5,1.6l-2.8-1.1
			l0.5-1.4c-0.4,0.1-0.9,0.3-1.3,0.4l-0.5,1.5l1.5,1.6l-2.8-1.1l0.6-1.7c-2.3-0.6-4.4-1.7-6.2-3.2c-3.4-1-6.7-2.1-10-3.5
			c-0.1-0.2-1.1-1.3,2.9-2l7.1,2.2c0,0,8.5-3.2,7.8-4.6c0,0-0.4-3.7,2.5-4.2c1.6,0.5,3.4,0.7,5.1,0.4c0,0-0.9,0.7-1.5,1.3
			C446.7,48.5,446.8,48.9,446.8,49.3z"/>
		<path class="st0" d="M439.7,144.2h31.5c0,0-66.7,60.7-66.7,62.4s68.4,66.7,68.4,66.7h-30.4L376.7,216v84h-23.8l3.7-171.4
			c0,0,2.3-19.9-26.1-17.6c-27.2,2.2-64.8-12.1-75.9-22.7c-1-0.9-2.3-1.4-3.7-1.5c-5.5-0.2-18.4-0.7-11.8-1.6
			c6.2-0.8,13.9-8.7,21-1.5c0,0,34.9,23.1,99.3,22.3l-3.1-4.7c-0.7-1-1.6-1.8-2.8-2.3c-10.3-4.5-64.5-28-77.9-31c0,0-6-9.1,14.2,0
			s47.7,20.8,59.6,21.3c6.4,0.3-24-32.5-50-36.3c-1.5-0.2-2.8-1.1-3.5-2.4c-2.2-4.1-1.4-9.1,5.8-6.4c0,0,29.3,12.4,43.6,26.4
			c1.4,1.3,3.5,1.3,4.9-0.1c0.1-0.1,0.2-0.3,0.4-0.4c2.6-3.7,5.1-10.8-1.1-21.4c-3.9-6.6-8-13-11.7-19.6c-2.7-4.9-6-10.8-5.9-16.5
			c0-1.7,0.3-3.5,1.9-4.4c0.5-0.3,1-0.4,1.6-0.3c1.9,0.6,10.3,37.3,17.8,19.9c4.1-9.5-0.9-10.8-0.9-10.8s10.2-3.3,9.4,5.7
			c-0.5,6.9-5.1,12.8-11.6,15c-3.1,1.1,9.8,1.7,9.7,25.7c0,0.8-0.2,1.6-0.6,2.3c-2,3.4-5.9,14.2,1.7,23c8.3,9.7,19-6.7,20.4-18.9
			s13-25.8,13-25.8l1.3-10.3c0.1-1.1-0.1-2.2-0.8-3.2c-0.5-0.8-1-1.6-1.5-2.5c-0.6-1-1.1-1.9-1.6-2.9c-0.4-0.9-0.8-1.8-1-2.7
			c-0.2-0.6-0.1-1.3,0.3-1.8c0.5-0.5,1.5-0.4,2.1-0.2c0.5,0.1,0.9,0.3,1.4,0.5c0.6,0.2,1.2,0.6,1.7,1c0.2,0.3,0.4,0.6,0.6,0.9
			l0.4,0.7c0.3,0.6,0.7,1.2,1,1.8c0.8,1.5,1.5,3,2.1,4.5c0.6,1.5,1,3.1,1.2,4.8c0,0.3,0,0.7,0,1c-0.2,4.5,7.3-0.5,9.8-2.3
			c0.5-0.4,1.1-0.5,1.7-0.5l8.3,0.5c0,0,3.2,2.5-2.3,4c0,0-11.6-1.5-15.9,7.4c-5.2,10.9-16.2,22.4-15.3,34l13.6-3.7
			c0,0,6.2-6.5,14.2-5.1s17.9-8.2,25.5-6.8c7.7,1.4,3.7,3.7-2.5,6s-20.1,8.2-36.9,14.2c0,0-30.4,10.8-26.7,22.7s32.9-21.3,40.9-21
			s34.6,1.1,41.1-0.8s17.3-1.1,19,1.4s-60.1,6.5-60.1,6.5s-23.5,14.8-43.7,27.2l2.3,89.7L439.7,144.2z"/>
		<path class="st1" d="M259.5,86.8c0,0-20-10.1-7.9-26.8C251.6,60,270.4,69.5,259.5,86.8z"/>
	</g>
	<rect x="0" class="st3" width="834.4" height="300"/>
</g>
</svg>
