<svg id="Layer_1" data-name="Layer 1" xmlns="http://www.w3.org/2000/svg" viewBox="0 0 658.67 300"><defs><style>.cls-1{fill:none;}.cls-2{fill:#ee6a1d;}.cls-3{fill:#1d9046;}</style></defs><rect class="cls-1" width="658.67" height="300"/><circle class="cls-2" cx="87.87" cy="89.72" r="12.78"/><circle class="cls-3" cx="44.74" cy="144.4" r="12.78"/><path class="cls-3" d="M48.64,0s-15.15,30.46,0,62.54c12.24,37.61,78,117.7,74.63,157.37,0,0,2.51,43.81-58.85,58.56,0,0,40.46-26.55,36.23-57.82s-19.42-69.77-51.42-122C49.23,98.67,19.58,44.84,48.64,0Z"/><path class="cls-2" d="M108.22,107.23s.74,42.48-45.13,86.58c0,0-45.87,46.31-32.45,78.46,0,0,7.38,20.36,19.18,27.73,0,0-74.93-31.12-41-83S97.46,143.81,108.22,107.23Z"/><path class="cls-2" d="M348.65,196.09h-8.42V137.28h8.42Z"/><path class="cls-2" d="M258.27,196.09h-8.41V137.28h8.41Z"/><path class="cls-2" d="M326.65,196.41h-4.76L320,188.59c-5.81,6.37-12.1,9.35-20.09,9.35-15.89,0-26.95-12.58-26.95-30.65,0-10.57,3.79-19.69,10.65-25.33,4.6-3.8,10.41-5.65,17.59-5.65,13.47,0,22.51,6.86,24.61,18.8h-7.67c-1.61-7.59-8.07-12.19-17-12.19-12.43,0-20.65,9.52-20.65,24,0,7.26,2.34,14.28,6.21,18.48,3.47,3.79,8.87,6,14.84,6,10.73,0,18.48-7.58,18.48-18.07v-1.62H302.13V165h24.52Z"/><path class="cls-2" d="M166.57,109.81h33.25c21.9,0,35.15,16.33,35.15,43.08s-13.37,43.2-35.15,43.2H166.57Zm31.36,76.57c17,0,26-11.48,26-33.37s-9-33.49-26-33.49H177.57v66.86Z"/><path class="cls-3" d="M450.87,189.47h34.69v6.62h-42.2V137.28h40.75v6.61H450.87v18.8h32v6.61h-32Z"/><path class="cls-3" d="M516.88,196.09l-21.14-58.81h8.07l17.27,49.77,16.29-49.77h8L525,196.09Z"/><path class="cls-3" d="M564.4,178.42l-6.22,17.67h-8l21-58.81h9.68l20.66,58.81h-8.39l-6-17.67Zm11.53-33.08-9.68,26.79H585Z"/><path class="cls-3" d="M619.46,196.09H612V137.28h7.5v29.77l29.29-29.77h9.68l-24,24,24.2,34.85H649.8l-20.74-30.17-9.6,9.6Z"/><path class="cls-3" d="M415.55,135.14c-.12-11.36-7.81-17.52-21.54-17.52-11.6,0-19.29,5.8-19.29,14.56,0,6.63,3.79,9.94,14.2,12.78l21.66,5.8c11.72,3.2,18.34,11,18.34,21.66a26,26,0,0,1-9.46,19.76c-5.57,4.26-14,6.63-24.27,6.63-13.13,0-23.07-4.14-29-12.31-3.43-4.73-5-9.94-5.09-17.87h10.41a18.73,18.73,0,0,0,4.5,13.26c4.14,5,10.42,7.22,19.88,7.22,7,0,12.43-1.19,15.86-3.67a15.21,15.21,0,0,0,6.16-12c0-6.74-4.86-11.12-15.86-14l-21.42-5.68c-11.36-3-16.93-9.59-16.93-20.12,0-15.62,11.72-25.33,30.66-25.33,14.55,0,24.61,5.21,29.35,15.15,1.89,4,2.24,5.68,2.24,11.6Z"/></svg>