<svg id="Layer_1" data-name="Layer 1" xmlns="http://www.w3.org/2000/svg" viewBox="0 0 1286.98 300"><defs><style>.cls-1{fill:#c41d1d;}.cls-2{fill:#ffe401;}.cls-3{fill:none;stroke:#1d1d1b;stroke-miterlimit:2.61;}.cls-4{fill:#1d1d1b;}</style></defs><title>India-Post-Payments-Bank</title><path class="cls-1" d="M346.37,186.36A113.61,113.61,0,1,1,232.72,72.78h0A113.62,113.62,0,0,1,346.37,186.36Z"/><path class="cls-2" d="M194.86,238.66c-29.56,6.18-50.9-9.08-67.92-21.45l-3.57-2.61a75,75,0,0,0-35.75-14.3h-.93C68,197.65,39.07,196.72,5,220.25l-5-6.87c36.43-25,67.39-24.09,87.48-21.45h.82A85.85,85.85,0,0,1,128,207.63l3.57,2.64c15.8,11.33,35.5,25.49,61.56,20,12.94-2.71,26.71-9.79,43.4-22.27l.5-.39a389.3,389.3,0,0,0,46.8-45.79l15.94-18.23c16.48-18.92,57.84-66,86.05-94.45C412,22.56,440,6,468.7,0l1.71,8.08c-27.13,5.72-53.62,21.45-78.64,46.83C363.78,83.26,322.49,130,306,149l-16,18.27a391.42,391.42,0,0,1-47.79,47.08l-.54.43c-17.87,13.26-32.56,20.84-46.76,23.8Z"/><path class="cls-2" d="M191.5,222.46c-20.87,4.4-36-4.93-55.05-18.59l-3.57-2.68a96.82,96.82,0,0,0-45-17.37,211,211,0,0,0-42,1.36L44.76,177a212.67,212.67,0,0,1,43.68-1.43,105.8,105.8,0,0,1,49.23,18.87l3.57,2.65c17.88,12.79,30.89,20.94,48.55,17.23,10.33-2.18,22.41-8.48,36.89-19.31l.21-.21a366.61,366.61,0,0,0,44.4-44c4.69-5.29,10.09-11.48,15.95-18.2,25.63-29.38,61.52-69.78,87-95.37a275.13,275.13,0,0,1,37.5-31l4.54,6.93a267.19,267.19,0,0,0-36.17,29.85c-25.28,25.42-61.06,65.71-86.62,95-5.86,6.75-11.26,12.94-15.91,18.23a381.71,381.71,0,0,1-45.58,45l-.29.21C216,213.38,203.09,220,191.47,222.46Z"/><path class="cls-2" d="M188.21,206.38c-15.33,3.25-26-4.37-42.11-16l-3.57-2.65a112.37,112.37,0,0,0-53.62-20.41l.43-8.3a119.85,119.85,0,0,1,58.12,22l3.58,2.68c25,17.88,32.35,23.24,65.92-1.89A363.48,363.48,0,0,0,259.1,140l15.84-18.12C301,91.94,336.71,51,362.85,25.31l5.79,5.9c-25.92,25.34-61.49,66.13-87.48,95.95l-15.87,18.16A351.11,351.11,0,0,1,222,188.21c-14.3,10.73-24.7,16.2-33.6,17.88Z"/><line class="cls-3" x1="788.54" y1="115.75" x2="788.54" y2="257.35"/><path class="cls-4" d="M856.85,239h-5.29V207.2a10.18,10.18,0,0,0-.75-4.26c-.46-1.07-1.61-1.61-3.36-1.61h-1.18v-1.28h15.26a29.34,29.34,0,0,1,4.4.36,14.43,14.43,0,0,1,4.83,1.53,10.87,10.87,0,0,1,3.89,3.58,13.17,13.17,0,0,1,.83,10.72,9.43,9.43,0,0,1-4.51,5,14.5,14.5,0,0,1-2.89,1.18,16.7,16.7,0,0,1-2.72.5,17.87,17.87,0,0,1-2.07,0h-6.47V238.8Zm4.4-17.87h0a10.66,10.66,0,0,0,2.79-.47,9,9,0,0,0,5.36-4.5,10.72,10.72,0,0,0,0-8.9,9.59,9.59,0,0,0-2.36-2.9,9.27,9.27,0,0,0-3-1.61,11.07,11.07,0,0,0-2.79-.46,18,18,0,0,0-2.32,0,18.27,18.27,0,0,0-2.08.43v17.62a13.24,13.24,0,0,0,2.08.43,18,18,0,0,0,2.32,0Z"/><path class="cls-4" d="M898.93,239l-2.08-2.64h-.28a9.71,9.71,0,0,1-2.9,2.18,11.91,11.91,0,0,1-5.36,1,11,11,0,0,1-2.68-.36,9.29,9.29,0,0,1-2.79-1.32,7.56,7.56,0,0,1-3-6.55,6.32,6.32,0,0,1,1.22-4,8.64,8.64,0,0,1,3.29-2.54,17.66,17.66,0,0,1,4.79-1.32,41.46,41.46,0,0,1,5.68-.36h1.79a23.71,23.71,0,0,0-.47-5,8.07,8.07,0,0,0-1.32-3.07,4.22,4.22,0,0,0-2-1.51,7.68,7.68,0,0,0-2.43-.39,7.81,7.81,0,0,0-4.14,1,6,6,0,0,0-2.33,4h-2.64a22.76,22.76,0,0,1,.18-2.86,4.13,4.13,0,0,1,1.28-2.47,5.59,5.59,0,0,1,1.51-.93,9.27,9.27,0,0,1,2.14-.64c.83-.16,1.66-.28,2.5-.36h2.68a17.24,17.24,0,0,1,3.86.43,7,7,0,0,1,3.29,1.79,8.68,8.68,0,0,1,2.29,3.57,19.52,19.52,0,0,1,.86,6.4v15.87Zm-2.36-13.55h-1.79a12.44,12.44,0,0,0-6.9,1.65,4.88,4.88,0,0,0-2.5,4.25,6.13,6.13,0,0,0,.46,2.47,5,5,0,0,0,1.25,1.75,4.5,4.5,0,0,0,1.76,1,7.15,7.15,0,0,0,2.11.32,5.22,5.22,0,0,0,3.57-1.07,14.18,14.18,0,0,0,2.15-2.43v-8Z"/><path class="cls-4" d="M920.52,239.59l-9.44-23a6.9,6.9,0,0,0-2.54-3.32,8.23,8.23,0,0,0-3.93-1.36v-1.18h5A7.44,7.44,0,0,1,914,212a8.31,8.31,0,0,1,2.68,3.57l6.69,16.27,7.43-20.41h2.94L922.31,243a24.22,24.22,0,0,1-1.86,4,9.53,9.53,0,0,1-2,2.43,6.11,6.11,0,0,1-2.39,1.22,11.76,11.76,0,0,1-2.83.32h-1.61v-1.75a10.83,10.83,0,0,0,2.47-.29,6.2,6.2,0,0,0,2.14-.93A6.86,6.86,0,0,0,918,246a14.23,14.23,0,0,0,1.54-3.07l1.18-3.26Z"/><path class="cls-4" d="M945.87,213.7a10.74,10.74,0,0,1,3-2,11,11,0,0,1,4.62-.9,10.53,10.53,0,0,1,4.07.82,6.1,6.1,0,0,1,3,3.29,9.92,9.92,0,0,1,4-3,12,12,0,0,1,4.86-1.07,11.49,11.49,0,0,1,3.14.43,5.51,5.51,0,0,1,2.61,1.65,8.86,8.86,0,0,1,1.83,3.28,18,18,0,0,1,.64,5.22V239h-5.26V221.5a11.34,11.34,0,0,0-1.21-6.19,4,4,0,0,0-3.58-1.75,4.53,4.53,0,0,0-1.78.36,7.59,7.59,0,0,0-1.75.89,13.34,13.34,0,0,0-1.54,1.25,8.8,8.8,0,0,0-1.11,1.33,6.24,6.24,0,0,1,.25,1.93v19.84h-5.29V221.5a11.44,11.44,0,0,0-1.22-6.19,4,4,0,0,0-3.57-1.75,6.27,6.27,0,0,0-3.29.93,13,13,0,0,0-2.61,2.18v22.49h-5.29V218.57a10.32,10.32,0,0,0-.75-4.29c-.47-1.08-1.61-1.61-3.4-1.61h-1.14v-1.18h5.29a7.18,7.18,0,0,1,3.36.64,3.28,3.28,0,0,1,1.64,1.72Z"/><path class="cls-4" d="M1007.67,226.07H989.8a17.7,17.7,0,0,0,.54,4.47,10.44,10.44,0,0,0,1.53,3.58,7.35,7.35,0,0,0,2.51,2.32,6.44,6.44,0,0,0,3.36.82,8.67,8.67,0,0,0,4.79-1.21,12.3,12.3,0,0,0,3.57-3.58l1.18.9a11.31,11.31,0,0,1-10.72,6.14,11.57,11.57,0,0,1-5.4-1.14,11.33,11.33,0,0,1-3.86-3.07,12.83,12.83,0,0,1-2.33-4.58,20,20,0,0,1,0-11.23,13.93,13.93,0,0,1,2.33-4.57,11.86,11.86,0,0,1,3.57-3.08,10.85,10.85,0,0,1,5-1.14,11.07,11.07,0,0,1,8.87,3.36,14.33,14.33,0,0,1,2.89,9.58V226Zm-5.47-2.36h0a16.14,16.14,0,0,0-1.53-7.86,4.9,4.9,0,0,0-4.61-2.72,4.18,4.18,0,0,0-2.51.79,7.3,7.3,0,0,0-1.93,2.21,13,13,0,0,0-1.28,3.33,17.87,17.87,0,0,0-.47,4.25Z"/><path class="cls-4" d="M1015.47,218.42a10.68,10.68,0,0,0-.75-4.29c-.5-1.07-1.61-1.61-3.58-1.61H1010v-1.18h5.29a7.09,7.09,0,0,1,3.36.65,3.17,3.17,0,0,1,1.61,1.71h.32a10.59,10.59,0,0,1,7.65-2.93,15.92,15.92,0,0,1,3.57.43,7.73,7.73,0,0,1,3.19,1.65,8,8,0,0,1,2.25,3.28,13.87,13.87,0,0,1,.86,5.22V239h-5V221.5a11.43,11.43,0,0,0-.54-3.58,8.09,8.09,0,0,0-1.47-2.46,6.11,6.11,0,0,0-2.07-1.36,7.78,7.78,0,0,0-2.39-.4,6.26,6.26,0,0,0-3.26.93,13.32,13.32,0,0,0-2.61,2.18V239.3h-5.29V218.71Z"/><path class="cls-4" d="M1047.68,213.7h-4.11v-2.36h4.11v-5.29l3-3.57H1053v8.83h7.15v2.36H1053V231.9c0,3.57,1.36,5.29,4.11,5.29a8.52,8.52,0,0,0,2.51-.32c.64-.24,1.27-.52,1.89-.82l.61,1.14L1061,238a7.51,7.51,0,0,1-1.5.75,12,12,0,0,1-2,.61,15.51,15.51,0,0,1-2.72.21,7.17,7.17,0,0,1-5.07-1.82,7.51,7.51,0,0,1-2-5.83V213.7Z"/><path class="cls-4" d="M1086,231.94a6.87,6.87,0,0,1-3,5.68,9.27,9.27,0,0,1-3.25,1.46,15.16,15.16,0,0,1-4.08.51,22.15,22.15,0,0,1-5.79-.61,7.87,7.87,0,0,1-3.36-1.75,4.22,4.22,0,0,1-1.25-2.51,26.6,26.6,0,0,1-.18-3.57h1.15a7.1,7.1,0,0,0,2.5,4.5,8.75,8.75,0,0,0,5.75,1.65,8.5,8.5,0,0,0,4.9-1.15,3.52,3.52,0,0,0,1.57-3,3.91,3.91,0,0,0-1.32-3,14.77,14.77,0,0,0-4-2.32l-3.57-1.47a15.17,15.17,0,0,1-5.22-3.22,6.37,6.37,0,0,1-1.82-4.72,6.84,6.84,0,0,1,.71-3.29,6.91,6.91,0,0,1,2-2.39,9.22,9.22,0,0,1,3-1.47,15,15,0,0,1,3.89-.5,22,22,0,0,1,5.54.61,7.72,7.72,0,0,1,3.29,1.75,4.16,4.16,0,0,1,1.29,2.54,30.55,30.55,0,0,1,.18,3.58h-1.18a7.15,7.15,0,0,0-2.43-4.54,8.31,8.31,0,0,0-5.51-1.65,7.18,7.18,0,0,0-4.39,1.18,3.6,3.6,0,0,0-1.51,2.93,4,4,0,0,0,1.26,2.79,10.27,10.27,0,0,0,3.57,2.22l3.58,1.46a19.08,19.08,0,0,1,5.68,3.36,6.29,6.29,0,0,1,2,4.87Z"/><path class="cls-4" d="M1099.58,211.63a15.87,15.87,0,0,0-1.07-6.36c-.75-1.65-2.43-2.43-5.08-2.43h-.89v-2.79h23.81a61.23,61.23,0,0,1,8.72.43,28.54,28.54,0,0,1,8.44,2,15.49,15.49,0,0,1,6.36,4.69,12.55,12.55,0,0,1,2.5,8.26,10.23,10.23,0,0,1-.75,3.78,11.5,11.5,0,0,1-2.28,3.58,16.68,16.68,0,0,1-3.83,3.07,19.81,19.81,0,0,1-5.4,2.18,23.16,23.16,0,0,1,7.15,1.72,13.41,13.41,0,0,1,4.58,3.15,10.31,10.31,0,0,1,2.43,4.18,16.6,16.6,0,0,1,.71,4.9,13.64,13.64,0,0,1-2.28,8.18,15.68,15.68,0,0,1-6,4.94,28.37,28.37,0,0,1-8.37,2.39,75.05,75.05,0,0,1-9.36.61h-19.41V211.63Zm16.77-7.94h0q-1,0-2,0c-.55.06-1.1.14-1.64.25l-1.61.29v22.2h6.61a14.52,14.52,0,0,0,8.87-2.54,10.26,10.26,0,0,0,3.57-8.83,11,11,0,0,0-1.21-5.47,9.82,9.82,0,0,0-3.08-3.57,12,12,0,0,0-4.36-1.9,21.38,21.38,0,0,0-5-.6Zm1.32,51.16h0a17.1,17.1,0,0,0,11.16-3.15,11,11,0,0,0,3.82-9c0-8.12-5-12.16-15-12.16h-6.61V254a10.86,10.86,0,0,0,1.79.43,18.53,18.53,0,0,0,4.39.43Z"/><path class="cls-4" d="M1169,216.06a18.54,18.54,0,0,1,13.37,4.58,18.78,18.78,0,0,1,4.68,13.94v23.81h-7.33l-3.11-4h-.46a10.17,10.17,0,0,1-2.47,2.47,11.53,11.53,0,0,1-3.25,1.68,15.1,15.1,0,0,1-4.86.71,16.41,16.41,0,0,1-11.15-3.32,10.74,10.74,0,0,1-3.87-8.58,13.81,13.81,0,0,1,1.08-5.61,9.59,9.59,0,0,1,3.75-4.15,21.51,21.51,0,0,1,7.15-2.61,65.27,65.27,0,0,1,11.76-.89h1.32a20,20,0,0,0-2.21-11,7.17,7.17,0,0,0-6.19-3.08,13.13,13.13,0,0,0-2.86.32,5.67,5.67,0,0,0-2.5,1.18,7.83,7.83,0,0,0-2,2.43,15,15,0,0,0-1.43,4h-4.82a35.08,35.08,0,0,1,.32-4.69,7.17,7.17,0,0,1,1.89-4.14,9,9,0,0,1,5.22-2.43,46.79,46.79,0,0,1,8-.65Zm6.61,22.06h-1.32a14.32,14.32,0,0,0-9.15,2.32,8.58,8.58,0,0,0-2.79,7.15,8.87,8.87,0,0,0,1.57,5.65,5.05,5.05,0,0,0,4.19,1.93,6.14,6.14,0,0,0,3.39-.89,12.87,12.87,0,0,0,2.33-2,12.26,12.26,0,0,0,1.78-3V238.12Z"/><path class="cls-4" d="M1217.8,220.28a13.55,13.55,0,0,0-4.89.82,8.61,8.61,0,0,0-3.22,1.93,10.8,10.8,0,0,0,.25,1.26,7.58,7.58,0,0,1,.25,1.5,16,16,0,0,1,0,2v30.64h-11.48v-30a26.77,26.77,0,0,0-.21-3.58,8.47,8.47,0,0,0-.86-2.82,3.85,3.85,0,0,0-1.82-1.79,6.87,6.87,0,0,0-3.18-.64h-.9v-2.65h8.72a11.88,11.88,0,0,1,4.72.79,5.43,5.43,0,0,1,2.72,2.5,18.15,18.15,0,0,1,1.9-1.47,12.3,12.3,0,0,1,2.64-1.32,20.12,20.12,0,0,1,3.58-1,22.92,22.92,0,0,1,4.75-.4,18.16,18.16,0,0,1,12.51,3.83,16,16,0,0,1,4.26,12.4v26.1h-11.37V232.22a13.48,13.48,0,0,0-2.4-9.11,7.61,7.61,0,0,0-6-2.69Z"/><path class="cls-4" d="M1259.23,241.12v17.27h-11.61V211.63a16.1,16.1,0,0,0-1.08-6.4c-.75-1.61-2.43-2.39-5.07-2.39h-.9v-2.79h10.73a10.55,10.55,0,0,1,3.82.57,5.08,5.08,0,0,1,2.51,1.89,8.48,8.48,0,0,1,1.25,3.58,35.74,35.74,0,0,1,.36,5.47v25L1270,223.5c.86-1,1.75-2,2.57-2.86a15.5,15.5,0,0,1,2.76-2.15,10.84,10.84,0,0,1,3.25-1.32,17.8,17.8,0,0,1,4.11-.46h1.75V219a10.82,10.82,0,0,0-4.75,1,13.23,13.23,0,0,0-4,3.36l-8.58,10.4,11.72,15.51a23.8,23.8,0,0,0,4.33,4.69,10.28,10.28,0,0,0,3.9,2v2.1a7.66,7.66,0,0,1-2.58.61,23.76,23.76,0,0,1-3.57.29,16.59,16.59,0,0,1-7-1.54,17,17,0,0,1-6.19-5.54l-8.47-11.08Z"/><path class="cls-4" d="M1014.18,115.75h4.08a25,25,0,0,1,4.71.75,28.09,28.09,0,0,1,4.65,1.61,15.24,15.24,0,0,1,4.11,2.86,13.06,13.06,0,0,1,2.9,4.36,16.32,16.32,0,0,1,1.07,6.26,14.7,14.7,0,0,1-1.07,5.9,13.38,13.38,0,0,1-2.83,4.18,14.2,14.2,0,0,1-3.93,2.75,24,24,0,0,1-4.25,1.61,21.41,21.41,0,0,1-4,.68c-1.25,0-2.29.18-3.07.18H1009v21.27H998.67v-42a13.84,13.84,0,0,0-1-5.79c-.67-1.47-2.18-2.18-4.57-2.18h-.79v-2.4Zm0,3.18h-1.89a10.44,10.44,0,0,0-1.68.22l-1.61.25v24.38h4.79a14.53,14.53,0,0,0,3.93-.57,7.83,7.83,0,0,0,3.57-2,9.39,9.39,0,0,0,2.43-3.86,16.39,16.39,0,0,0,.93-6.08,16.09,16.09,0,0,0-.93-6,9.81,9.81,0,0,0-2.39-3.83,7.76,7.76,0,0,0-3.29-2,11.93,11.93,0,0,0-3.75-.57Z"/><path class="cls-4" d="M1039,149.61a21.7,21.7,0,0,1,1.33-7.65,17.57,17.57,0,0,1,3.79-6.26,17,17,0,0,1,6-4.15,21.54,21.54,0,0,1,16,0A18.25,18.25,0,0,1,1076,142a22.71,22.71,0,0,1,0,15.3,17.91,17.91,0,0,1-3.78,6.22,17.45,17.45,0,0,1-6,4.14,22,22,0,0,1-16,0,17.41,17.41,0,0,1-6-4.14,18.26,18.26,0,0,1-3.93-6.33,21.7,21.7,0,0,1-1.33-7.65Zm27.49,0h0a38.33,38.33,0,0,0-.5-6.33,21.06,21.06,0,0,0-1.57-5.08,8.82,8.82,0,0,0-2.61-3.32,6,6,0,0,0-7.15,0,8.65,8.65,0,0,0-2.64,3.32,19.74,19.74,0,0,0-1.54,5.08,37.31,37.31,0,0,0,0,12.65A18.77,18.77,0,0,0,1052,161a9,9,0,0,0,2.64,3.36,5.91,5.91,0,0,0,3.58,1.18,6,6,0,0,0,3.57-1.18,9.24,9.24,0,0,0,2.61-3.36,20.08,20.08,0,0,0,1.57-5.08A38.21,38.21,0,0,0,1066.44,149.61Z"/><path class="cls-4" d="M1096.72,165.55a9.51,9.51,0,0,0,6.22-1.57,5,5,0,0,0,1.75-3.86,4.28,4.28,0,0,0-2.07-3.58,36,36,0,0,0-5.15-3l-4.14-1.75a24.75,24.75,0,0,1-7.47-4.72,8.66,8.66,0,0,1-2.69-6.39,9,9,0,0,1,1.11-4.58,9.54,9.54,0,0,1,3.15-3.32,15.43,15.43,0,0,1,4.82-2,26.23,26.23,0,0,1,6-.68,30.35,30.35,0,0,1,8.11.89,10.72,10.72,0,0,1,4.72,2.4,5.91,5.91,0,0,1,1.68,3.89c0,1.68.25,3.58.25,5.58h-2.79a12.43,12.43,0,0,0-3.11-6.51,9.39,9.39,0,0,0-7.15-2.64,7.09,7.09,0,0,0-5.18,1.54,5.15,5.15,0,0,0-1.61,3.86,4.41,4.41,0,0,0,1.54,3.57,14.88,14.88,0,0,0,4.14,2.43l4.76,2a30,30,0,0,1,8.11,4.69,8.6,8.6,0,0,1,2.79,6.75,8.31,8.31,0,0,1-1.21,4.58,10.9,10.9,0,0,1-3.4,3.29,15.22,15.22,0,0,1-5.15,2,29.64,29.64,0,0,1-6.58.68,31.79,31.79,0,0,1-8.07-.86,11.1,11.1,0,0,1-4.72-2.4,5.81,5.81,0,0,1-1.68-3.89,52.09,52.09,0,0,1-.25-5.58h2.78a12.42,12.42,0,0,0,3.11,6.47,9.42,9.42,0,0,0,7.15,2.68Z"/><path class="cls-4" d="M1134.15,130.87h8.76v3.58h-8.76v23.49a11.5,11.5,0,0,0,1.07,6,3.57,3.57,0,0,0,3.08,1.57,8.68,8.68,0,0,0,2.43-.32,17,17,0,0,0,2-.71,12.46,12.46,0,0,0,1.82-1.11l1.11,2.22a12.56,12.56,0,0,1-2.47,1.75,19.19,19.19,0,0,1-3.22,1.21,17.28,17.28,0,0,1-4.64.54,11.77,11.77,0,0,1-8.51-2.93,11.57,11.57,0,0,1-3.08-8.69v-23h-4.86v-3.58h4.76v-7.15l4-4.79H1134v11.94Z"/><path class="cls-4" d="M897.07,149.75a9.63,9.63,0,0,0-.68-3.86c-.43-1-1.47-1.47-3-1.47h-1.07v-1h4.79a6.75,6.75,0,0,1,3,.53,3.3,3.3,0,0,1,1.46,1.58h.25a9.62,9.62,0,0,1,2.76-1.83,10,10,0,0,1,4.14-.82,14.93,14.93,0,0,1,3.33.39,7.15,7.15,0,0,1,2.89,1.5,7.91,7.91,0,0,1,2,2.94,12.84,12.84,0,0,1,.75,4.72v15.9H913V152.4a10.15,10.15,0,0,0-.5-3.33,6.84,6.84,0,0,0-1.33-2.25,5.06,5.06,0,0,0-1.86-1.22,6.2,6.2,0,0,0-2.14-.35,5.66,5.66,0,0,0-3,.82,13.43,13.43,0,0,0-2.36,2V168.3h-4.75V149.75Z"/><path class="cls-4" d="M945.26,168.3h-2.65l-1.86-2.39h-.25a12.16,12.16,0,0,1-1,1,5,5,0,0,1-1.39.93,9,9,0,0,1-2,.72,12.77,12.77,0,0,1-2.76.25,8.37,8.37,0,0,1-4.21-1,9.13,9.13,0,0,1-3-2.79,12.7,12.7,0,0,1-1.75-4.11,20.35,20.35,0,0,1-.57-5,18.83,18.83,0,0,1,.61-5.07,11.87,11.87,0,0,1,1.82-4.11,9,9,0,0,1,7.61-3.83,13.34,13.34,0,0,1,3.83.5c1.07.36,2,.72,2.82,1.07v-4.75a9,9,0,0,0-.68-4c-.43-1-1.43-1.43-3-1.43h-1.07V133.2h4.79a9.77,9.77,0,0,1,2.29.21,2.79,2.79,0,0,1,1.5,1,4.65,4.65,0,0,1,.75,2,20.42,20.42,0,0,1,.22,3.22V168.3Zm-4.76-21.87h0l-2.5-1.11a7.13,7.13,0,0,0-2.54-.5,5.19,5.19,0,0,0-3,.85,6.17,6.17,0,0,0-2,2.33,11.28,11.28,0,0,0-1.18,3.57,22.91,22.91,0,0,0-.4,4.29,27.62,27.62,0,0,0,.36,4.26,12.45,12.45,0,0,0,1.11,3.57,6.5,6.5,0,0,0,1.93,2.33,4.34,4.34,0,0,0,2.72.85,7,7,0,0,0,2-.28,4.93,4.93,0,0,0,1.54-.72,4.54,4.54,0,0,0,1.11-1l.89-1.15V146.43Z"/><path class="cls-4" d="M958.48,168.3h-4.79V149.75a9.77,9.77,0,0,0-.64-3.86,3.05,3.05,0,0,0-3.07-1.47h-1v-1h4.75a10.75,10.75,0,0,1,2.33.21,2.81,2.81,0,0,1,1.46,1,4.16,4.16,0,0,1,.79,2,19.29,19.29,0,0,1,.21,3.22Zm-.42-30.49h0a2.3,2.3,0,0,1-.68,1.75,2.39,2.39,0,0,1-1.76.64,2.73,2.73,0,0,1-2.1-1,3.53,3.53,0,0,1-.86-2.39,2.31,2.31,0,0,1,.64-1.75,2.45,2.45,0,0,1,1.79-.65,2.57,2.57,0,0,1,2.07,1A3.67,3.67,0,0,1,958.06,137.81Z"/><path class="cls-4" d="M981.43,168.3l-1.85-2.36h-.08a7.89,7.89,0,0,1-2.61,1.93,10,10,0,0,1-4.82,1,9.1,9.1,0,0,1-2.43-.36,6.95,6.95,0,0,1-4.47-3.47,7.13,7.13,0,0,1-.79-3.57,5.76,5.76,0,0,1,1.11-3.58,8.42,8.42,0,0,1,3-2.28,17.61,17.61,0,0,1,4.29-1.18,40.14,40.14,0,0,1,5.15-.36h1.6a19.45,19.45,0,0,0-.42-4.5,7.29,7.29,0,0,0-1.18-2.76,3.65,3.65,0,0,0-1.76-1.36,6.84,6.84,0,0,0-5.79.58,5.28,5.28,0,0,0-2.11,3.57h-2.39V147a4,4,0,0,1,1.18-2.21,4.3,4.3,0,0,1,1.36-.86,9.3,9.3,0,0,1,1.93-.57,21,21,0,0,1,2-.54h2.44a16.48,16.48,0,0,1,3.57.39,6.65,6.65,0,0,1,3,1.61,8.44,8.44,0,0,1,2.07,3.58,17.86,17.86,0,0,1,.79,5.72v14.3Zm-2.1-12.19h-1.61a11.07,11.07,0,0,0-6.22,1.47,4.4,4.4,0,0,0-2.26,3.82,5.65,5.65,0,0,0,.43,2.26,5.09,5.09,0,0,0,1.11,1.57,4.25,4.25,0,0,0,1.57.93,5.81,5.81,0,0,0,1.94.28,4.61,4.61,0,0,0,3.11-1,10.52,10.52,0,0,0,1.93-2.22Z"/><path class="cls-4" d="M886.81,168.3h-4.76V139.7a9.79,9.79,0,0,0-.67-3.86c-.43-1-1.47-1.43-3-1.43h-1.08v-1.07h4.79a10.34,10.34,0,0,1,2.29.22,2.83,2.83,0,0,1,1.5,1,4.67,4.67,0,0,1,.75,1.93,18.69,18.69,0,0,1,.22,3.25v28.6Z"/><path class="cls-4" d="M421.83,173.52a10.21,10.21,0,0,1-5.65-2.32,38.1,38.1,0,0,1-6.61-6.33l-2-2.47a7.11,7.11,0,0,0-1.9-1.85,1.49,1.49,0,0,1-1-.79,2.67,2.67,0,0,1-.36-1.32,1.35,1.35,0,0,1,.61-1.08,2.1,2.1,0,0,1,1.21-.39,1.23,1.23,0,0,1,.54,0l.39.25a16.65,16.65,0,0,0,5.61,3,23.44,23.44,0,0,0,7.15,1,11.05,11.05,0,0,0,5.58-1.32,3.58,3.58,0,0,0,2.15-3,4.08,4.08,0,0,0-1.26-3.07,4.26,4.26,0,0,0-3.07-1.26h-7.47a9.51,9.51,0,0,1-5.83-1.78,5.42,5.42,0,0,1-2.43-4.36,5.56,5.56,0,0,1,2.18-4.44,7.56,7.56,0,0,1,5.08-1.82h9.79v-3.58H402.35V133h32.17v3.57h-6.25v7.15H414.68a4.38,4.38,0,0,0-2.64.83,2,2,0,0,0-.69,2.74,2,2,0,0,0,1,.83,6.71,6.71,0,0,0,3.4.82h7.47a7.87,7.87,0,0,1,5.65,2.29,7.67,7.67,0,0,1,2.28,5.65,6.76,6.76,0,0,1-3.39,5.68,13.71,13.71,0,0,1-7.94,2.26,20.42,20.42,0,0,1-3.82-.36,10.45,10.45,0,0,1-2.29-.5,34.48,34.48,0,0,0,4.22,4,7.13,7.13,0,0,0,3.93,1.78,12.29,12.29,0,0,0,3.25-.43,13.08,13.08,0,0,0,3-1.21h.35a1.57,1.57,0,0,1,.61,0,2.68,2.68,0,0,1,.86.71,1.64,1.64,0,0,1,.36,1,1.21,1.21,0,0,1-.43,1,9.86,9.86,0,0,1-3.58,1.85,16.68,16.68,0,0,1-4.61.61Z"/><path class="cls-4" d="M434,133.59v2.72h-6.29v7.15H414.68a4.53,4.53,0,0,0-2.89.89,2.59,2.59,0,0,0-1.18,2.18,2.54,2.54,0,0,0,1.5,2.18,7.06,7.06,0,0,0,3.57.86h7.47a7.34,7.34,0,0,1,5.33,2.18,7.17,7.17,0,0,1,2.18,5.33,6.34,6.34,0,0,1-3.22,5.32,13.34,13.34,0,0,1-7.68,2.19,23.7,23.7,0,0,1-3.76-.36,21.14,21.14,0,0,1-3.57-1,34.82,34.82,0,0,0,5.36,5.29,7.65,7.65,0,0,0,4.18,1.9,13.94,13.94,0,0,0,3.4-.47,12.08,12.08,0,0,0,3.07-1.25.63.63,0,0,1,.65,0,2.2,2.2,0,0,1,.71.61,1.1,1.1,0,0,1,.29.75.73.73,0,0,1-.29.61,9.07,9.07,0,0,1-3.36,1.78A15.71,15.71,0,0,1,422,173a9.7,9.7,0,0,1-5.36-2.25,36.24,36.24,0,0,1-6.54-6.26l-2-2.46a6.71,6.71,0,0,0-2.07-2,1.55,1.55,0,0,1-.75-.61,2.22,2.22,0,0,1-.25-1.1.94.94,0,0,1,.39-.72,1.61,1.61,0,0,1,1-.32h.28l.39.25a17.15,17.15,0,0,0,5.72,3,23.44,23.44,0,0,0,7.15,1,11.16,11.16,0,0,0,5.8-1.39,4,4,0,0,0,2.39-3.36,4.82,4.82,0,0,0-4.79-4.79h-7.47a9.05,9.05,0,0,1-5.58-1.68,5,5,0,0,1-2.25-4.08,5.18,5.18,0,0,1,2-4.11,7.21,7.21,0,0,1,4.79-1.68H425v-4.25h-22.2v-2.72Z"/><path class="cls-4" d="M425.05,127.55a4.14,4.14,0,0,1-4.18-4.11.09.09,0,0,1,0-.07,3.9,3.9,0,0,1,1.21-3,4.18,4.18,0,0,1,7.15,3,4.17,4.17,0,0,1-4.18,4.18Z"/><path class="cls-4" d="M427.69,120.69a3.76,3.76,0,0,1-5.05,5.56l-.24-.24a3.6,3.6,0,0,1-1.11-2.64A3.75,3.75,0,0,1,425,119.6,3.68,3.68,0,0,1,427.69,120.69Z"/><path class="cls-4" d="M436.74,168.09a1.68,1.68,0,0,1-1.25-.54,1.72,1.72,0,0,1-.54-1.28,1.76,1.76,0,0,1,.54-1.26,1.67,1.67,0,0,1,1.25-.53h2.64V136.74h-6.54v-3.58h5.94a5.36,5.36,0,0,1-.86-1.64,9.17,9.17,0,0,1-.61-3.36,9.72,9.72,0,0,1,4.93-8.08,20.35,20.35,0,0,1,11.69-3.25A25.79,25.79,0,0,1,469,121.19a13,13,0,0,1,6.33,10.72v.43h-3.58v-.43a9.62,9.62,0,0,0-5.18-8,23,23,0,0,0-12.76-3.58,17.42,17.42,0,0,0-9.19,2.33,6.32,6.32,0,0,0-3.58,5.39,6,6,0,0,0,.75,3,5.28,5.28,0,0,0,2.08,2.11h5.75v3.58H443.1v27.74h2.29a1.82,1.82,0,0,1,1.79,1.78,1.85,1.85,0,0,1-1.79,1.83Z"/><path class="cls-4" d="M439.7,133.59a5.71,5.71,0,0,1-1.5-2.25,8.92,8.92,0,0,1,4.19-10.73,19.87,19.87,0,0,1,11.44-3.21,25.31,25.31,0,0,1,14.83,4.29,12.49,12.49,0,0,1,6.15,10.36h-2.75a10.06,10.06,0,0,0-5.37-8.43,23.51,23.51,0,0,0-13-3.58,17.91,17.91,0,0,0-9.4,2.4,6.85,6.85,0,0,0-3.9,5.79,6.56,6.56,0,0,0,.83,3.18,6,6,0,0,0,2.25,2.29H449v2.72h-6.54V165h2.72a1.22,1.22,0,0,1,1,.43,1.19,1.19,0,0,1,.43.93,1.33,1.33,0,0,1-.43,1,1.28,1.28,0,0,1-1,.39h-8.51a1.29,1.29,0,0,1-.93-.39,1.33,1.33,0,0,1-.43-1,1.47,1.47,0,0,1,1.36-1.36h3.07V136.42h-6.43V133.7Z"/><path class="cls-4" d="M463.44,168.09a18.07,18.07,0,0,1-10-3,8.3,8.3,0,0,1-4.72-6.68,2,2,0,0,1,.39-1.22,1.26,1.26,0,0,1,1.07-.57,1.74,1.74,0,0,1,1.25.57,3.29,3.29,0,0,1,.86,1.4,7.86,7.86,0,0,0,4,4.21,15.15,15.15,0,0,0,7.15,1.65,12.47,12.47,0,0,0,6.5-1.65,4,4,0,0,0,2.23-5.2,4,4,0,0,0-2.23-2.23,11.54,11.54,0,0,0-6.25-1.61,16.83,16.83,0,0,1-8.66-2.18,6.47,6.47,0,0,1-3.57-5.44,5.24,5.24,0,0,1,2.29-4.21,8.68,8.68,0,0,1,5.32-1.68h10.73V136.7h-23.6v-3.57h33.22v3.57h-6v7.15h-14.3a5.79,5.79,0,0,0-2.93.72,1.87,1.87,0,0,0-1.07,1.57c0,1,.85,2,2.53,2.72a15.34,15.34,0,0,0,6.58,1.25,14,14,0,0,1,8.44,2.61,7.4,7.4,0,0,1,2.49,10.16,7.32,7.32,0,0,1-2.67,2.6,15.33,15.33,0,0,1-8.94,2.57Z"/><path class="cls-4" d="M446.85,133.59H479v2.72H473v7.15H459a5.9,5.9,0,0,0-3.15.78,2.21,2.21,0,0,0-1.28,1.93c0,1.22.93,2.29,2.78,3.15a16.19,16.19,0,0,0,6.76,1.29,13.42,13.42,0,0,1,8.15,2.46,7,7,0,0,1,0,12.09,15,15,0,0,1-8.72,2.46,17.86,17.86,0,0,1-9.8-2.89,8,8,0,0,1-4.5-6.29,1.61,1.61,0,0,1,.32-1,.94.94,0,0,1,.72-.39,1.32,1.32,0,0,1,1,.46,3.34,3.34,0,0,1,.75,1.25,8.26,8.26,0,0,0,4.18,4.44,15.34,15.34,0,0,0,7.37,1.68,12.72,12.72,0,0,0,6.76-1.72,4.4,4.4,0,0,0,0-8.15,11.85,11.85,0,0,0-6.51-1.72,16.12,16.12,0,0,1-8.4-2.1,6,6,0,0,1-3.58-5.05,4.71,4.71,0,0,1,2.11-3.86,8.28,8.28,0,0,1,5-1.57H470.2v-4.43H446.85Z"/><path class="cls-4" d="M499.4,168.09a1.75,1.75,0,0,1-1.25-.54,1.71,1.71,0,0,1-.53-1.28,1.83,1.83,0,0,1,1.78-1.79h2.65v-6.9a21.5,21.5,0,0,1-5.29,4.25,13.45,13.45,0,0,1-6.54,1.83,11.76,11.76,0,0,1-8.76-3.83,13,13,0,0,1-3.58-9.22,2.94,2.94,0,0,1,.93-2.25,3,3,0,0,1,2.26-.93,9.41,9.41,0,0,0,5.75-1.79,5.23,5.23,0,0,0,2.29-4.22,4.77,4.77,0,0,0-.82-2.61A6.65,6.65,0,0,0,486,136.7H475.24v-3.57h37.14v3.57h-6.54v27.74h2.25a1.78,1.78,0,0,1,1.29.54,1.6,1.6,0,0,1,.53,1.25,1.81,1.81,0,0,1-1.82,1.82ZM481.53,151h0a9.56,9.56,0,0,0,2.57,6.25,8.06,8.06,0,0,0,6.19,2.76,11.22,11.22,0,0,0,6.43-2.22,17.84,17.84,0,0,0,5.44-6.08v-15H490.75a7.92,7.92,0,0,1,1.29,1.75,6.26,6.26,0,0,1,.75,2.93,8.58,8.58,0,0,1-3.57,6.83,12.47,12.47,0,0,1-7.8,2.79Z"/><path class="cls-4" d="M511.74,133.59v2.72H505.2v28.6h2.71a1.29,1.29,0,0,1,1,.43,1.16,1.16,0,0,1,.39.93,1.28,1.28,0,0,1-.39,1,1.22,1.22,0,0,1-1,.39H499.4a1.18,1.18,0,0,1-.93-.39,1.31,1.31,0,0,1-.42-1,1.46,1.46,0,0,1,1.35-1.36h3.08V156.4a21,21,0,0,1-5.94,5,13,13,0,0,1-6.32,1.75,11.26,11.26,0,0,1-8.44-3.57,12.4,12.4,0,0,1-3.57-8.9,2.67,2.67,0,0,1,2.64-2.72H481a9.47,9.47,0,0,0,6-1.93,5.54,5.54,0,0,0,2.51-4.54,5.22,5.22,0,0,0-.93-2.83,6.84,6.84,0,0,0-2.47-2.28H475.35V133.7Zm-20.2,5.11h0a5.42,5.42,0,0,1,.71,2.72,8.19,8.19,0,0,1-3.28,6.51,12.34,12.34,0,0,1-7.94,2.68,9.92,9.92,0,0,0,2.68,7.15,8.55,8.55,0,0,0,6.51,2.89,11.64,11.64,0,0,0,6.72-2.28,18.61,18.61,0,0,0,5.54-6.23V136.31H489.54a8.36,8.36,0,0,1,2,2.39Z"/><path class="cls-4" d="M513.13,168.09a1.85,1.85,0,0,1-1.79-1.82,1.83,1.83,0,0,1,1.79-1.79h2.29V136.74h-6.54v-3.58H525.5v3.58H519v27.74h2.64a1.75,1.75,0,0,1,1.26.53,1.71,1.71,0,0,1,.53,1.26,1.83,1.83,0,0,1-1.79,1.82Z"/><path class="cls-4" d="M509.34,133.59h15.8v2.72H518.6v28.6h3.08a1.46,1.46,0,0,1,1.35,1.36,1.28,1.28,0,0,1-.43,1,1.27,1.27,0,0,1-.92.39h-8.55a1.31,1.31,0,0,1-.93-.39,1.36,1.36,0,0,1-.43-1,1.46,1.46,0,0,1,1.36-1.36h2.75v-28.6h-6.54v-2.72Z"/><path class="cls-4" d="M587.63,116.9v4H578v42h4.72a2,2,0,0,1,1.39,3.4,1.76,1.76,0,0,1-1.39.6H570.19a2,2,0,0,1-2-1.92,2,2,0,0,1,.62-1.47,1.91,1.91,0,0,1,1.4-.61h4V150.43a21.82,21.82,0,0,1-7,5.58,18.27,18.27,0,0,1-8,1.93,15.7,15.7,0,0,1-11.52-4.37,14.78,14.78,0,0,1-4.68-11V121.15h-7.15V116.9ZM547,142.42h0a10.72,10.72,0,0,0,3.57,8.15,11.72,11.72,0,0,0,8.51,3.36,16.06,16.06,0,0,0,15-10.51V120.9H547v21.52Z"/><path class="cls-4" d="M582.7,168.09H570.19a3.27,3.27,0,0,1-3.19-3.15,3,3,0,0,1,1-2.21,3,3,0,0,1,2.22-.93H573v-8.48a21.53,21.53,0,0,1-5.29,3.58,19.21,19.21,0,0,1-8.54,2,16.76,16.76,0,0,1-12.12-4.86,15.91,15.91,0,0,1-5.08-11.8v-20.2h-7.15v-6.33h53.95v6.33h-9.66V161.8h3.58a3.15,3.15,0,0,1,2.21.93,3,3,0,0,1,.93,2.21,2.87,2.87,0,0,1-1,2.22,3,3,0,0,1-2.18.93Zm-12.51-4h0a.72.72,0,0,0-.58.29.68.68,0,0,0-.28.57.69.69,0,0,0,.25.57.76.76,0,0,0,.61.29H582.7a.77.77,0,0,0,.57-.25.86.86,0,0,0,.25-.61.77.77,0,0,0-.25-.57.83.83,0,0,0-.57-.29H577V119.76h9.62v-1.68H536.9v1.68h7.15v22.66a13.48,13.48,0,0,0,4.37,10.15,14.43,14.43,0,0,0,10.51,4.22,17,17,0,0,0,7.54-1.82,20.69,20.69,0,0,0,6.58-5.29l2-2.43v16.83Zm-11-9h0a13,13,0,0,1-9.3-3.58,12,12,0,0,1-3.86-9V119.76h29.31v24.06a17.23,17.23,0,0,1-16.08,11.26Zm-10.73-33h0v20.34a9.63,9.63,0,0,0,3.15,7.33,10.72,10.72,0,0,0,7.72,3,14.86,14.86,0,0,0,13.83-9.55V122.08Z"/><path class="cls-4" d="M584.06,116.9h23.23v4h-9.61v42h4.5a1.89,1.89,0,0,1,1.39.61,2,2,0,0,1-1.39,3.39H589.85a1.78,1.78,0,0,1-1.4-.6,2,2,0,0,1,1.4-3.4h4v-42h-9.62v-4Z"/><path class="cls-4" d="M602.18,168.09H589.85a3.13,3.13,0,0,1-2.22-.93,3,3,0,0,1-.93-2.22,3.17,3.17,0,0,1,.93-2.21,3.09,3.09,0,0,1,2.22-.93h2.86V122.08h-9.62v-6.33h25.53v6.33H599V161.8h3.36a3.05,3.05,0,0,1,2.22.93,3.15,3.15,0,0,1,.93,2.21,3.19,3.19,0,0,1-3.15,3.15Zm-12.51-4h0a1,1,0,0,0-.86.86.79.79,0,0,0,.29.61.76.76,0,0,0,.57.25h12.51a.86.86,0,0,0,.86-.86h0a.79.79,0,0,0-.25-.57,1,1,0,0,0-.61-.29h-5.65V119.76h9.62v-1.68H585.2v1.68h9.62v44.32Z"/><path class="cls-4" d="M572.44,95.91a8.94,8.94,0,0,1,4.32,1.18,11.07,11.07,0,0,1,3.58,3.33l8.54,13a12.85,12.85,0,0,0,2.4,2.54,3.61,3.61,0,0,0,2.11,1h2.5a1.87,1.87,0,0,1,1.39.61,1.9,1.9,0,0,1,.61,1.39,1.29,1.29,0,0,1-.61,1,2.18,2.18,0,0,1-1.39.47h-2.47a7.62,7.62,0,0,1-3.86-1.08,9,9,0,0,1-3.14-2.93l-9-14a5.33,5.33,0,0,0-2.11-1.86,6.33,6.33,0,0,0-2.9-.64h-4.5a2,2,0,0,1,0-4Z"/><path class="cls-4" d="M596,121.58h-2.54a8.64,8.64,0,0,1-4.43-1.22,10.71,10.71,0,0,1-3.58-3.28l-9-14a4.29,4.29,0,0,0-1.65-1.43,5.33,5.33,0,0,0-2.39-.54h-4.51a2.94,2.94,0,0,1-2.21-1,3.19,3.19,0,0,1,2.21-5.37h4.51a10.13,10.13,0,0,1,4.89,1.36,12.61,12.61,0,0,1,4,3.58l8.55,13.12a13.06,13.06,0,0,0,2.18,2.28,2.3,2.3,0,0,0,1.39.68h2.5a3.29,3.29,0,0,1,3.15,3.18,2.39,2.39,0,0,1-1.07,2,3.54,3.54,0,0,1-2.08.68Zm-28-24.52h0a.86.86,0,0,0-.6.25.77.77,0,0,0-.25.6.79.79,0,0,0,.25.58.81.81,0,0,0,.6.28h4.51a7.72,7.72,0,0,1,3.57.75,7.19,7.19,0,0,1,2.58,2.26l9,14a7.79,7.79,0,0,0,2.75,2.57,6.46,6.46,0,0,0,3.29.93h2.5a1.11,1.11,0,0,0,.68-.25.5.5,0,0,0,0-.71h0a.79.79,0,0,0-.57-.25h-2.83a4.76,4.76,0,0,1-2.82-1.18,16.42,16.42,0,0,1-2.61-2.79L579.48,101a10.12,10.12,0,0,0-3.25-2.89,7.69,7.69,0,0,0-3.79-1.07Z"/><path class="cls-4" d="M652.16,116.9v4h-17a15.57,15.57,0,0,1,5.51,5.22,12.76,12.76,0,0,1,2,6.79,10.82,10.82,0,0,1,0,1.61,19.25,19.25,0,0,1-.36,2.4,8.86,8.86,0,0,0,2.5,1.1,11.31,11.31,0,0,0,3,.4,10.43,10.43,0,0,0,2.78-.4,12.12,12.12,0,0,0,2.72-1.1v4a28,28,0,0,1-3.57,1.14,8,8,0,0,1-2,.36,15.51,15.51,0,0,1-3.9-.5,13.2,13.2,0,0,1-3.57-1.5,14.49,14.49,0,0,1-5.62,4.07,18.41,18.41,0,0,1-7.4,1.43h-10a14.33,14.33,0,0,1,3.58,3.58,78.39,78.39,0,0,1,4.54,7.15,13.72,13.72,0,0,0,4.4,4.75,10.12,10.12,0,0,0,5.61,1.76,6.82,6.82,0,0,0,3-1,7,7,0,0,1,3-1,1.29,1.29,0,0,1,1,.61,2.16,2.16,0,0,1,.47,1.4c0,.85-.83,1.75-2.51,2.64a10.7,10.7,0,0,1-5,1.36,13.85,13.85,0,0,1-7.62-2.29,18.17,18.17,0,0,1-5.89-6.22,66.48,66.48,0,0,0-5.54-8.19,12.14,12.14,0,0,0-4.65-4,6.23,6.23,0,0,1-1.79-.93,1.48,1.48,0,0,1-.71-1.08v-4.5a1.27,1.27,0,0,1,.6-1,2.32,2.32,0,0,1,2.79,0,1.3,1.3,0,0,1,.61,1,1.72,1.72,0,0,0,.89,1.39,3.61,3.61,0,0,0,2.11.61h11a12.54,12.54,0,0,0,8.15-2.64,7.8,7.8,0,0,0,3.36-6.37,10.32,10.32,0,0,0-3.86-7.93,16.41,16.41,0,0,0-9.65-4.08H606.22v-4Z"/><path class="cls-4" d="M635.14,168.09a15.1,15.1,0,0,1-8.22-2.47,19.6,19.6,0,0,1-6.29-6.58,61,61,0,0,0-5.44-8.07,11,11,0,0,0-4-3.58,6.73,6.73,0,0,1-2.1-1.11,2.49,2.49,0,0,1-1.15-2v-4.4a2.39,2.39,0,0,1,1.07-2,3.59,3.59,0,0,1,4.19,0,2.41,2.41,0,0,1,1,2,2.61,2.61,0,0,0,.4.46,2.79,2.79,0,0,0,1.46.4h11a11.74,11.74,0,0,0,7.44-2.4,6.81,6.81,0,0,0,2.93-5.47,9.24,9.24,0,0,0-3.57-7.15,15.7,15.7,0,0,0-9-3.79H605v-6.22h48.22v6.33H638.61a14.71,14.71,0,0,1,2.89,3.58,13.48,13.48,0,0,1,2.18,7.4,10.58,10.58,0,0,1,0,1.78l-.25,1.61a6.89,6.89,0,0,0,1.58.61,9.89,9.89,0,0,0,5.18,0,14.68,14.68,0,0,0,2.47-1l1.68-.93v6.72l-.72.29a34.06,34.06,0,0,1-3.57,1.21,10.19,10.19,0,0,1-2.33.36,16.42,16.42,0,0,1-4.18-.54,14,14,0,0,1-3.07-1.14,16,16,0,0,1-5.4,3.57,19.69,19.69,0,0,1-7.87,1.58h-7.15a17.32,17.32,0,0,1,1.33,1.64A68.27,68.27,0,0,1,626,156a12.6,12.6,0,0,0,4,4.36,9.11,9.11,0,0,0,5,1.57,5.74,5.74,0,0,0,2.47-.85,7.72,7.72,0,0,1,3.57-1.15,2.44,2.44,0,0,1,2,1,3.54,3.54,0,0,1,.68,2.11c0,1.36-1,2.54-3.11,3.57a11.81,11.81,0,0,1-5.54,1.47Zm-24.84-23.7h.21a5,5,0,0,0,1.5.78,12.67,12.67,0,0,1,5,4.15,66.7,66.7,0,0,1,5.65,8.37,16.6,16.6,0,0,0,5.54,5.79,12.64,12.64,0,0,0,7,2.14,9.32,9.32,0,0,0,4.47-1.21c1.46-.83,1.89-1.4,1.89-1.65a1.21,1.21,0,0,0-.21-.71,5,5,0,0,0-2.61.75,8.2,8.2,0,0,1-3.58,1.11,11.33,11.33,0,0,1-6.22-1.93,14.35,14.35,0,0,1-4.79-5.15,69,69,0,0,0-4.46-6.87,12.33,12.33,0,0,0-3.11-3.21l-3.79-2.15H627a17.74,17.74,0,0,0,7-1.36,13.74,13.74,0,0,0,5.14-3.57l.65-.75.82.46a12.14,12.14,0,0,0,3.32,1.4,14,14,0,0,0,3.58.46,7,7,0,0,0,1.75-.32,23.25,23.25,0,0,0,2.61-.82v-1.43a9.63,9.63,0,0,1-1.25.61,11.75,11.75,0,0,1-6.44,0A9.44,9.44,0,0,1,641.4,138l-.65-.39.47-3.14c0-.48,0-1,0-1.43a11.51,11.51,0,0,0-1.83-6.19,14.69,14.69,0,0,0-5.11-4.83l-3.57-2.14h20.2v-1.68H607.36v1.68h17.88a18,18,0,0,1,10.44,4.36,11.62,11.62,0,0,1,4.22,8.65,9,9,0,0,1-3.79,7.15,13.87,13.87,0,0,1-8.87,2.93h-11a4.78,4.78,0,0,1-2.72-.82,2.75,2.75,0,0,1-1.43-2.36,1.11,1.11,0,0,0-1.53,0v4.61Z"/><path class="cls-4" d="M700,116.9v4h-9.11v12a3.6,3.6,0,0,1-1.25,2.9,2.63,2.63,0,0,1-2.76.61,11.14,11.14,0,0,0-3.82-.79c-1.79,0-4.33-.22-7.69-.22a20.31,20.31,0,0,0-12.76,4.12,12.24,12.24,0,0,0-5.22,9.9,11.76,11.76,0,0,0,5.22,9.58,20.84,20.84,0,0,0,12.76,3.93,25.91,25.91,0,0,0,9.58-1.68,14.1,14.1,0,0,0,6.44-4.83,17.33,17.33,0,0,1,1.82-2.28,1.93,1.93,0,0,1,1.18-.72,3.08,3.08,0,0,1,1.75.47,1.25,1.25,0,0,1,.75,1c0,2.68-2.39,5.37-7.15,8a29.25,29.25,0,0,1-14.3,4,24.18,24.18,0,0,1-15.55-5.14,15.42,15.42,0,0,1-6.47-12.37,16,16,0,0,1,6.47-12.76,23.86,23.86,0,0,1,15.55-5.26,59,59,0,0,1,7.15.25,19.48,19.48,0,0,1,4.29.75V120.9H648.62v-4Z"/><path class="cls-4" d="M675.32,168.09a25.25,25.25,0,0,1-16.26-5.4,16.56,16.56,0,0,1-6.9-13.26,17.12,17.12,0,0,1,6.9-13.73,24.93,24.93,0,0,1,16.26-5.5,62.55,62.55,0,0,1,7.33.25,25.84,25.84,0,0,1,3,.42v-8.79H647.47v-6.33H701.1v6.33H692v10.73a4.77,4.77,0,0,1-1.65,3.57,3.8,3.8,0,0,1-3.89.86,9.6,9.6,0,0,0-3.58-.75c-1.72,0-4.29-.22-7.58-.22a19.06,19.06,0,0,0-12.05,3.9,11,11,0,0,0-4.79,9,10.53,10.53,0,0,0,4.79,8.65,19.59,19.59,0,0,0,12.05,3.58,24.63,24.63,0,0,0,9.15-1.61,13,13,0,0,0,5.94-4.43,15.61,15.61,0,0,1,1.93-2.43,2.94,2.94,0,0,1,2-1,4.64,4.64,0,0,1,2.36.61,2.35,2.35,0,0,1,1.32,2c0,3.15-2.57,6.12-7.79,9a30.66,30.66,0,0,1-14.91,4.15Zm0-35.5h0a23,23,0,0,0-14.83,5,14.75,14.75,0,0,0-6,11.87,14.3,14.3,0,0,0,6,11.47,23.14,23.14,0,0,0,14.83,4.9,28,28,0,0,0,13.76-3.86q6.55-3.65,6.62-6.94h-.18a2.86,2.86,0,0,0-1.14-.28,3,3,0,0,0-.4.39,13.19,13.19,0,0,0-1.68,2.11,14.77,14.77,0,0,1-7,5.22,26.36,26.36,0,0,1-10,1.79,21.8,21.8,0,0,1-13.44-4.18,12.81,12.81,0,0,1-5.72-10.48,13.31,13.31,0,0,1,5.72-10.72,21.16,21.16,0,0,1,13.44-4.36c3.36,0,6,0,7.76.21a12.41,12.41,0,0,1,4.29.89s.64.33,1.46-.43a2.46,2.46,0,0,0,.86-2V119.76h9.12v-1.68h-49v1.68H688v14.3l-1.53-.54a16.35,16.35,0,0,0-4-.68c-1.86,0-4.26-.25-7.15-.25Z"/><path class="cls-4" d="M426.23,235.05a1.68,1.68,0,0,1-1.25-.54,1.72,1.72,0,0,1-.08-2.43L425,232a1.81,1.81,0,0,1,1.25-.5h2.32v-7.15a13.75,13.75,0,0,1-4.18,3.11,12.65,12.65,0,0,1-5.69,1.39,11.22,11.22,0,0,1-8-3.25,10.56,10.56,0,0,1-3.36-7.8V203.52h-4.93v-3.58H438.7v3.58h-6.61v28h2.72a1.78,1.78,0,0,1,1.72,1.85,1.75,1.75,0,0,1-.47,1.15,1.9,1.9,0,0,1-1.25.54Zm-15.41-17.13h0a7.17,7.17,0,0,0,2.29,5.33,7.9,7.9,0,0,0,5.57,2.18,10.73,10.73,0,0,0,9.91-6.94V203.62H410.71v14.3Z"/><path class="cls-4" d="M438.31,200.33v2.76H431.7V231.9h3.11a1.35,1.35,0,0,1,1.36,1.35,1.42,1.42,0,0,1-1.36,1.4h-8.58a1.36,1.36,0,0,1-.82-2.43,1.38,1.38,0,0,1,1-.39H429v-8.58a14.85,14.85,0,0,1-4.79,3.79,12.56,12.56,0,0,1-5.51,1.36,10.72,10.72,0,0,1-7.75-3.15,10,10,0,0,1-3.22-7.51V203h-5v-2.75Zm-27.88,17.48h0a7.57,7.57,0,0,0,2.39,5.62,8.18,8.18,0,0,0,5.86,2.28,11.07,11.07,0,0,0,10.3-7.14V203.16H410.43v14.65Z"/><path class="cls-4" d="M429,203.12a5.37,5.37,0,0,1-2.82-.78,6.55,6.55,0,0,1-2.29-2.15l-6.22-9.62a2.89,2.89,0,0,0-1.25-1.1,3.88,3.88,0,0,0-1.83-.43H411.5a1.66,1.66,0,0,1-1.25-.5,1.72,1.72,0,0,1-.08-2.43l.08-.08a1.71,1.71,0,0,1,1.25-.5h3.07a6.6,6.6,0,0,1,3.19.86,8,8,0,0,1,2.64,2.4l5.83,8.93a9.81,9.81,0,0,0,1.57,1.65,2.29,2.29,0,0,0,1.18.57h1.72a1.83,1.83,0,0,1,1.25.5,1.74,1.74,0,0,1,.53,1.25,1.21,1.21,0,0,1-.6,1,2,2,0,0,1-1.18.39Z"/><path class="cls-4" d="M414.39,185.93a6.05,6.05,0,0,1,3,.82A7.62,7.62,0,0,1,419.9,189l5.83,8.94a9.38,9.38,0,0,0,1.64,1.75,2.5,2.5,0,0,0,1.43.64h1.72a1.44,1.44,0,0,1,1,.4,1.29,1.29,0,0,1,.4,1,.79.79,0,0,1-.4.72,1.56,1.56,0,0,1-1,.32H429a5.48,5.48,0,0,1-2.65-.72,6.91,6.91,0,0,1-2.14-2L418,190.36a3.59,3.59,0,0,0-1.43-1.25,4.66,4.66,0,0,0-2-.43H411.5a1.41,1.41,0,0,1-1.08-2.25l.11-.11a1.4,1.4,0,0,1,1-.39Z"/><path class="cls-4" d="M466.09,235.05a2.25,2.25,0,0,1-1.43-.51,1.54,1.54,0,0,1-.68-1.28,1.72,1.72,0,0,1,.53-1.25,1.68,1.68,0,0,1,1.26-.54h2.53V219.24H455.36v4.4a6.72,6.72,0,0,1-2.29,5.15,8.19,8.19,0,0,1-11,0,6.93,6.93,0,0,1-2.29-5.15,7.39,7.39,0,0,1,2.43-5.61,8.23,8.23,0,0,1,5.87-2.32h3.57V203.62h-14.8v-3.57h41.4v3.57h-6.4v28h2.36a2.32,2.32,0,0,1,1.43.5,1.58,1.58,0,0,1,.38,2.2,1.71,1.71,0,0,1-.38.38,2.32,2.32,0,0,1-1.43.5Zm-18.38-15.81h0a3.94,3.94,0,0,0-3,1.29,4.29,4.29,0,0,0-1.22,3.11,3.58,3.58,0,0,0,1.18,2.65,4.49,4.49,0,0,0,3,1.07,4.61,4.61,0,0,0,3-1.07,3.62,3.62,0,0,0,1.22-2.65v-4.4Zm20.59-15.62H455.36v12.23H468.3Z"/><path class="cls-4" d="M478.17,200.33v2.76h-6.58V231.9h2.75a2,2,0,0,1,1.18.39,1.15,1.15,0,0,1,.36,1.58,1.1,1.1,0,0,1-.36.35,1.8,1.8,0,0,1-1.18.4h-8.25a1.8,1.8,0,0,1-1.18-.4,1.17,1.17,0,0,1-.54-1,1.3,1.3,0,0,1,.36-1,1.38,1.38,0,0,1,1-.39h3.08V218.78H455v4.79a6.51,6.51,0,0,1-2.14,4.86,7.78,7.78,0,0,1-10.44,0,6.49,6.49,0,0,1-2.15-4.86,7.18,7.18,0,0,1,2.29-5.33,7.79,7.79,0,0,1,5.58-2.21h4.14V203H437.56v-2.75Zm-33.71,19.92h0a4.75,4.75,0,0,0-1.32,3.39,3.74,3.74,0,0,0,1.32,2.93,4.75,4.75,0,0,0,3.25,1.22,4.91,4.91,0,0,0,3.29-1.22,3.56,3.56,0,0,0,1.4-2.93v-4.79h-4.69A4.31,4.31,0,0,0,444.46,220.25Zm24.38-17.16H455.11v13h13.73Z"/><path class="cls-4" d="M468.7,203.12a5.61,5.61,0,0,1-2.86-.78,6.93,6.93,0,0,1-2.29-2.15l-6.19-9.62a3.17,3.17,0,0,0-1.28-1.1,3.72,3.72,0,0,0-1.79-.43h-3.11a1.61,1.61,0,0,1-1.22-.5,1.74,1.74,0,0,1-.53-1.25,1.72,1.72,0,0,1,1.68-1.76h3.18a6.48,6.48,0,0,1,3.15.86,7.69,7.69,0,0,1,2.64,2.4l5.83,8.93a11.66,11.66,0,0,0,1.57,1.65,2.42,2.42,0,0,0,1.22.57h1.71a1.76,1.76,0,0,1,1.75,1.75,1.28,1.28,0,0,1-.57,1,2,2,0,0,1-1.18.39Z"/><path class="cls-4" d="M454.29,185.93a6.11,6.11,0,0,1,3,.82,7.11,7.11,0,0,1,2.5,2.25l5.83,8.94a12.93,12.93,0,0,0,1.64,1.75,2.58,2.58,0,0,0,1.47.64h1.71a1.36,1.36,0,0,1,1.36,1.36h0a.87.87,0,0,1-.39.72,1.61,1.61,0,0,1-1,.32H468.7a5.48,5.48,0,0,1-2.65-.72,6.83,6.83,0,0,1-2.18-2l-6.29-9.62a3.78,3.78,0,0,0-1.47-1.25,4.41,4.41,0,0,0-2-.43H451a1.33,1.33,0,0,1-1-.43,1.36,1.36,0,0,1,0-1.92,1.34,1.34,0,0,1,1-.4Z"/><path class="cls-4" d="M489.5,230.9a8.25,8.25,0,0,1-6.36-2.93,10.4,10.4,0,0,1-2.61-7.15,11.21,11.21,0,0,1,2.5-7.15,7.75,7.75,0,0,1,6.15-3.08h14.87v3.58h-14.8a4.36,4.36,0,0,0-3.57,2,8,8,0,0,0-1.54,4.87,7.17,7.17,0,0,0,1.64,4.57,4.81,4.81,0,0,0,3.79,1.86,4.44,4.44,0,0,0,3.58-1.86,7.15,7.15,0,0,0,1.54-4.57,1.59,1.59,0,0,1,.64-1.29,2.41,2.41,0,0,1,1.46-.5,1.79,1.79,0,0,1,1.76,1.79,10.23,10.23,0,0,1-2.61,7.15,8.14,8.14,0,0,1-6.37,2.93Zm-12.44-30.85H503.3v3.57H477.06Z"/><path class="cls-4" d="M502.91,203.09H477.45v-2.76h25.46Zm-19.56,10.72h0a7.15,7.15,0,0,1,5.83-2.93h14.3v2.75h-14.3a4.8,4.8,0,0,0-3.9,2.15,8.11,8.11,0,0,0-1.61,5.07,7.16,7.16,0,0,0,1.72,4.83,5.29,5.29,0,0,0,4.11,2,4.81,4.81,0,0,0,3.9-2,7.53,7.53,0,0,0,1.61-4.83,1.16,1.16,0,0,1,.5-1,1.8,1.8,0,0,1,1.21-.43,1.33,1.33,0,0,1,1,.43,1.17,1.17,0,0,1,.39,1,9.9,9.9,0,0,1-2.5,6.8,8,8,0,0,1-12.12,0,9.9,9.9,0,0,1-2.5-6.8,10.74,10.74,0,0,1,2.39-7.15Z"/><path class="cls-4" d="M518.78,235.05a16.9,16.9,0,0,1-10.9-3.58,10.93,10.93,0,0,1-4.58-8.76,11.34,11.34,0,0,1,4.58-9.08,16.89,16.89,0,0,1,10.9-3.57h5a16.86,16.86,0,0,1,2.54.35v-6.79H500.08v-3.57h36.14v3.57H530v7.83a3,3,0,0,1-1,2.29,2.34,2.34,0,0,1-1.5.61h-.79a6.5,6.5,0,0,0-2.54-.54h-5.22a13.45,13.45,0,0,0-8.47,2.72,8,8,0,0,0-3.57,6.5,7.51,7.51,0,0,0,3.57,6.22,13.73,13.73,0,0,0,8.51,2.61,17.29,17.29,0,0,0,6.4-1.1,9.32,9.32,0,0,0,4.25-3.15A11.36,11.36,0,0,1,530.9,226a1.58,1.58,0,0,1,1.11-.61,3,3,0,0,1,1.39.35,1.25,1.25,0,0,1,.72,1.08c0,2-1.68,3.93-5.15,5.82a20.53,20.53,0,0,1-10,2.83Z"/><path class="cls-4" d="M535.65,200.33v2.76h-6.22v8.22a2.59,2.59,0,0,1-.86,2,1.77,1.77,0,0,1-1.89.39,6.89,6.89,0,0,0-2.65-.53h-5.25a13.57,13.57,0,0,0-8.72,2.82,8.3,8.3,0,0,0-3.58,6.79,8,8,0,0,0,3.58,6.55,14.32,14.32,0,0,0,8.72,2.71,17.62,17.62,0,0,0,6.58-1.18,9.49,9.49,0,0,0,4.39-3.29A10.57,10.57,0,0,1,531,226c.32-.32.57-.5.82-.5a2.14,2.14,0,0,1,1.18.32c.36.22.53.43.53.72,0,1.82-1.64,3.57-4.93,5.5a20.1,20.1,0,0,1-9.83,2.72,16.64,16.64,0,0,1-10.72-3.58,10.51,10.51,0,0,1-4.44-8.47,10.75,10.75,0,0,1,4.44-8.76,16.32,16.32,0,0,1,10.72-3.57h4.93a13,13,0,0,1,3,.5V203h-26.2v-2.75Z"/><path class="cls-4" d="M529.25,251h-.17a2.3,2.3,0,0,1-1.22-.64l-9.51-11.8-3.15,1.9a1.58,1.58,0,0,1-.89.32H514a1.57,1.57,0,0,1-1.07-.79,1.33,1.33,0,0,1,0-1.07,1.27,1.27,0,0,1,.6-.86l3.58-2h3.57l9.73,11.83a2.47,2.47,0,0,1,.82,1.57,1.3,1.3,0,0,1-.57,1.4,1.85,1.85,0,0,1-1,.28Z"/><path class="cls-4" d="M520.07,236.33,529.68,248a2.39,2.39,0,0,1,.72,1.36.94.94,0,0,1-.4,1,1.52,1.52,0,0,1-1,0,1.68,1.68,0,0,1-1-.54l-9.62-11.83-3.57,2.07a1.13,1.13,0,0,1-.93.25,1.19,1.19,0,0,1-.79-.61.89.89,0,0,1,0-.75,1,1,0,0,1,.46-.6l3.58-2.08Z"/><path class="cls-4" d="M564.82,235.05a2.42,2.42,0,0,1-1.46-.51,1.6,1.6,0,0,1-.32-2.25,1.62,1.62,0,0,1,.32-.32,2.39,2.39,0,0,1,1.46-.46h2.36V216.38a11.37,11.37,0,0,1-2.18.79,10.15,10.15,0,0,1-2.57.36,20.57,20.57,0,0,1-2.72,0,15.83,15.83,0,0,1-1.93-.43,7.69,7.69,0,0,1-3.57,2.9,15.64,15.64,0,0,1-6.08,1.14h-5.26c.68.71,1.33,1.54,2,2.39a45.54,45.54,0,0,1,2.57,3.87,9.07,9.07,0,0,0,2.86,3.14,6.71,6.71,0,0,0,3.57,1.14,6.24,6.24,0,0,0,1.94-.5,7,7,0,0,1,2.18-.53,1.18,1.18,0,0,1,1,.57,1.93,1.93,0,0,1,.4,1.18c0,.75-.65,1.39-1.93,2a8.56,8.56,0,0,1-3.58.85,10.15,10.15,0,0,1-5.43-1.64,13.35,13.35,0,0,1-4.19-4.4,43.42,43.42,0,0,0-3.75-5.57,8.35,8.35,0,0,0-2.9-2.51,4.26,4.26,0,0,1-1.35-.71,1.34,1.34,0,0,1-.61-1v-3.58a1.13,1.13,0,0,1,.57-1,2,2,0,0,1,2.4,0,1.25,1.25,0,0,1,.57,1,1.39,1.39,0,0,0,.71,1.11,3.61,3.61,0,0,0,2,.54h6.18a8.79,8.79,0,0,0,5.58-1.75,4.88,4.88,0,0,0,2.25-4,7.13,7.13,0,0,0-2.54-5.43,10.71,10.71,0,0,0-6.43-2.65H533.54v-3.57H577.3v3.57h-6.58v28h2.68a1.71,1.71,0,0,1,1.75,1.68.09.09,0,0,1,0,.07,1.6,1.6,0,0,1-.64,1.29,2.41,2.41,0,0,1-1.46.5ZM559.1,213.6h1.22a18.57,18.57,0,0,0,2.11,0,10.59,10.59,0,0,0,2.57-.33,10.09,10.09,0,0,0,2.18-.89v-8.76H554.85a11.38,11.38,0,0,1,3,3.11,9.58,9.58,0,0,1,1.54,5.08v.82a3,3,0,0,1-.21,1.25Z"/><path class="cls-4" d="M576.84,200.33v2.76h-6.58V231.9h3.07a1.36,1.36,0,0,1,1.36,1.36h0a1.18,1.18,0,0,1-.5,1,1.81,1.81,0,0,1-1.22.43h-8.15a1.8,1.8,0,0,1-1.21-.43,1.18,1.18,0,0,1-.29-1.64,1.33,1.33,0,0,1,.29-.29,2.1,2.1,0,0,1,1.21-.39h2.76V215.78a16,16,0,0,1-2.68,1,9.46,9.46,0,0,1-2.47.36,23.43,23.43,0,0,1-2.65,0,11.12,11.12,0,0,1-2.14-.51,7.14,7.14,0,0,1-3.58,3,14.88,14.88,0,0,1-5.93,1.11h-6.19a26.59,26.59,0,0,1,2.61,3,35.19,35.19,0,0,1,2.54,3.86,9.38,9.38,0,0,0,3,3.25,7.17,7.17,0,0,0,3.86,1.22,6,6,0,0,0,2-.54,7.11,7.11,0,0,1,2.08-.5,1,1,0,0,1,.71.39,1.55,1.55,0,0,1,.32,1c0,.57-.57,1.11-1.71,1.61a8.06,8.06,0,0,1-3.58.82,9.45,9.45,0,0,1-5.22-1.61,12.18,12.18,0,0,1-4-4.25,42,42,0,0,0-3.82-5.61,8,8,0,0,0-3-2.61,4.51,4.51,0,0,1-1.25-.65,1,1,0,0,1-.47-.71v-3.58a.85.85,0,0,1,.4-.71,1.52,1.52,0,0,1,1-.32,1.49,1.49,0,0,1,1,.32.83.83,0,0,1,.43.71,1.74,1.74,0,0,0,.89,1.43,3.83,3.83,0,0,0,2.18.61H548a9.35,9.35,0,0,0,5.82-1.82,5.31,5.31,0,0,0,2.4-4.33,7.63,7.63,0,0,0-2.65-5.72,10.69,10.69,0,0,0-6.61-2.86H533.9v-2.75Zm-19.42,6.47h0a8.73,8.73,0,0,1,1.51,4.87v.75a4.23,4.23,0,0,1-.29,1.64l1.64.22c.72,0,1.43,0,2.15,0a9.89,9.89,0,0,0,5.15-1.36V203H553.49a10.69,10.69,0,0,1,4,3.57Z"/><path class="cls-4" d="M647,200.83v4.51H636.32v47.47h5.11a2.19,2.19,0,0,1,1.58.68,2.15,2.15,0,0,1,.11,3l-.11.12a2.23,2.23,0,0,1-1.58.68h-14.3a2.26,2.26,0,0,1,0-4.51h4.51V241.52a25.65,25.65,0,0,1-8.48,6.64,22.51,22.51,0,0,1-10.18,2.4,17.43,17.43,0,0,1-13.16-5.93,20.54,20.54,0,0,1-5.47-14.3,17.05,17.05,0,0,1,5.65-12.8,19,19,0,0,1,13.55-5.29,25.48,25.48,0,0,1,8,1.68,15,15,0,0,1,6.11,3.57,2.79,2.79,0,0,1,.9,1.65,3,3,0,0,1-.36,1.75,1.56,1.56,0,0,1-1.46.68,3,3,0,0,1-1.93-.68,15.79,15.79,0,0,0-5.19-2.93,18.41,18.41,0,0,0-6.11-1,20,20,0,0,0-4.43.47,13.72,13.72,0,0,0-3.58,1.25l19.77,23.16a11.31,11.31,0,0,0,4.58-5.79,24.91,24.91,0,0,0,1.64-9.47V205.62H588.27v-4.5Zm-47.11,24.53h0a12.51,12.51,0,0,0-1,4.86A16.3,16.3,0,0,0,603,241.41,12.88,12.88,0,0,0,613,246a19.64,19.64,0,0,0,4.83-.57,15.39,15.39,0,0,0,4.22-1.68l-19.2-23.17A17.81,17.81,0,0,0,599.93,225.36Z"/><path class="cls-4" d="M641.18,258.21h-14.3a3.18,3.18,0,0,1-2.25-.93,3.11,3.11,0,0,1,0-4.4l0,0a3.18,3.18,0,0,1,2.25-.93h3.58V243.8a26.89,26.89,0,0,1-7.15,5.19,24.27,24.27,0,0,1-10.55,2.46,18.31,18.31,0,0,1-13.83-6.22,21.43,21.43,0,0,1-5.72-15,17.88,17.88,0,0,1,5.93-13.44,20,20,0,0,1,14.3-5.54,24.81,24.81,0,0,1,8.33,1.75,14.84,14.84,0,0,1,6.51,3.57,3,3,0,0,1,1.07,2.08,3.55,3.55,0,0,1-.43,2.28,2.42,2.42,0,0,1-2.25,1.15,4,4,0,0,1-2.47-.86,15.92,15.92,0,0,0-4.93-2.82,17.57,17.57,0,0,0-5.83-1,18.93,18.93,0,0,0-4.25.43,14.38,14.38,0,0,0-2.22.72l18.52,21.66a10.79,10.79,0,0,0,3.57-4.93,24.89,24.89,0,0,0,1.58-9.16v-20H587.38v-6.07H647.8v6.29H637.07V252h4.22a3.18,3.18,0,0,1,3.15,3.14,3.27,3.27,0,0,1-3.15,3.15Zm-14.3-4.5h0a1.17,1.17,0,0,0-1,.42,1.22,1.22,0,0,0-.15,1.72,1,1,0,0,0,.15.14,1.15,1.15,0,0,0,1,.43h14.3a1.22,1.22,0,0,0,.93-.39,1.29,1.29,0,0,0,.12-1.82l-.12-.11a1.22,1.22,0,0,0-.93-.39h-6V204.44H645.9v-2.71H589.17v2.71h43.29v21.81a26,26,0,0,1-1.72,9.83,12.07,12.07,0,0,1-4.93,6.19l-.64.39-21-24.74,1-.5a13.89,13.89,0,0,1,3.58-1.32,20.65,20.65,0,0,1,4.64-.47,20.14,20.14,0,0,1,6.4,1,17.47,17.47,0,0,1,5.51,3.11,2.26,2.26,0,0,0,1.32.47c.54,0,.68,0,.72-.29a2,2,0,0,0,.21-1.14,1.79,1.79,0,0,0-.61-1.08,13.12,13.12,0,0,0-5.82-3.21,23.35,23.35,0,0,0-7.73-1.65,18.31,18.31,0,0,0-12.76,5,16.06,16.06,0,0,0-5.36,12.16A19.56,19.56,0,0,0,600.57,244a16.51,16.51,0,0,0,12.51,5.65,22.42,22.42,0,0,0,9.76-2.29,25.32,25.32,0,0,0,8.19-6.44l1.57-1.86v14.59Zm-14.12-6.8h0A13.76,13.76,0,0,1,602,242a17.2,17.2,0,0,1-4.36-11.76,13.75,13.75,0,0,1,1.1-5.22,18.13,18.13,0,0,1,3.08-5l.68-.82L623.09,244l-.89.5a16.88,16.88,0,0,1-4.47,1.82,21.08,21.08,0,0,1-5,.57Zm-10.19-25h0a19.72,19.72,0,0,0-2.11,3.57,12,12,0,0,0-1,4.54,15.49,15.49,0,0,0,3.9,10.73,12.18,12.18,0,0,0,9.36,4.32,19.11,19.11,0,0,0,4.58-.53,15.22,15.22,0,0,0,3.07-1.11L602.54,222Z"/><path class="cls-4" d="M602.14,183.32a10.29,10.29,0,0,0-2.64-1.68,5.7,5.7,0,0,0-2.43-.57h-3.58a1.72,1.72,0,0,1-1.18-.51,1.81,1.81,0,0,1-.5-1.21,2.67,2.67,0,0,1,.5-1.57,1.44,1.44,0,0,1,1.18-.68h3.58a10.3,10.3,0,0,1,4.36,1,14.25,14.25,0,0,1,4.11,2.94L619.84,198a11.1,11.1,0,0,0,2.15,2.07,3.14,3.14,0,0,0,1.82.75h2.82a2,2,0,0,1,1.5.61,2.58,2.58,0,0,1,.75,1.65,1.14,1.14,0,0,1-.57,1.18,2.59,2.59,0,0,1-1.68.5h-2.29a8.24,8.24,0,0,1-3.82-1,11.29,11.29,0,0,1-3.58-2.94l-14.69-17.51Zm12-5.54h0a2.18,2.18,0,0,1,1.61-.68h2.72a8.73,8.73,0,0,1,4,.89,6.18,6.18,0,0,1,2.71,2.5l10.19,18.66a3.22,3.22,0,0,0,1.18,1.22,2.9,2.9,0,0,0,1.65.46h1.68a1.4,1.4,0,0,1,1.17.68,2.6,2.6,0,0,1,.54,1.58,1.63,1.63,0,0,1-.54,1.18,1.52,1.52,0,0,1-1.17.5h-3.4a3.55,3.55,0,0,1-2.25-1.08,10.47,10.47,0,0,1-2.26-2.86l-9.61-17.51a4.58,4.58,0,0,0-1.65-1.65,4.65,4.65,0,0,0-2.28-.6h-2.83a2.75,2.75,0,0,1-1.61-.51,1.5,1.5,0,0,1-.68-1.21,2.11,2.11,0,0,1,.68-1.57Zm33.46,3.57h0a5.11,5.11,0,0,1-3.57,8.72,5,5,0,0,1-3.58-1.46,5.22,5.22,0,0,1,0-7.15A5.1,5.1,0,0,1,644,180a5,5,0,0,1,3.57,1.47Z"/><path class="cls-4" d="M639.9,205.66h-3.4a4.4,4.4,0,0,1-2.83-1.29,11.09,11.09,0,0,1-2.46-3.11l-9.62-17.51a3.12,3.12,0,0,0-1.28-1.29,3.61,3.61,0,0,0-1.86-.5h-2.83a3.54,3.54,0,0,1-2.14-.72,2.3,2.3,0,0,1-1-1.89,3,3,0,0,1,1-2.22,3.07,3.07,0,0,1,2.21-.93h2.83a10,10,0,0,1,4.43,1,7.22,7.22,0,0,1,3.11,2.86l10.19,18.63a2.53,2.53,0,0,0,.82.93,2.46,2.46,0,0,0,1.21.32h1.69a2.3,2.3,0,0,1,1.89,1,3.61,3.61,0,0,1,.68,2.11,2.6,2.6,0,0,1-.75,1.82A2.5,2.5,0,0,1,639.9,205.66ZM615.62,178h0a1.29,1.29,0,0,0-1,.43,1.22,1.22,0,0,0-.43.93.61.61,0,0,0,.32.46,1.55,1.55,0,0,0,1.07.36h2.83a5.44,5.44,0,0,1,2.75.75,5.22,5.22,0,0,1,2,2l9.62,17.52a10.26,10.26,0,0,0,2,2.64,3,3,0,0,0,1.68.82h3.4a.91.91,0,0,0,.57-.21.88.88,0,0,0,.25-.57,1.77,1.77,0,0,0-.36-1c-.21-.32-.39-.32-.46-.32h-1.69a3.81,3.81,0,0,1-2.1-.61,4.13,4.13,0,0,1-1.51-1.54l-10.18-18.66a5.18,5.18,0,0,0-2.33-2.11,8.16,8.16,0,0,0-3.57-.82Zm10.73,27.67h-2.29a9.19,9.19,0,0,1-4.26-1.11,12.33,12.33,0,0,1-3.57-3.14l-14.69-17.52a12,12,0,0,0-2.33-1.47,5.25,5.25,0,0,0-2.07-.46h-3.57a2.48,2.48,0,0,1-1.79-.79,2.38,2.38,0,0,1-.79-1.82,3.61,3.61,0,0,1,.68-2.11,2.4,2.4,0,0,1,1.9-1h3.57a11.54,11.54,0,0,1,4.72,1.11,15.09,15.09,0,0,1,4.4,3.11l14.3,17a9.9,9.9,0,0,0,2,1.93,2.53,2.53,0,0,0,1.28.57h2.83a2.86,2.86,0,0,1,2.14.89,3.56,3.56,0,0,1,1,2.15,2,2,0,0,1-.93,2,3.51,3.51,0,0,1-2.21.68ZM593.57,178h0s-.22,0-.47.32a1.69,1.69,0,0,0-.32,1,.76.76,0,0,0,.25.57.64.64,0,0,0,.54.25h3.57a7.9,7.9,0,0,1,2.79.61,13.13,13.13,0,0,1,2.86,1.86l14.8,17.62a10.64,10.64,0,0,0,3.25,2.72,7.21,7.21,0,0,0,3.4.89h2.29a1.87,1.87,0,0,0,1.14-.32c.25,0,.21-.25.21-.32a1.76,1.76,0,0,0-.46-1.14,1.12,1.12,0,0,0-.89-.36H623.7a4,4,0,0,1-2.32-.93,11.15,11.15,0,0,1-2.33-2.22l-14.3-16.94a13.19,13.19,0,0,0-3.82-2.72,9.55,9.55,0,0,0-4-.93Zm50.26,13h0a5.94,5.94,0,1,1,4.25-1.72A5.75,5.75,0,0,1,643.83,191Zm0-10.15h0a4.13,4.13,0,1,0,3,1.21A4,4,0,0,0,643.83,180.82Z"/><path class="cls-4" d="M731.23,200.83v4.51H691V220.6a28.17,28.17,0,0,1,7.93-5.43,20.53,20.53,0,0,1,8.47-1.9,18.67,18.67,0,0,1,18.63,18.63,15.1,15.1,0,0,1-5.94,12,21.44,21.44,0,0,1-14.29,5,2.11,2.11,0,0,1-1.58-.68,2.14,2.14,0,0,1-.11-3,1.14,1.14,0,0,1,.11-.11,2.11,2.11,0,0,1,1.58-.68A17.87,17.87,0,0,0,717,240.76a10.7,10.7,0,0,0,4.65-8.82,14.09,14.09,0,0,0-13.87-14.3h-.43a17.5,17.5,0,0,0-10.72,3.57,13.71,13.71,0,0,0-5.61,8.94v22.59h4.54a2.1,2.1,0,0,1,1.57.68,2.14,2.14,0,0,1,.11,3l-.11.12a2.18,2.18,0,0,1-1.57.68H681.43a2.26,2.26,0,0,1,0-4.51h4.94V240.87a22.56,22.56,0,0,1-7.62,5.83,21.79,21.79,0,0,1-9.33,2.07,18.74,18.74,0,0,1-18.66-18.62,15.17,15.17,0,0,1,5.94-12,21.71,21.71,0,0,1,14.3-5,3.17,3.17,0,0,1,2,.68,2,2,0,0,1,.82,1.58A2,2,0,0,1,673,217a3.17,3.17,0,0,1-2,.68,17.81,17.81,0,0,0-11.19,3.57,10.7,10.7,0,0,0-4.61,8.83,14.08,14.08,0,0,0,13.86,14.3h.43a18.53,18.53,0,0,0,11.23-3.57,13.6,13.6,0,0,0,5.72-8.94V205.34H645.72v-4.51Z"/><path class="cls-4" d="M695.56,258.21H681.43a3,3,0,0,1-2.21-1,3.1,3.1,0,0,1,0-4.39l0,0a3.11,3.11,0,0,1,2.21-.93h4.19v-8.72a23.19,23.19,0,0,1-6.37,4.36,22.21,22.21,0,0,1-9.68,2.18,19.59,19.59,0,0,1-19.52-19.52,15.89,15.89,0,0,1,6.25-12.65,22.39,22.39,0,0,1,15-5.18,3.93,3.93,0,0,1,2.53.85,2.83,2.83,0,0,1,1.18,2.29,2.68,2.68,0,0,1-1.18,2.25,3.78,3.78,0,0,1-2.53.9,16.66,16.66,0,0,0-10.73,3.57,9.88,9.88,0,0,0-4.29,8.12,13.19,13.19,0,0,0,13.16,13.22h.07a17.8,17.8,0,0,0,10.72-3.32,12.59,12.59,0,0,0,5.33-8.37V206.34H644.83v-6.29h87.3v6.29H691.91v12.37a28.85,28.85,0,0,1,6.65-4.26,21.67,21.67,0,0,1,8.86-2A19.52,19.52,0,0,1,726.94,232h0a16,16,0,0,1-6.25,12.65,22.57,22.57,0,0,1-15,5.19,3.22,3.22,0,0,1-2.25-.93,3.15,3.15,0,0,1-.93-2.22,3,3,0,0,1,.93-2.22,3.22,3.22,0,0,1,2.25-.93A16.81,16.81,0,0,0,716.47,240a9.88,9.88,0,0,0,4.29-8.12,13.19,13.19,0,0,0-13.16-13.22h-.07A16.58,16.58,0,0,0,697.27,222a12.89,12.89,0,0,0-5.25,8.37v21.45h3.57a3.15,3.15,0,0,1,0,6.29Zm-14.13-4.54h0a1.22,1.22,0,0,0-1,.43,1.17,1.17,0,0,0-.39.93,1.35,1.35,0,0,0,1.35,1.36h14.13a1.19,1.19,0,0,0,.92-.4,1.22,1.22,0,0,0,.43-1,1.4,1.4,0,0,0-1.35-1.36h-5.44V230.18a14.77,14.77,0,0,1,6-9.65A18.52,18.52,0,0,1,707.42,217a15,15,0,0,1,15,15,11.65,11.65,0,0,1-5,9.51,18.34,18.34,0,0,1-11.69,3.82,1.4,1.4,0,0,0-1,.4,1.38,1.38,0,0,0-.39,1,1.33,1.33,0,0,0,.43,1,1.25,1.25,0,0,0,1,.39,20.87,20.87,0,0,0,13.8-4.75,14.28,14.28,0,0,0,5.61-11.3,17.87,17.87,0,0,0-17.87-17.87,19.91,19.91,0,0,0-8.11,1.82,26.66,26.66,0,0,0-7.65,5.25L690,222.64V204.37h40.25v-2.71H646.62v2.71H687.4v27.46a14.29,14.29,0,0,1-6.07,9.65,19.55,19.55,0,0,1-11.76,3.57,15,15,0,0,1-15-15,11.8,11.8,0,0,1,5-9.54,18.64,18.64,0,0,1,11.73-3.79,2.2,2.2,0,0,0,1.43-.47c.46-.39.53-.68.53-.89a1.13,1.13,0,0,0-.53-.9,2.19,2.19,0,0,0-1.43-.46,20.87,20.87,0,0,0-13.84,4.75A14.32,14.32,0,0,0,651.8,230,16.9,16.9,0,0,0,657,242.55a17.16,17.16,0,0,0,12.55,5.22,20.88,20.88,0,0,0,8.93-2,21.4,21.4,0,0,0,7.15-5.58l1.58-1.86v15.34Z"/></svg>