<?xml version="1.0" encoding="utf-8"?>
<!-- Generator: Adobe Illustrator 24.1.1, SVG Export Plug-In . SVG Version: 6.00 Build 0)  -->
<svg version="1.1" id="Layer_1" xmlns="http://www.w3.org/2000/svg" xmlns:xlink="http://www.w3.org/1999/xlink" x="0px" y="0px"
	 viewBox="0 0 300 300" style="enable-background:new 0 0 300 300;" xml:space="preserve">
<style type="text/css">
	.st0{fill:#B5B5B5;}
	.st1{stroke:#B5B5B5;stroke-width:1.4624;stroke-linecap:round;stroke-miterlimit:10;}
	.st2{fill:none;}
	.st3{fill:#4A4A4A;}
	.st4{fill:#FFFFFF;stroke:#4A4A4A;stroke-width:1.4624;stroke-linecap:round;stroke-miterlimit:10;}
	.st5{fill:#FFFFFF;}
	.st6{fill:#DE2729;}
	.st7{fill:#FFFFFF;stroke:#DE2729;stroke-width:1.4624;stroke-linecap:round;stroke-miterlimit:10;}
</style>
<g>
	<g>
		<rect x="14.11" y="6.62" class="st0" width="271.78" height="286.77"/>
		<g>
			<path class="st1" d="M64.53,132.11c0,0-0.03,0.56-0.03,0.56c1.05-1.16,3.4-1.52,4.88-1.67c3.27-0.33,6.97,1.36,7.99,4.69
				c0.02,0.08,0.05,0.16,0.07,0.24c0.33,1.28,0.49,3.41,0.49,6.39v23.91H67.54V142.6c0-2.35-0.08-3.78-0.23-4.29
				c-0.15-0.51-0.58-0.77-1.29-0.77c-0.74,0-1.2,0.3-1.39,0.89c-0.19,0.59-0.28,2.17-0.28,4.74v23.06H53.97v-34.11H64.53z"/>
			<path class="st1" d="M90.62,145.32h-9.74v-2.29c0-2.64,0.3-4.67,0.91-6.11c0.61-1.43,1.83-2.69,3.66-3.79
				c1.83-1.1,4.22-1.65,7.15-1.65c3.51,0,6.16,0.62,7.94,1.86c1.78,1.24,2.85,2.77,3.21,4.58c0.36,1.81,0.54,5.53,0.54,11.17v17.12
				h-10.1c0,0,0-0.34,0-0.34c-1.28,1.02-2.89,1.36-4.39,1.25c-2.11-0.16-3.77-0.36-5.71-1.29c-2.79-1.34-3.21-4.43-3.21-7.23v-2.8
				c0-2.55,0.4-4.29,1.21-5.22c0.81-0.93,2.8-2.01,5.99-3.24c3.41-1.34,5.24-2.24,5.48-2.7c0.24-0.46,0.36-1.41,0.36-2.83
				c0-1.78-0.13-2.94-0.4-3.48c-0.27-0.54-0.71-0.81-1.32-0.81c-0.7,0-1.14,0.23-1.31,0.68s-0.26,1.63-0.26,3.53V145.32z M93.91,150
				c-1.66,1.22-2.63,2.24-2.89,3.06s-0.4,2.01-0.4,3.55c0,1.77,0.12,2.9,0.35,3.42c0.23,0.51,0.69,0.77,1.38,0.77
				c0.65,0,1.08-0.2,1.27-0.6c0.2-0.4,0.3-1.46,0.3-3.17V150z"/>
			<path class="st1" d="M118.66,123.14v9.79h2.8v5.4h-2.8v18.25c0,2.24,0.12,3.5,0.35,3.75c0.23,0.26,1.2,0.39,2.89,0.39v5.5h-4.19
				c-2.36,0-4.05-0.1-5.06-0.3c-1.01-0.2-1.9-0.65-2.67-1.36s-1.25-1.53-1.44-2.44s-0.28-3.07-0.28-6.46v-17.33h-2.24v-5.4h2.24
				v-9.79H118.66z"/>
			<path class="st1" d="M134.28,123.14v6.89h-10.69v-6.89H134.28z M134.28,132.11v34.11h-10.69v-34.11H134.28z"/>
			<path class="st1" d="M161.35,144.09v8.35c0,3.07-0.15,5.32-0.46,6.75c-0.31,1.43-0.97,2.77-1.98,4.01s-2.31,2.16-3.89,2.75
				c-1.59,0.59-3.41,0.89-5.46,0.89c-2.3,0-4.24-0.25-5.84-0.76c-1.59-0.51-2.83-1.27-3.71-2.29c-0.88-1.02-1.51-2.25-1.89-3.7
				c-0.38-1.45-0.57-3.62-0.57-6.52v-8.74c0-3.17,0.34-5.65,1.03-7.43c0.69-1.78,1.92-3.21,3.7-4.29c1.78-1.08,4.06-1.62,6.84-1.62
				c2.33,0,4.33,0.35,6,1.04s2.96,1.6,3.87,2.71s1.53,2.26,1.87,3.44C161.18,139.87,161.35,141.67,161.35,144.09z M150.96,141.52
				c0-1.75-0.09-2.85-0.28-3.3s-0.59-0.68-1.21-0.68s-1.03,0.23-1.23,0.68s-0.31,1.56-0.31,3.3v15.4c0,1.61,0.1,2.66,0.31,3.15
				s0.61,0.73,1.21,0.73c0.62,0,1.03-0.22,1.22-0.67c0.2-0.45,0.29-1.41,0.29-2.88V141.52z"/>
			<path class="st1" d="M175.18,132.11c0,0,0.01,0.38,0.01,0.38c1.65-1.13,2.31-1.04,3.75-1.11c2.16-0.1,4.49,0.14,6.4,1.21
				c3.22,1.81,3.18,5.44,3.23,8.67c0,0.35,0.01,0.69,0.01,1.04v23.91h-10.39V142.6c0-2.35-0.08-3.78-0.23-4.29
				c-0.15-0.51-0.58-0.77-1.29-0.77c-0.74,0-1.2,0.3-1.39,0.89c-0.19,0.59-0.28,2.17-0.28,4.74v23.06h-10.39v-34.11H175.18z"/>
			<path class="st1" d="M201.26,145.32h-9.74v-2.29c0-2.64,0.31-4.67,0.91-6.11c0.61-1.43,1.83-2.69,3.66-3.79
				c1.83-1.1,4.22-1.65,7.15-1.65c3.51,0,6.16,0.62,7.94,1.86c1.78,1.24,2.85,2.77,3.21,4.58s0.54,5.53,0.54,11.17v17.12h-10.1
				c0,0,0-0.32,0-0.32c-1.33,1.06-3.06,1.05-4.65,1c-2.06-0.06-4.38-0.31-6.15-1.44c-2.24-1.44-2.52-4.41-2.52-6.85c0,0,0-2.8,0-2.8
				c0-2.55,0.4-4.29,1.21-5.22c0.81-0.93,2.8-2.01,5.99-3.24c3.41-1.34,5.24-2.24,5.48-2.7c0.24-0.46,0.36-1.41,0.36-2.83
				c0-1.78-0.13-2.94-0.4-3.48c-0.27-0.54-0.71-0.81-1.33-0.81c-0.7,0-1.14,0.23-1.31,0.68s-0.26,1.63-0.26,3.53V145.32z
				 M204.55,150c-1.66,1.22-2.62,2.24-2.89,3.06s-0.4,2.01-0.4,3.55c0,1.77,0.12,2.9,0.35,3.42c0.23,0.51,0.69,0.77,1.37,0.77
				c0.65,0,1.08-0.2,1.27-0.6c0.2-0.4,0.29-1.46,0.29-3.17V150z"/>
			<path class="st1" d="M229.05,124.6v41.62h-10.69V124.6H229.05z"/>
		</g>
		<g>
			<path class="st1" d="M64.53,181.24c0,0,0.01,0.93,0.01,0.93c1.13-0.77,1.98-1.04,2.95-1.23c3.8-0.75,7.99-0.03,9.83,3.82
				c0.08,0.17,0.16,0.35,0.21,0.54c0.29,1.13,0.35,2.67,0.35,5.38v14.37c0,3.1-0.19,5.31-0.55,6.62c-1.16,4.16-6.73,5.16-10.33,4.52
				c-1.12-0.2-1.32-0.22-2.64-0.61v7.89H53.97v-42.23H64.53z M67.49,191.16c0-2.11-0.08-3.38-0.23-3.83s-0.58-0.67-1.28-0.67
				c-0.69,0-1.13,0.26-1.32,0.77c-0.2,0.51-0.3,1.76-0.3,3.73v14.14c0,2.06,0.1,3.34,0.31,3.86c0.21,0.51,0.65,0.77,1.34,0.77
				c0.67,0,1.08-0.24,1.25-0.71c0.16-0.47,0.25-1.62,0.25-3.43V191.16z"/>
			<path class="st1" d="M104.29,198.9H90.84v7.38c0,1.54,0.11,2.54,0.33,2.98c0.22,0.45,0.65,0.67,1.29,0.67
				c0.79,0,1.31-0.3,1.58-0.89s0.4-1.74,0.4-3.43v-4.5h9.85v2.52c0,2.11-0.13,3.73-0.4,4.86c-0.27,1.13-0.89,2.34-1.87,3.62
				c-0.98,1.29-2.22,2.25-3.72,2.89c-1.5,0.64-3.38,0.96-5.64,0.96c-2.19,0-4.13-0.32-5.81-0.95c-1.68-0.63-2.99-1.5-3.92-2.61
				c-0.93-1.11-1.58-2.32-1.94-3.65s-0.54-3.26-0.54-5.8v-9.95c0-2.98,0.4-5.33,1.21-7.06s2.12-3.04,3.96-3.96s3.94-1.38,6.32-1.38
				c2.91,0,5.32,0.55,7.21,1.66c1.89,1.11,3.22,2.57,3.98,4.4c0.76,1.83,1.15,4.39,1.15,7.7V198.9z M93.88,193.34v-2.49
				c0-1.77-0.09-2.9-0.28-3.42c-0.19-0.51-0.57-0.77-1.16-0.77c-0.72,0-1.17,0.22-1.34,0.66c-0.17,0.44-0.26,1.62-0.26,3.53v2.49
				H93.88z"/>
			<path class="st1" d="M117.72,181.24l-0.01,0.89c1.44-0.77,2.42-1.1,3.84-1.28c3.28-0.41,7.97,0.65,9.02,4.78
				c0.33,1.28,0.53,2.84,0.53,5.82v23.91h-10.39v-23.62c0-2.35-0.08-3.78-0.23-4.29c-0.15-0.51-0.58-0.77-1.29-0.77
				c-0.74,0-1.2,0.3-1.39,0.89c-0.19,0.59-0.28,2.17-0.28,4.74v23.06h-10.39v-34.11H117.72z"/>
			<path class="st1" d="M155.37,192.14h-9.2v-1.85c0-1.58-0.09-2.57-0.27-2.99c-0.18-0.42-0.63-0.63-1.35-0.63
				c-0.58,0-1.02,0.19-1.31,0.58c-0.29,0.39-0.44,0.96-0.44,1.74c0,1.05,0.07,1.81,0.22,2.3c0.15,0.49,0.58,1.02,1.31,1.61
				c0.73,0.58,2.22,1.43,4.48,2.54c3.02,1.47,5,2.86,5.94,4.16c0.94,1.3,1.41,3.2,1.41,5.68c0,2.78-0.36,4.87-1.08,6.28
				s-1.93,2.5-3.61,3.26c-1.69,0.76-3.72,1.14-6.11,1.14c-2.64,0-4.9-0.41-6.77-1.23c-1.87-0.82-3.16-1.94-3.87-3.34
				c-0.7-1.41-1.05-3.53-1.05-6.37v-1.65h9.2v2.16c0,1.83,0.12,3.02,0.35,3.57c0.23,0.55,0.69,0.82,1.38,0.82
				c0.74,0,1.25-0.18,1.54-0.55c0.29-0.37,0.44-1.14,0.44-2.33c0-1.63-0.19-2.65-0.57-3.06c-0.39-0.41-2.41-1.63-6.04-3.65
				c-3.05-1.71-4.91-3.27-5.58-4.67c-0.67-1.4-1-3.05-1-4.97c0-2.72,0.36-4.73,1.08-6.03c0.72-1.29,1.94-2.29,3.66-2.99
				c1.73-0.7,3.72-1.05,6-1.05c2.26,0,4.18,0.29,5.77,0.86c1.59,0.57,2.8,1.33,3.65,2.27c0.85,0.94,1.37,1.82,1.54,2.62
				c0.18,0.81,0.27,2.07,0.27,3.78V192.14z"/>
			<path class="st1" d="M169.1,171.2v7.96h-10.69v-7.96H169.1z M169.1,181.24v34.11h-10.69v-34.11H169.1z"/>
			<path class="st1" d="M195.8,193.22v8.35c0,3.07-0.15,5.32-0.46,6.75c-0.31,1.43-0.97,2.77-1.98,4.01s-2.31,2.16-3.89,2.75
				c-1.59,0.59-3.41,0.89-5.46,0.89c-2.3,0-4.24-0.25-5.84-0.76s-2.83-1.27-3.71-2.29c-0.89-1.02-1.51-2.25-1.89-3.7
				S172,205.6,172,202.7v-8.74c0-3.17,0.34-5.65,1.03-7.43c0.69-1.78,1.92-3.21,3.7-4.29c1.78-1.08,4.06-1.62,6.84-1.62
				c2.33,0,4.33,0.35,6,1.04c1.67,0.69,2.96,1.6,3.87,2.71c0.91,1.11,1.53,2.26,1.86,3.44C195.63,189,195.8,190.8,195.8,193.22z
				 M185.42,190.64c0-1.75-0.09-2.85-0.28-3.3s-0.59-0.68-1.21-0.68s-1.03,0.23-1.23,0.68s-0.31,1.56-0.31,3.3v15.4
				c0,1.61,0.1,2.66,0.31,3.15s0.61,0.73,1.21,0.73c0.62,0,1.02-0.22,1.22-0.67c0.2-0.45,0.3-1.41,0.3-2.88V190.64z"/>
			<path class="st1" d="M209.26,181.24c0,0,0,1,0,1c0.92-0.93,2.12-1.26,3.38-1.45c1.7-0.25,3.42-0.08,5.07,0.4
				c1.29,0.38,2.58,0.99,3.48,2.01c0.47,0.53,0.81,1.17,0.98,1.85c0.33,1.28,0.49,3.41,0.49,6.39v23.91h-10.39v-23.62
				c0-2.35-0.08-3.78-0.23-4.29c-0.15-0.51-0.58-0.77-1.29-0.77c-0.74,0-1.2,0.3-1.39,0.89c-0.19,0.59-0.28,2.17-0.28,4.74v23.06
				h-10.38v-34.11H209.26z"/>
		</g>
		<g>
			<path class="st1" d="M75.17,239.97h-9.2v-1.85c0-1.58-0.09-2.57-0.27-2.99c-0.18-0.42-0.63-0.63-1.35-0.63
				c-0.58,0-1.02,0.19-1.31,0.58c-0.29,0.39-0.44,0.96-0.44,1.74c0,1.05,0.07,1.81,0.22,2.3s0.58,1.02,1.31,1.61
				c0.73,0.58,2.22,1.43,4.49,2.54c3.02,1.47,5,2.86,5.94,4.16c0.94,1.3,1.41,3.2,1.41,5.68c0,2.78-0.36,4.87-1.08,6.28
				c-0.72,1.41-1.92,2.5-3.61,3.26c-1.69,0.76-3.72,1.14-6.11,1.14c-2.64,0-4.9-0.41-6.77-1.23s-3.17-1.94-3.87-3.34
				c-0.7-1.41-1.05-3.53-1.05-6.37v-1.65h9.2v2.16c0,1.83,0.12,3.02,0.35,3.57c0.23,0.55,0.69,0.82,1.38,0.82
				c0.74,0,1.25-0.18,1.54-0.55s0.44-1.14,0.44-2.33c0-1.63-0.19-2.65-0.57-3.06c-0.39-0.41-2.41-1.63-6.04-3.65
				c-3.05-1.71-4.91-3.27-5.58-4.67c-0.67-1.4-1-3.05-1-4.97c0-2.72,0.36-4.73,1.08-6.03s1.94-2.29,3.66-2.99
				c1.72-0.7,3.72-1.05,6-1.05c2.26,0,4.19,0.29,5.77,0.86c1.59,0.57,2.8,1.33,3.65,2.27c0.85,0.94,1.36,1.82,1.54,2.62
				c0.18,0.81,0.27,2.07,0.27,3.78V239.97z"/>
			<path class="st1" d="M99.59,229.07l-2.96,24.68c-0.47,3.91-0.86,6.57-1.18,7.99c-0.55,2.51-1.66,4.9-3.29,6.9
				c-0.79,0.97-1.74,1.99-2.81,2.66c-1.06,0.66-2.42,0.94-3.64,1.09c0,0-7.68,0-7.68,0c0-2.65,0-5.3-0.01-7.94
				c0,0.2,2.36-0.07,2.55-0.11c0.62-0.15,1.23-0.45,1.63-0.95c1.29-1.62-0.08-3.85-0.56-5.5c-0.39-1.32-0.73-2.66-1-4.01
				c-0.68-3.44-1.37-6.87-2.05-10.31c-0.69-3.48-1.39-6.96-2.08-10.44c-0.27-1.35-0.54-2.7-0.81-4.06h9.43l3.41,23.03l1.66-23.03
				H99.59z"/>
			<path class="st1" d="M121.76,239.97h-9.2v-1.85c0-1.58-0.09-2.57-0.27-2.99c-0.18-0.42-0.63-0.63-1.35-0.63
				c-0.58,0-1.02,0.19-1.31,0.58c-0.29,0.39-0.44,0.96-0.44,1.74c0,1.05,0.07,1.81,0.22,2.3c0.15,0.49,0.58,1.02,1.31,1.61
				c0.73,0.58,2.22,1.43,4.48,2.54c3.02,1.47,5,2.86,5.94,4.16s1.41,3.2,1.41,5.68c0,2.78-0.36,4.87-1.08,6.28
				c-0.72,1.41-1.93,2.5-3.61,3.26c-1.69,0.76-3.72,1.14-6.11,1.14c-2.64,0-4.9-0.41-6.77-1.23c-1.87-0.82-3.16-1.94-3.87-3.34
				s-1.05-3.53-1.05-6.37v-1.65h9.2v2.16c0,1.83,0.12,3.02,0.35,3.57c0.23,0.55,0.69,0.82,1.38,0.82c0.74,0,1.25-0.18,1.54-0.55
				s0.44-1.14,0.44-2.33c0-1.63-0.19-2.65-0.57-3.06c-0.39-0.41-2.41-1.63-6.04-3.65c-3.05-1.71-4.91-3.27-5.58-4.67
				c-0.67-1.4-1-3.05-1-4.97c0-2.72,0.36-4.73,1.08-6.03c0.72-1.29,1.94-2.29,3.66-2.99c1.73-0.7,3.72-1.05,6-1.05
				c2.26,0,4.18,0.29,5.77,0.86c1.59,0.57,2.8,1.33,3.65,2.27c0.85,0.94,1.37,1.82,1.54,2.62c0.18,0.81,0.27,2.07,0.27,3.78V239.97z
				"/>
			<path class="st1" d="M135.39,220.25v9.65h2.8v5.4h-2.8v18.25c0,2.24,0.11,3.5,0.35,3.75c0.23,0.26,1.19,0.39,2.89,0.39v5.5h-4.19
				c-2.36,0-4.05-0.1-5.06-0.3c-1.01-0.2-1.9-0.65-2.67-1.36c-0.77-0.71-1.25-1.53-1.44-2.44c-0.19-0.92-0.28-3.07-0.28-6.46v-17.33
				h-2.24v-5.4h2.24v-9.65H135.39z"/>
			<path class="st1" d="M163.11,246.73h-13.44v7.38c0,1.54,0.11,2.54,0.33,2.98s0.65,0.67,1.29,0.67c0.79,0,1.31-0.3,1.58-0.89
				s0.4-1.74,0.4-3.43v-4.5h9.85v2.52c0,2.11-0.13,3.73-0.4,4.86c-0.27,1.13-0.89,2.34-1.87,3.62s-2.22,2.25-3.72,2.89
				c-1.5,0.64-3.38,0.96-5.64,0.96c-2.19,0-4.13-0.32-5.81-0.95c-1.68-0.63-2.99-1.5-3.92-2.61c-0.93-1.11-1.58-2.32-1.94-3.65
				c-0.36-1.33-0.54-3.26-0.54-5.8v-9.95c0-2.98,0.4-5.33,1.21-7.06c0.81-1.72,2.12-3.04,3.96-3.96c1.83-0.92,3.94-1.38,6.32-1.38
				c2.91,0,5.32,0.55,7.21,1.66c1.89,1.11,3.22,2.57,3.98,4.4s1.15,4.39,1.15,7.7V246.73z M152.7,241.18v-2.49
				c0-1.77-0.09-2.9-0.28-3.42c-0.19-0.51-0.57-0.77-1.16-0.77c-0.72,0-1.17,0.22-1.34,0.66s-0.26,1.62-0.26,3.53v2.49H152.7z"/>
			<path class="st1" d="M175.6,229.07c0,0,0.05,1.34,0.05,1.34c0.95-0.79,2.06-1.36,3.29-1.55c3.3-0.52,6.69-0.2,9.27,2.26
				c2.17-2,4.44-1.97,7.04-1.81c2.82,0.17,5.92,2.13,6.58,4.5c0.34,1.24,0.59,2.7,0.59,5.49l0.21,23.89h-10.08v-22.24
				c0-2.91-0.1-4.72-0.3-5.41c-0.2-0.69-0.65-1.04-1.37-1.04c-0.74,0-1.21,0.34-1.43,1.03c-0.22,0.69-0.32,2.49-0.32,5.42v22.24
				h-10.08v-21.67c0-3.34-0.08-5.35-0.24-6.02c-0.17-0.67-0.61-1-1.35-1c-0.46,0-0.86,0.18-1.18,0.53
				c-0.33,0.35-0.51,0.78-0.54,1.29c-0.03,0.51-0.05,1.58-0.05,3.23v23.65H165.6v-34.11H175.6z"/>
		</g>
		<g>
			<path d="M104.61,33.98c-4.05-3.15-8.29-4.7-11.74-5.53c-3.47-0.82-6.21-0.92-7.58-0.92c-0.45,0-0.75,0.01-0.89,0.02l0,0.02
				c-6.88,0.06-12.84,1.76-17.48,4.68c-3.56,2.22-6.28,5.06-8.25,7.95c-2.96,4.34-4.33,8.73-5.06,12.15
				c-0.71,3.43-0.76,5.95-0.76,6.76l0,0.06h0v26.42c0,4.85,3.93,8.77,8.77,8.77s8.77-3.93,8.77-8.77V59.16l0-0.06h0l0-0.16
				c0.01-0.45,0.1-1.76,0.46-3.33c0.26-1.18,0.68-2.49,1.26-3.71c0.89-1.85,2.07-3.41,3.82-4.59c1.77-1.16,4.31-2.2,8.91-2.22
				l0.35-0.01v0l0.09,0c0.33,0,1.53,0.03,2.98,0.33c1.08,0.22,2.3,0.58,3.43,1.11c1.71,0.82,3.15,1.9,4.33,3.72
				c1.16,1.83,2.25,4.64,2.27,9.68v24.92c0,4.85,3.93,8.77,8.77,8.77s8.77-3.93,8.77-8.77V59.91c0.01-6.86-1.44-12.74-4.05-17.48
				C109.85,38.89,107.3,36.07,104.61,33.98z"/>
			<path d="M154.43,26.88c-8.81,0-16.87,3.6-22.63,9.37c-5.78,5.76-9.38,13.82-9.38,22.63c0,0.46,0.05,0.91,0.07,1.37
				c-0.02,0.23-0.07,0.45-0.07,0.69v47.22c0,4.85,3.93,8.77,8.77,8.77c4.85,0,8.77-3.93,8.77-8.77V87.4
				c4.35,2.21,9.27,3.48,14.46,3.48c8.81,0,16.87-3.6,22.63-9.37c5.78-5.76,9.38-13.82,9.37-22.63c0-8.81-3.6-16.87-9.37-22.63
				C171.3,30.47,163.24,26.87,154.43,26.88z M164.65,69.1c-2.64,2.63-6.2,4.23-10.22,4.23c-4.02,0-7.58-1.6-10.22-4.23
				c-2.63-2.64-4.23-6.2-4.23-10.22c0-4.02,1.6-7.58,4.23-10.22c2.64-2.63,6.2-4.23,10.22-4.23c4.02,0,7.58,1.6,10.22,4.23
				c2.63,2.64,4.23,6.2,4.23,10.22C168.88,62.9,167.28,66.46,164.65,69.1z"/>
			<path d="M240.8,59.06L240.8,59.06c-1.27-1.88-2.84-3.49-4.55-4.74c-2.57-1.89-5.36-2.94-7.91-3.5c-2.57-0.57-4.96-0.7-7.11-0.7
				c-0.99,0-1.93,0.03-2.82,0.07c-1.39,0.06-2.65,0.13-3.72,0.12c-2.09,0.01-3.36-0.26-3.95-0.55c-0.32-0.15-0.71-0.43-1.01-0.79
				c-0.31-0.36-0.52-0.78-0.62-1.12l0,0c-0.08-0.28-0.11-0.52-0.11-0.76c0.03-0.91,0.4-1.6,1.3-2.1c0.45-0.24,1.08-0.45,2-0.6
				c0.91-0.15,2.09-0.22,3.46-0.22c1.14,0,2.41,0.05,3.79,0.09c4.92,0.14,10.04,0.17,14.86,0.17c4.85,0,8.77-3.93,8.77-8.77
				c0-4.85-3.93-8.77-8.77-8.77c-4.75,0-9.72-0.03-14.36-0.16c-1.26-0.03-2.71-0.09-4.29-0.09c-1.9,0-4.02,0.08-6.31,0.45
				c-2.28,0.38-4.77,1.06-7.23,2.34c-6.71,3.45-10.8,10.39-10.77,17.67c0,1.85,0.26,3.72,0.78,5.55c0.83,2.91,2.27,5.52,4.16,7.73
				c1.89,2.21,4.24,4.04,6.99,5.32c4.16,1.9,8.12,2.16,11.32,2.17c1.68,0,3.19-0.08,4.52-0.14c0.71-0.03,1.39-0.05,2.02-0.05
				c1.84-0.01,3.26,0.2,3.95,0.46c0.36,0.13,0.55,0.24,0.69,0.34l0.41,0.44c0.22,0.3,0.42,0.9,0.41,1.44c0,0.3-0.05,0.57-0.12,0.77
				c-0.23,0.59-0.36,0.73-0.63,1c-0.38,0.36-1.45,0.96-3.36,1.35c-1.87,0.39-4.38,0.55-7,0.54c-2.02,0-4.09-0.08-6.14-0.11
				c-1.04-0.01-2.06-0.02-3.06-0.02c-2.01,0-3.97,0.02-5.88,0.02c-4.85,0-8.77,3.93-8.77,8.77c0,4.85,3.93,8.77,8.77,8.77
				c2.02,0,3.98-0.02,5.88-0.02c0.95,0,1.9,0,2.83,0.02c1.72,0.02,3.93,0.11,6.37,0.11c4.24-0.03,9.2-0.19,14.37-1.95
				c2.58-0.89,5.25-2.25,7.64-4.37c2.39-2.1,4.38-4.99,5.52-8.27l0,0c0.76-2.17,1.12-4.4,1.12-6.6
				C244.22,66.4,243.11,62.48,240.8,59.06z"/>
			<polygon points="195.14,52.64 195.14,52.64 195.14,52.64 			"/>
		</g>
	</g>
	<rect class="st2" width="300" height="300"/>
</g>
</svg>
