<svg id="Layer_1" data-name="Layer 1" xmlns="http://www.w3.org/2000/svg" viewBox="0 0 613.5 300"><defs><style>.cls-1{fill:#575756;}.cls-2{fill:#1d1d1b;}</style></defs><title>PMKVY</title><g id="Group_21652" data-name="Group 21652"><path id="Path_26826" data-name="Path 26826" class="cls-1" d="M24,267.42v30.43H20.07v-9.11l-.6.55h-.36l-1,.5a8.51,8.51,0,0,1-3.85.8,8.4,8.4,0,0,1-7.95-5l-.7-1.9L5,280.83V267.57H0v-3.25H29.42v3.25Zm-3.95,0H8.61v15l.4,1.25a4.37,4.37,0,0,0,1.81,2.25,5.32,5.32,0,0,0,3,.85,7.69,7.69,0,0,0,4.21-1.41l1-.36.9-1V267.42Z"/><path id="Path_26827" data-name="Path 26827" class="cls-1" d="M20.32,291,7.61,300,4,297.7l16.41-10.12-.05,3.4Z"/><path id="Path_26828" data-name="Path 26828" class="cls-1" d="M51.14,290a3.7,3.7,0,0,1-1.4,1.08L47,292.16l-1.15.36-1.5.3H39.88a3.82,3.82,0,0,1-1.7-.36l-1.6-.55-1.45-.9a6.39,6.39,0,0,1-3.05-6,6.26,6.26,0,0,1,1.85-5l.7-.55,1-.65h1.45l-2-.6-1.65-1a7,7,0,0,1-2.2-5.36,7.7,7.7,0,0,1,.5-2.8,7.52,7.52,0,0,1,3.3-4,7.25,7.25,0,0,1,3.11-.7h2.09a3,3,0,0,1,1.15.45l1.36,1,.8,1,.7,1.15v2.4a2.32,2.32,0,0,1-.3,1.09l-.4,1-.4.9L41.13,272l.36-.85.25-.8v-.95l-.25-.55v-.41l-.7-.6h-.9a3.57,3.57,0,0,0-4,2.51l-.3,2.16a4.17,4.17,0,0,0,2.5,4,10.48,10.48,0,0,0,2,.65H44V280H41.73l-1.9.3a4.88,4.88,0,0,0-2.45,1.35A3.76,3.76,0,0,0,36,284.7a4.34,4.34,0,0,0,4,4.66h0l2.66.25H44l1.08-.25h.7a2.48,2.48,0,0,0,.85-.36H47l.45-.3,2.17-1.5,1.9-1.85v5Z"/><path id="Path_26829" data-name="Path 26829" class="cls-1" d="M54.59,267.47v30.36l-3.75-.15V267.47H45.93v-3.3H60.29l.06,3.3Z"/><path id="Path_26830" data-name="Path 26830" class="cls-1" d="M67.41,267.47v30.36l-3.71-.15V267.47h-5v-3.3H73.11l0,3.3Z"/><path id="Path_26831" data-name="Path 26831" class="cls-1" d="M98.73,267.42v30.43H95V278.63H82.32a1,1,0,0,0-.65,0h-.5a4.25,4.25,0,0,0-2.45,4.21,4.69,4.69,0,0,0,2.5,4.33l1.44.3a5.43,5.43,0,0,0,1.61,0l1-.6a4.62,4.62,0,0,0,1.25-3.1v-1.08l-.36-.4-.55-.65h3.4l.45,1.2v1.25a8.35,8.35,0,0,1-1.6,5.9,6,6,0,0,1-2.2,1.61,10.54,10.54,0,0,1-3.06.45,10.1,10.1,0,0,1-3.61-.6l-1.2-.6a9.37,9.37,0,0,1-1.3-.85,11.57,11.57,0,0,1-2-4.46,9,9,0,0,1,0-1.8,10,10,0,0,1,1-4.56,7.73,7.73,0,0,1,2.95-3l1.58-.55,2.35-.55H95.18v-7.51H71.71v-3.25H104.6v3.25Z"/><path id="Path_26832" data-name="Path 26832" class="cls-1" d="M133.61,267.42v30.43h-3.75V281.28h-9.61v7.26c-.55,3.4-2.85,5-6.87,5a6.89,6.89,0,0,1-6.8-5,3.26,3.26,0,0,0-.36-1.81,8.53,8.53,0,0,1,0-1.75,7,7,0,0,1,3.55-6.7l1.4-.46,2.17-.45h3.3v-10H103.27v-3.25H139.1v3.25Zm-17,18.37h0v-4.41H113a4.16,4.16,0,0,0-1.08.36l-.65.3a3.09,3.09,0,0,0-1.75,3.2v1.86l.55,1.25c0,.8,1.3,1.3,3.15,1.6a3.67,3.67,0,0,0,2.89-1.25l.45-.85v-2.06Zm13.26-18.37h-10v10.32h10Z"/><path id="Path_26833" data-name="Path 26833" class="cls-1" d="M134.66,254.06a3.87,3.87,0,0,1-1.65,2.1l-1.35.3a2.74,2.74,0,0,1-2.31-1.09l-.65-1.15-.3-1.5a4.52,4.52,0,0,1,.7-2.75,5.07,5.07,0,0,1,2.36-1.15,2.84,2.84,0,0,1,2.65,1.15l.8,1.2v2.75Z"/><path id="Path_26834" data-name="Path 26834" class="cls-1" d="M164.64,267.42v30.43h-3.71V286.09L147.62,295l-3-3.62,10.81-6.4-1-2.61-1.2-2.4-.9-1.75-.71-.75-.7-.25H150a8.59,8.59,0,0,0-4.55,1.44l-1.81,1.09-.75.7-1.6-4.66.85-.4,2.2-1,3.3-1.09a8.28,8.28,0,0,1,2.71-.4h2.35l.7.4a1.9,1.9,0,0,1,.85.71l.5.49.65,1.15.8,1.61,1.09,3.2.8,2.7,3-1.4h0V267.57h-22.6v-3.25h32v3.25Z"/><path id="Path_26835" data-name="Path 26835" class="cls-1" d="M177.51,267.42v30.43h-3.76V267.42h-5v-3.15h5.5a19.62,19.62,0,0,0-3.7-8.61c-1.5-2.45-3.15-3.7-5-3.7a3.87,3.87,0,0,0-3.31,1.55A5,5,0,0,0,161,257v1.7l.65,1.55.81,1.15v1.81l-.3.36-.46.3h-.6l-.8-.25-1-.65-.5-.45-.85-1.81v-1.15l-.3-1.05v-1.75a9.12,9.12,0,0,1,0-1.81,7.78,7.78,0,0,1,.5-1.85,7.26,7.26,0,0,1,4-4.31,8.37,8.37,0,0,1,3.25-.6,8.82,8.82,0,0,1,7.35,4.46,25.19,25.19,0,0,1,2.71,5,56.76,56.76,0,0,1,1.83,6.26H183v3.26Z"/><path id="Path_26836" data-name="Path 26836" class="cls-1" d="M224.18,267.55v7.66l1.2-.9,1.5-.8h5a5.06,5.06,0,0,1,1.8.65,8.39,8.39,0,0,1,5,5.35,14.29,14.29,0,0,1,.66,4.1,10.51,10.51,0,0,1-2.76,7.51,8.3,8.3,0,0,1-6.2,3l-1.9-.25v-4l1.5.36a5.8,5.8,0,0,0,5-3.85,8,8,0,0,0,.4-2.75,6.8,6.8,0,0,0-1.3-4.4,5,5,0,0,0-4.1-1.6h-2.71l-.55.3a5.68,5.68,0,0,0-2.55,2.1v17.66h-3.75v-7.12l-2.05,1.15-2,.65h-2a8.59,8.59,0,0,1-8.75-5.91,13.36,13.36,0,0,1-.65-4.3,9.27,9.27,0,0,1,2.8-7.21,8.86,8.86,0,0,1,3.05-1.75,12.16,12.16,0,0,1,3.69-.49h2l1.08,3.7L216,276H215a5.54,5.54,0,0,0-2.65.6,5,5,0,0,0-3.16,3.4,7.73,7.73,0,0,0-.45,2.6,6.13,6.13,0,0,0,1.95,4.61l.85.5.9.45h3.1l1.61-.4a7.88,7.88,0,0,0,1.44-.75l1.09-.81.75-.9v-18H202.57v-3.4h38.74v3.4Z"/><path id="Path_26837" data-name="Path 26837" class="cls-1" d="M248.8,267.47v30.36l-3.75-.15V267.47h-4.9v-3.3h14.31l.1,3.3Z"/><path id="Path_26838" data-name="Path 26838" class="cls-1" d="M241.35,264.31l-1.7-1.85a20.26,20.26,0,0,0-4.31-3.4,27.47,27.47,0,0,0-5-2.5l-1.7-.45-2.26-.55-2.2-.6-.55-1v-2.25l.5-.5,1-.36h1.09l1.3.3a12.4,12.4,0,0,1,3.55,1.15,12.22,12.22,0,0,1,3.36,1.7l2.8,2.05a23.12,23.12,0,0,1,2.8,2.71l2.3,2.89,1.35,2.4h-2.3Zm5,0h0a12.08,12.08,0,0,0-.8-2.4l-1.35-2.85a16.47,16.47,0,0,0-1.55-2.75l-1.76-2-1.5-1.56-1.2-1a16.8,16.8,0,0,0-1.6-1.3,8,8,0,0,0-1.65-.95l-.55-.65-.36-.6V246.7l.4-.36H236l1.05.5.5.3,1,.6a10.9,10.9,0,0,1,2.1,1.6l1.55,1.65,1.76,2.85,1.85,3.56,1.7,4.45a8,8,0,0,1,.65,2.6h-2.05Z"/><path id="Path_26839" data-name="Path 26839" class="cls-1" d="M271.47,284.43a9.61,9.61,0,0,1-7.71,3.46l.55.8.55.65.55.8.45,1.2.46,1.35.6,1.36a8.73,8.73,0,0,0,1.3,1.2l1.25.6h3.45l.75-.7h0L272.42,299h-.5l-1.3.3h-1.3a8,8,0,0,1-4-1.45,7.64,7.64,0,0,1-3.25-4.65,8.55,8.55,0,0,0-2.65-4.56,3.84,3.84,0,0,0-1.3-.75l-1.45-.3h-1v-5l.65.71,1.4.75,1.75.55h1.55a10,10,0,0,0,6.56-1.85,8.93,8.93,0,0,0,2.85-7.56,10,10,0,0,0-1.15-5,3.91,3.91,0,0,0-3.75-2.1,3.79,3.79,0,0,0-1.9.37,3.26,3.26,0,0,0-2.35,2.16v1.86a3.12,3.12,0,0,0,.4,1.6,3.8,3.8,0,0,0,1.2,1.35l1.25.55h2.75l1.3-.36-1.44,3.65h-3.51a6.48,6.48,0,0,1-2.3-.75,6.2,6.2,0,0,1-3.4-6,8.05,8.05,0,0,1,2.17-5.8,7.32,7.32,0,0,1,5.55-2.31,8.59,8.59,0,0,1,7.06,3.31,12,12,0,0,1,2.17,5.7v2.36a13.32,13.32,0,0,1-3,8.75Z"/><path id="Path_26840" data-name="Path 26840" class="cls-1" d="M284,267.47v30.36l-3.75-.15V267.47h-4.91v-3.3h14.36l.05,3.3Z"/><path id="Path_26841" data-name="Path 26841" class="cls-1" d="M319.56,267.42v30.43h-3.75v-20h-2.35c-1.65,0-2.95,1.4-4,4.1v1.41l-.45.65v1.95H306.1V285a9.57,9.57,0,0,0-1.45-5,6,6,0,0,0-1.85-1.85,4.1,4.1,0,0,0-2.2-.7,7.07,7.07,0,0,0-2.45.4,6.23,6.23,0,0,0-1.81,1.5,6.83,6.83,0,0,0-.6,1.25,10.32,10.32,0,0,0-.45,1.36,17,17,0,0,0-.4,3.7,9.23,9.23,0,0,0,1.81,6.11,5.45,5.45,0,0,0,5,2.4h2.75l.9-.36.85-.6v4.06l-1.6.4h-3a10,10,0,0,1-4.11-.85,10.71,10.71,0,0,1-3.4-2.65,13.1,13.1,0,0,1-2.65-8.81,13.57,13.57,0,0,1,2.5-8.61,8,8,0,0,1,6.56-3.2,7.3,7.3,0,0,1,5.85,2.89l1.25,2.25v-1.08l.5-.95.8-1.15,1-.75,1.95-.65h4.05v-6.51H288.19v-3.25h37.08v3.25Z"/><path id="Path_26842" data-name="Path 26842" class="cls-1" d="M373.25,261.36l-.5.7H371.1l-.9-.6-.36-.5-2.5-2.5-3.06-2.5a25.67,25.67,0,0,0-5.35-3.15,14.15,14.15,0,0,0-5.8-1.55,5.81,5.81,0,0,0-4.46,1.9,6.4,6.4,0,0,0-1.6,4.4,7.44,7.44,0,0,0,1.85,5h0v.36l.65.6.75.55H356v3.25h-5.76v30.43h-3.75V267.43h-5v-3.16h4.45l-.9-1-.75-1.25-.85-2.35-.3-2.45a9.66,9.66,0,0,1,2.45-6.66,8.06,8.06,0,0,1,6.4-2.75,21,21,0,0,1,5.46.85,29.77,29.77,0,0,1,6.65,2.89l1.85,1.41a32.89,32.89,0,0,1,3.71,2.95l2.85,2.8v1.81a2.18,2.18,0,0,1,0,1Z"/><path id="Path_26843" data-name="Path 26843" class="cls-1" d="M377.86,267.42v30.43H374v-6.51l-1.3.81-1.75.7-1.85.4h-1.55a8.68,8.68,0,0,1-6.81-3.16A11.17,11.17,0,0,1,358,282.5a10.3,10.3,0,0,1,2.55-7.06,9.5,9.5,0,0,1,7.65-3h2.36l1.05,4.26-1.6-.46H368.2a6.51,6.51,0,0,0-4.65,1.85,6.22,6.22,0,0,0-1.7,4.46,6.88,6.88,0,0,0,1.7,4.7,6,6,0,0,0,5,2.05h1.08l.76-.3a5.63,5.63,0,0,0,1.9-1.05l.9-.65.75-.75v-19h-19.1v-3.25h28.67v3.25Z"/><path id="Path_26844" data-name="Path 26844" class="cls-1" d="M403.63,267.57v7.66l1.2-.9,1.5-.8h4.9a4.69,4.69,0,0,1,1.81.65,8.24,8.24,0,0,1,5,5.35,14.69,14.69,0,0,1,.7,4.1,10.75,10.75,0,0,1-2.75,7.51,8.39,8.39,0,0,1-6.21,2.95l-2-.25v-4l1.5.15a5.84,5.84,0,0,0,5-3.85,9.54,9.54,0,0,0,.41-2.75A7,7,0,0,0,413.4,279a5,5,0,0,0-4-1.6H407.3l-.55.3a5.71,5.71,0,0,0-2.7,2.17v17.64h-3.79v-6.95l-2.1,1.15-2,.65h-2a8.59,8.59,0,0,1-8.7-5.9,13.42,13.42,0,0,1-.7-4.31,9.16,9.16,0,0,1,2.85-7.21,8.55,8.55,0,0,1,3-1.75,12.54,12.54,0,0,1,3.71-.5h1.95l1.08,3.71-1.6-.4h-1.5a5.21,5.21,0,0,0-2.65.6,5,5,0,0,0-3.2,3.15,7.69,7.69,0,0,0-.41,2.6,6.15,6.15,0,0,0,2,4.61l.8.49.9.46h3.1l1.6-.4a6.69,6.69,0,0,0,1.45-.76l1.15-.8.75-.9V267H381.86v-3.4h38.73V267Z"/><path id="Path_26845" data-name="Path 26845" class="cls-1" d="M428,267.47v30.36l-3.71-.15V267.47h-5v-3.3H433.7l.05,3.3Z"/><path id="Path_26846" data-name="Path 26846" class="cls-1" d="M463.68,267.57v30H460v-15h-7.37V279H460v-11.4H447.16l1.25,1.3a4.46,4.46,0,0,1,1.08,1.5l1.2,2.5a7.28,7.28,0,0,1,.45,2.61,8.74,8.74,0,0,1-5.6,8.95,9.14,9.14,0,0,1-3.51.6v1.25a9.48,9.48,0,0,0,1.45,5,7.77,7.77,0,0,0,4.66,2.71h3.25l1-.4,1.2-.7v3.95l-1.95.4h-2.85a11.66,11.66,0,0,1-5-1,9.17,9.17,0,0,1-3.5-3.3,11.37,11.37,0,0,1-.95-3,13.36,13.36,0,0,1-.36-3.45V285l-3.4-.7V280.5l1.6.7,1.95.7h1.55a11.61,11.61,0,0,0,2.5,0,6.46,6.46,0,0,0,2.11-.85,5.82,5.82,0,0,0,2.35-5,8.41,8.41,0,0,0-2.7-5.81l-.5-.36-.95-.75-.71-.4-.65-.55h-9.75v-3.25h37v3.4Z"/><path id="Path_26847" data-name="Path 26847" class="cls-1" d="M514,267.57v30h-3.75v-8.76a6.07,6.07,0,0,1-1.25,1l-1.55.95-3,1-2.95.37a10.84,10.84,0,0,1-10-5,17.46,17.46,0,0,1-1.9-8.46v-2.26l1.65.6h4.89a3.3,3.3,0,0,0,2.89-1.65,4.28,4.28,0,0,0,.5-2,3.36,3.36,0,0,0-.25-1.25l-.7-1.5-1-1.55-1.25-1.5h-10v-3.25h33.57v3.4Zm-3.75,0h-9.56l.8,1.15.81,1.35.8,2,.3,1.9a6.26,6.26,0,0,1-2.8,5.5,13.59,13.59,0,0,1-2.45.9l-2.9.3h-2.5v1.76l.55,1.5,1.09,1.05,1.08,1.2a8.59,8.59,0,0,0,6.11,2,10.28,10.28,0,0,0,6.55-2.05l1.2-.95,1.15-1.2V267.57Z"/><path id="Path_26848" data-name="Path 26848" class="cls-1" d="M526.93,267.47v30.36l-3.75-.15V267.47h-5v-3.3h14.36l.06,3.3Z"/><path id="Path_26849" data-name="Path 26849" class="cls-1" d="M523.93,265a21.46,21.46,0,0,0-2.17-4l-1.3-2.2-1-1.4-1-1.3-1.2-1.09-1-.7-1.85-.85-.46-.3-1.8-.9-2.61-.9-.6-.55-.36-.65V247.5l.3-.4.6-.25h.9l1.45.6,1.35.65,2.65,1.6,1.2,1,1,.95,2.06,2.11,1.08,1.25.45.7.55.9,1.09,2.05.9,2.25.6,1.5.55,1.6.3,1.2Z"/><path id="Path_26850" data-name="Path 26850" class="cls-1" d="M563.76,267.42v30.43H560V278.38h-7.66v.3l.4.6.9,1.65.71,2.41.3,2.55a9,9,0,0,1-8.81,9.11h-.1a10,10,0,0,1-9.16-6.41s-.25-.75-.5-1.6l-.9-3.2a9.09,9.09,0,0,0-.3-2.8q-.07-1.61,0-3.21v-3.4h3.62v8.21l.45,1.9.6,1.85a6.65,6.65,0,0,0,2.5,3.46,5,5,0,0,0,3.55,1.25,4.57,4.57,0,0,0,3.91-2,6.65,6.65,0,0,0,1.25-4.2,7,7,0,0,0-1.66-4.61l-1.6-1.8h-3v-3.7H560v-7.21H531.6v-3.25h37.88v3.25Z"/><path id="Path_26851" data-name="Path 26851" class="cls-1" d="M594.49,267.42v30.43h-3.76V278.63H578a1,1,0,0,0-.65,0h-.7a4.31,4.31,0,0,0-2.5,4.21,5,5,0,0,0,2.5,4.33l1.5.3a5,5,0,0,0,1.55,0l1.09-.6a4.62,4.62,0,0,0,1.25-3.1v-1.08l-.37-.4-.6-.65h4l.45,1.2.3,1.25a8.62,8.62,0,0,1-1.95,5.55,6.21,6.21,0,0,1-2.2,1.6,10.53,10.53,0,0,1-3.1.46,10.28,10.28,0,0,1-3.56-.6,6.72,6.72,0,0,1-1.2-.6,7.41,7.41,0,0,1-1.3-1.2,8.37,8.37,0,0,1-1.55-2.86,14.39,14.39,0,0,1-.4-1.6,9,9,0,0,1,0-1.8,9.69,9.69,0,0,1,1-4.56,7.41,7.41,0,0,1,3-3l1.5-.55,2.36-.55h12.76v-6.81h-23.4v-3.25h32.83v3.25Z"/><path id="Path_26852" data-name="Path 26852" class="cls-1" d="M607.35,267.47v30.36l-3.71-.15V267.47h-4.95v-3.3h14.36l.1,3.3Z"/><path id="Path_26853" data-name="Path 26853" class="cls-2" d="M24,169.88H60.55c31,0,30.87-45.55,0-45.55H24Zm36.34,22.17H24v37.79H0V101.12H60.55c62.8,0,63,90.88,0,90.88Z"/><path id="Path_26854" data-name="Path 26854" class="cls-2" d="M236,136.55l-41.83,55.8H189.4l-40.93-56v93.47H124.26V101.27h27.87l40.23,55.3,40.18-55.3h27.73V229.83H236Z"/><path id="Path_26855" data-name="Path 26855" class="cls-2" d="M430.91,230.14H405.73l-53.34-129H379.5l38.74,100,38.93-100h27.11Z"/><path id="Path_26856" data-name="Path 26856" class="cls-2" d="M550.2,154.17l34.12-53H613.5v1.08l-51.19,74.39v53H538.09v-53L488.7,102.22v-1.08h28.82l32.68,53.05Z"/><path id="Path_26857" data-name="Path 26857" class="cls-1" d="M403.88,59.17a9.2,9.2,0,0,0-7.76-6.2,8.6,8.6,0,0,0-2.25.36l-10.46,3.35h0l-5,1.61L342.33,69.4a62.31,62.31,0,0,1-17.06,3.1,22.44,22.44,0,0,1-10-2.1c-6.3-3-7.86-7-7.95-17.35l.8-45a7.75,7.75,0,0,0-1.95-5.46A10.65,10.65,0,0,0,299.6,0h-1a7.52,7.52,0,0,0-7.51,7.16s-1.7,68.56-2.85,107.2c-1.05,34.34-.4,78.87,0,90.08L287.79,221a9.58,9.58,0,0,0,2.65,6.81,11.12,11.12,0,0,0,7.36,2.75h0a9.55,9.55,0,0,0,9.55-9.31l1.36-86.68L352.44,225a9.65,9.65,0,0,0,13.37,2.1,9.23,9.23,0,0,0,3.81-6.2,9.65,9.65,0,0,0-.37-4.46h0l-.25-.65v-.52l-40.58-98.75c-5.31-15-8.68-21.37,6.1-26.93l65.06-20a7.48,7.48,0,0,0,4.4-3.7,10.57,10.57,0,0,0,.37-6.71Z"/><path id="Path_26858" data-name="Path 26858" class="cls-1" d="M333.67,62.78h0a19.16,19.16,0,1,0-.1,0Z"/></g></svg>