<svg id="Layer_1" data-name="Layer 1" xmlns="http://www.w3.org/2000/svg" viewBox="0 0 778.36 300"><defs><style>.cls-1{fill:#1d1d1b;}.cls-2{fill:#878787;}</style></defs><title>Pradhan-Mantri-Aawas-Yojna</title><g id="Group_21642" data-name="Group 21642"><path id="Path_26859" data-name="Path 26859" class="cls-1" d="M340.84,101.74,242.37,11.21,107.05,161.53V300H208.62l-1.16-6.21a349.88,349.88,0,0,0-36.84-95.53A379,379,0,0,0,4.62,39.84L0,49.32A367.83,367.83,0,0,1,161.26,203.37a376,376,0,0,1,28.58,65.57c2.74,8.37,4.53,15.11,5.69,19.69.58,2.32,1,4.1,1.21,5.26a8.44,8.44,0,0,0,.31,1.32v.42l5.27-.95v-5.21H117.58V165.58L243,26.32l90.68,83.16,7.1-7.74Z"/><path id="Path_26860" data-name="Path 26860" class="cls-2" d="M171.79,32.79a32.79,32.79,0,1,1-9.64-23.22A32.79,32.79,0,0,1,171.79,32.79Z"/><path id="Path_26861" data-name="Path 26861" class="cls-1" d="M240.21,126.84a13.62,13.62,0,0,1,6,1.16,11.85,11.85,0,0,1,3.95,3.15,13.14,13.14,0,0,1,2.1,4.48,20.31,20.31,0,0,1,.63,5.26,15.87,15.87,0,0,1-1,6.21,11.15,11.15,0,0,1-3,4.37A13.36,13.36,0,0,1,244.2,154a21,21,0,0,1-6,.84h-5.27v18.48h-9.3V126.84Zm-2.84,21a6.07,6.07,0,0,0,4.52-1.68,7.13,7.13,0,0,0,1.69-5.27,8.11,8.11,0,0,0-1.48-5.27,6.14,6.14,0,0,0-5-1.84h-3.89v14Z"/><path id="Path_26862" data-name="Path 26862" class="cls-1" d="M265.73,138.21v4.7h0a12,12,0,0,1,3.31-4,7.44,7.44,0,0,1,4.74-1.53h1.58v8.53h-2.77a9,9,0,0,0-2.31.31,6.93,6.93,0,0,0-2.17,1.05,5.69,5.69,0,0,0-1.53,1.95,6.35,6.35,0,0,0-.57,3v21h-9v-35Z"/><path id="Path_26863" data-name="Path 26863" class="cls-1" d="M278.74,148.11a12.06,12.06,0,0,1,.94-5.27,8.76,8.76,0,0,1,2.63-3.31,10.63,10.63,0,0,1,3.9-1.81,19.91,19.91,0,0,1,4.74-.58,21.75,21.75,0,0,1,6.47.79,8.83,8.83,0,0,1,3.84,2.21,7.37,7.37,0,0,1,1.85,3.37,19.06,19.06,0,0,1,.47,4.32v18.38a24,24,0,0,0,0,3.79,14.4,14.4,0,0,0,.84,2.95H295.9a7.35,7.35,0,0,1-.69-1.81,9.8,9.8,0,0,0-.42-1.84h0a7.48,7.48,0,0,1-3.58,3.53,14.9,14.9,0,0,1-5.26.78,8.81,8.81,0,0,1-3.95-.78,6.94,6.94,0,0,1-2.63-2.27,10.39,10.39,0,0,1-1.42-3.21,16.05,16.05,0,0,1-.42-3.52,14.29,14.29,0,0,1,.53-4.22,7.43,7.43,0,0,1,1.58-3.05,7.73,7.73,0,0,1,2.68-2.1,20.31,20.31,0,0,1,4-1.48l5.26-1.37a5.65,5.65,0,0,0,2.79-1.42,4.08,4.08,0,0,0,.79-2.68,4.9,4.9,0,0,0-.95-3.16,4,4,0,0,0-3.21-1.11,4,4,0,0,0-3.1,1.21,5.29,5.29,0,0,0-1.06,3.32v.94h-8Zm14.36,8.67-1.89.63a6.68,6.68,0,0,0-3.9,2,5.62,5.62,0,0,0-1.15,3.69,6.93,6.93,0,0,0,.78,3.42,2.7,2.7,0,0,0,2.58,1.42,7.64,7.64,0,0,0,1.9-.27,5.79,5.79,0,0,0,1.81-.94,5.19,5.19,0,0,0,1.84-4.16v-6.89a7,7,0,0,1-1.95,1.16Z"/><path id="Path_26864" data-name="Path 26864" class="cls-1" d="M327.68,169.42a9.36,9.36,0,0,1-3.31,3.42,9.93,9.93,0,0,1-4.58.95,8.82,8.82,0,0,1-8.11-4.21,27.84,27.84,0,0,1-2.58-14,28.48,28.48,0,0,1,2.58-14,8.76,8.76,0,0,1,8.11-4.31,8.55,8.55,0,0,1,4.31,1.06,9.81,9.81,0,0,1,3.21,3.1h0V126.84h8.95v46.27h-8.53v-3.69ZM319,164.16a3.6,3.6,0,0,0,3.78,2.84,3.69,3.69,0,0,0,3.85-2.84,44.5,44.5,0,0,0,0-17.21,3.68,3.68,0,0,0-3.85-2.84A3.6,3.6,0,0,0,319,147,41.59,41.59,0,0,0,319,164.16Z"/><path id="Path_26865" data-name="Path 26865" class="cls-1" d="M351.26,126.84v14.95h0a10.35,10.35,0,0,1,15.05-2.15,10.49,10.49,0,0,1,2.32,7.63v25.84h-8.95V149.05a6.13,6.13,0,0,0-.89-3.78,3.64,3.64,0,0,0-3-1.06c-3.16,0-4.74,1.9-4.74,5.74v23.16h-8.89V126.84Z"/><path id="Path_26866" data-name="Path 26866" class="cls-1" d="M374.68,148.1a12,12,0,0,1,.95-5.26,9.23,9.23,0,0,1,2.63-3.31,10.47,10.47,0,0,1,3.9-1.81,19.73,19.73,0,0,1,4.78-.58,22.14,22.14,0,0,1,6.48.79,8.92,8.92,0,0,1,3.79,2.21,6.83,6.83,0,0,1,1.84,3.37,16.11,16.11,0,0,1,.53,4.31v18.39a24,24,0,0,0,0,3.79,11.69,11.69,0,0,0,.89,2.95h-8.58a7.75,7.75,0,0,1-.68-1.81,2.91,2.91,0,0,0-.42-1.84h0a7.77,7.77,0,0,1-3.61,3.53,15,15,0,0,1-5.27.78,9,9,0,0,1-3.94-.78,6.36,6.36,0,0,1-2.58-2.27,8.45,8.45,0,0,1-1.43-3.21,13.51,13.51,0,0,1-.47-3.52,14,14,0,0,1,.53-4.22,7.43,7.43,0,0,1,1.58-3.05,8.47,8.47,0,0,1,2.73-2.1,20,20,0,0,1,3.95-1.48l5.26-1.37a5.19,5.19,0,0,0,2.79-1.42,4.08,4.08,0,0,0,.79-2.68,4.89,4.89,0,0,0-.94-3.16,4,4,0,0,0-3.21-1.11,4,4,0,0,0-3.11,1.21,5.26,5.26,0,0,0-1,3.32v.94h-8.05Zm14.37,8.68-1.85.63a6.33,6.33,0,0,0-3.89,2A5.24,5.24,0,0,0,382.1,163a7,7,0,0,0,.79,3.42,2.72,2.72,0,0,0,2.58,1.42,8,8,0,0,0,1.89-.26,5.92,5.92,0,0,0,1.81-1,4.67,4.67,0,0,0,1.31-1.68,5.19,5.19,0,0,0,.53-2.48v-6.88a6.12,6.12,0,0,1-1.95,1.16Z"/><path id="Path_26867" data-name="Path 26867" class="cls-1" d="M414.47,138.21v3.9h0a9.11,9.11,0,0,1,3.69-3.79,11.14,11.14,0,0,1,5.26-1.21,9,9,0,0,1,6.58,2.31,10.55,10.55,0,0,1,2.31,7.63V172.9h-8.94V149a6.18,6.18,0,0,0-.9-3.79,3.65,3.65,0,0,0-2.94-1.05c-3.16,0-4.74,1.9-4.74,5.74V173.1h-9V138.21Z"/><path id="Path_26868" data-name="Path 26868" class="cls-1" d="M468.16,126.84l6.63,32.63h.11l6.68-32.63h13.84v46.27h-8.58v-37h-.1l-8.27,37h-7.26l-8.21-37h-.16v37h-8.53V126.84Z"/><path id="Path_26869" data-name="Path 26869" class="cls-1" d="M501.74,148.11a11.25,11.25,0,0,1,1-5.27,8.54,8.54,0,0,1,2.58-3.31,10.58,10.58,0,0,1,3.89-1.81,20.38,20.38,0,0,1,4.79-.58,21.75,21.75,0,0,1,6.47.79,9.47,9.47,0,0,1,3.85,2.21,8,8,0,0,1,1.84,3.37,19.06,19.06,0,0,1,.47,4.32v18.38a24,24,0,0,0,0,3.79,14,14,0,0,0,.9,2.95h-8.36a7,7,0,0,1-.68-1.81,7.23,7.23,0,0,0-.42-1.84h0a7.74,7.74,0,0,1-3.62,3.53,14.46,14.46,0,0,1-5.26.78,9.09,9.09,0,0,1-3.95-.78,6.72,6.72,0,0,1-2.58-2.27,9.45,9.45,0,0,1-1.42-3.21,13.51,13.51,0,0,1-.47-3.52,14.29,14.29,0,0,1,.52-4.22,9.06,9.06,0,0,1,1.58-3.05,8.4,8.4,0,0,1,2.74-2.1,19.83,19.83,0,0,1,4-1.48l5.26-1.37a5.81,5.81,0,0,0,2.79-1.42,4.39,4.39,0,0,0,.73-2.68,4.9,4.9,0,0,0-.95-3.16,3.9,3.9,0,0,0-3.16-1.11,4.1,4.1,0,0,0-3.16,1.21,5.26,5.26,0,0,0-1,3.32v.94h-8.05Zm14.36,8.67-1.84.63a6.49,6.49,0,0,0-3.9,2,5.29,5.29,0,0,0-1.15,3.69,7.55,7.55,0,0,0,.72,3.41,2.77,2.77,0,0,0,2.63,1.42,7.64,7.64,0,0,0,1.84-.26,5.15,5.15,0,0,0,1.81-1,4.81,4.81,0,0,0,1.32-1.68,5.28,5.28,0,0,0,.52-2.47v-6.89a5.44,5.44,0,0,1-1.95,1.16Z"/><path id="Path_26870" data-name="Path 26870" class="cls-1" d="M541.52,138.21v3.9h0a9,9,0,0,1,3.72-3.79,10.86,10.86,0,0,1,5.27-1.22,8.94,8.94,0,0,1,6.57,2.32,10.49,10.49,0,0,1,2.32,7.63v25.84h-8.67V149a6.15,6.15,0,0,0-.9-3.79,3.6,3.6,0,0,0-3-1.05c-3.16,0-4.73,1.89-4.73,5.74v23.15h-8.94V138.21Z"/><path id="Path_26871" data-name="Path 26871" class="cls-1" d="M576.26,128.26v10h5.26v6.1h-5.26v18.85a5.28,5.28,0,0,0,.63,2.94,2.91,2.91,0,0,0,2.53.9h2v6.26a26.9,26.9,0,0,0-2.84,0h-2.94a23.48,23.48,0,0,1-4.27-.31,4.66,4.66,0,0,1-2.53-1.42,6.48,6.48,0,0,1-1.21-2.84,26.14,26.14,0,0,1-.31-4.42v-20h-4.53v-6.1h4.52v-10Z"/><path id="Path_26872" data-name="Path 26872" class="cls-1" d="M593.09,138.21v4.7h0a13.67,13.67,0,0,1,3.32-4,7.6,7.6,0,0,1,4.73-1.52h1.63v8.52H600a8.59,8.59,0,0,0-2.31.32,6.08,6.08,0,0,0-2.17,1,6.34,6.34,0,0,0-1.58,2,6.9,6.9,0,0,0-.58,2.94v21.06h-8.92v-35Z"/><path id="Path_26873" data-name="Path 26873" class="cls-1" d="M615.37,126.32V134h-8.9v-7.63Zm0,11.89V173.1h-8.9V138.21Z"/><path id="Path_26874" data-name="Path 26874" class="cls-1" d="M245.47,193.32l12.85,48.43H248.16l-2.27-10.16H233l-2.21,10.21H220.58l12.84-48.43Zm-1.26,30.21-4.7-21.79h0l-4.57,21.79Z"/><path id="Path_26875" data-name="Path 26875" class="cls-1" d="M268.16,205.26l4.26,25.9h.16l4.53-25.9h10.16l4.84,25.9h.11l4.41-25.9h8.95l-7.85,36.48H287.05l-4.79-25.9h-.16l-4.53,25.9H266.73l-7.94-36.48Z"/><path id="Path_26876" data-name="Path 26876" class="cls-1" d="M309.1,215.79a12.28,12.28,0,0,1,1.06-5.27,8.9,8.9,0,0,1,2.73-3.47,10.53,10.53,0,0,1,4.05-1.89,21.78,21.78,0,0,1,5.27-.58,23.84,23.84,0,0,1,6.78.79,9.8,9.8,0,0,1,4,2.31,7.67,7.67,0,0,1,1.89,3.58,17.71,17.71,0,0,1,.53,4.53v19.15a24.28,24.28,0,0,0,0,4,12.07,12.07,0,0,0,.89,3.06h-8.94a7.65,7.65,0,0,1-.72-1.84,3.24,3.24,0,0,0-.42-1.95h0a7.69,7.69,0,0,1-3.74,3.68,14.72,14.72,0,0,1-5.26.84,9.15,9.15,0,0,1-4.16-.84,6.78,6.78,0,0,1-2.69-2.32,10.42,10.42,0,0,1-1.52-3.36,14.87,14.87,0,0,1-.47-3.69,15.38,15.38,0,0,1,.57-4.42,8.15,8.15,0,0,1,1.63-3.21,8.62,8.62,0,0,1,2.84-2.21,25.52,25.52,0,0,1,4.22-1.58l5.26-1.42a5.87,5.87,0,0,0,2.94-1.47,4.34,4.34,0,0,0,.77-2.79,4.86,4.86,0,0,0-1-3.25,4.12,4.12,0,0,0-3.37-1.22,3.81,3.81,0,0,0-3.21,1.32,5.28,5.28,0,0,0-1.11,3.42v1.05h-8.42Zm15.32,8.89a7.94,7.94,0,0,1-1.95.63,7.15,7.15,0,0,0-4.05,2.06,5.65,5.65,0,0,0-1.26,3.89,7.52,7.52,0,0,0,.84,3.58,2.8,2.8,0,0,0,2.68,1.48,6.75,6.75,0,0,0,2-.32,5.24,5.24,0,0,0,3.79-5.31v-7.16A7.94,7.94,0,0,1,324.42,224.68Z"/><path id="Path_26877" data-name="Path 26877" class="cls-1" d="M341.72,215.79a12.18,12.18,0,0,1,1-5.26,9.74,9.74,0,0,1,2.79-3.48,10.53,10.53,0,0,1,4.05-1.89,21.62,21.62,0,0,1,5-.58,24.32,24.32,0,0,1,6.69.69,9.76,9.76,0,0,1,4,2.31,7.67,7.67,0,0,1,1.89,3.58,17.71,17.71,0,0,1,.53,4.53v19.15a26.7,26.7,0,0,0,0,4,12.21,12.21,0,0,0,.95,3.06h-8.94a8,8,0,0,1-.72-1.85,10.65,10.65,0,0,0-.42-1.94h0a7.61,7.61,0,0,1-3.74,3.68,14.8,14.8,0,0,1-5.52.84,9.18,9.18,0,0,1-4.16-.84,6.47,6.47,0,0,1-2.68-2.32,10.4,10.4,0,0,1-1.53-3.37,14.74,14.74,0,0,1-.47-3.68A16.93,16.93,0,0,1,341,228a8.75,8.75,0,0,1,1.68-3.21,8.62,8.62,0,0,1,2.84-2.21,26.77,26.77,0,0,1,4.16-1.58l5.26-1.42a5.26,5.26,0,0,0,2.89-1.48,4,4,0,0,0,.84-2.79,4.82,4.82,0,0,0-1-3.25,4.14,4.14,0,0,0-3.37-1.21,4,4,0,0,0-3.25,1.32,5.24,5.24,0,0,0-1,3.41v1.06h-8.42Zm15,9.11a9.36,9.36,0,0,1-1.94.63,7.56,7.56,0,0,0-4.11,2.05,6,6,0,0,0-1.21,3.9,7.11,7.11,0,0,0,.84,3.58,2.79,2.79,0,0,0,2.69,1.47,7.13,7.13,0,0,0,2-.31,5.19,5.19,0,0,0,3.25-2.74,6.18,6.18,0,0,0,.53-2.58v-7.37a7.91,7.91,0,0,1-2.06,1.16Z"/><path id="Path_26878" data-name="Path 26878" class="cls-1" d="M381.26,231.05a5.74,5.74,0,0,0,1.26,3.84,4.57,4.57,0,0,0,3.62,1.42,5.22,5.22,0,0,0,3.47-1.05,4.09,4.09,0,0,0,1.27-3.25,3.34,3.34,0,0,0-1-2.69,7.78,7.78,0,0,0-2.37-1.47l-6.58-2.37a12.26,12.26,0,0,1-5.84-3.84,9.7,9.7,0,0,1-1.95-6.32,11.71,11.71,0,0,1,.72-4.26,8.55,8.55,0,0,1,2.37-3.47,11.81,11.81,0,0,1,4.16-2.37,19.07,19.07,0,0,1,6.14-.89,13.67,13.67,0,0,1,9.42,2.73,9.56,9.56,0,0,1,3.06,7.63v1.47h-8.39a7.79,7.79,0,0,0-.9-4.16,3.63,3.63,0,0,0-3.21-1.32,4.94,4.94,0,0,0-3.1,1,3.39,3.39,0,0,0-1.32,2.95,3.79,3.79,0,0,0,.84,2.42,6.33,6.33,0,0,0,3.21,1.85l5.63,1.89a13.23,13.23,0,0,1,6.27,3.9,10.45,10.45,0,0,1,1.84,6.57,11.52,11.52,0,0,1-1.05,5.27,10.62,10.62,0,0,1-2.79,3.52,11.28,11.28,0,0,1-4.32,2.06,22.15,22.15,0,0,1-5.26.58,23.53,23.53,0,0,1-6.58-.73,9,9,0,0,1-4.08-2.22,8,8,0,0,1-2.17-3.62,17.18,17.18,0,0,1-.58-4.79v-1.26h8.37Z"/><path id="Path_26879" data-name="Path 26879" class="cls-1" d="M432.8,212.05h.11l6.76-18.73h10.58l-12.53,29.36v19.06h-9.78V222.68l-12.52-29.36h10.95Z"/><path id="Path_26880" data-name="Path 26880" class="cls-1" d="M448.05,215.26a15.42,15.42,0,0,1,2.42-6,11.12,11.12,0,0,1,4.42-3.62,16.3,16.3,0,0,1,6.79-1.26,17,17,0,0,1,6.95,1.11,10,10,0,0,1,4.42,3.61,16.09,16.09,0,0,1,2.31,6.06,48.48,48.48,0,0,1,.69,8.42,44,44,0,0,1-.72,8.26,16.33,16.33,0,0,1-2.48,6,10.18,10.18,0,0,1-4.42,3.58,22.81,22.81,0,0,1-13.73,0,10.13,10.13,0,0,1-4.42-3.53,16.13,16.13,0,0,1-2.32-6.05,48,48,0,0,1-.68-8.37,38.59,38.59,0,0,1,.78-8.16Zm8.74,13.42a16.44,16.44,0,0,0,.63,4.06,5.64,5.64,0,0,0,1.52,2.63,3.83,3.83,0,0,0,2.74.94,3.9,3.9,0,0,0,3.9-2.94,44.51,44.51,0,0,0,0-19.69,4.16,4.16,0,0,0-6.64-2.05,5.64,5.64,0,0,0-1.52,2.63,17.85,17.85,0,0,0-.63,4.11v5.26c0,2-.11,3.47,0,5.06Z"/><path id="Path_26881" data-name="Path 26881" class="cls-1" d="M490.73,205.26v38.79a16.21,16.21,0,0,1-.47,4.11,7.21,7.21,0,0,1-1.74,2.94,8,8,0,0,1-3.31,1.81,20.29,20.29,0,0,1-5.27.58h-3.57v-6.91h1.47c1.53,0,2.47-.42,2.89-1.37a12.1,12.1,0,0,0,.58-4.26V205.26Zm0-12.47v8h-9.31v-8Z"/><path id="Path_26882" data-name="Path 26882" class="cls-1" d="M506.26,205.26v4.26h0a9.32,9.32,0,0,1,3.9-3.94,11.31,11.31,0,0,1,5.26-1.27,9.12,9.12,0,0,1,6.84,2.43,10.94,10.94,0,0,1,2.42,7.95v27.05h-9.36V216.59a6.24,6.24,0,0,0-1-4,3.78,3.78,0,0,0-3.06-1.11c-3.25,0-4.94,2-4.94,6v24.22H497V205.26Z"/><path id="Path_26883" data-name="Path 26883" class="cls-1" d="M531.16,215.79a12.27,12.27,0,0,1,1.05-5.27,9.44,9.44,0,0,1,2.74-3.47,10.53,10.53,0,0,1,4-1.89,21.55,21.55,0,0,1,5-.58,24.22,24.22,0,0,1,6.73.68,9.44,9.44,0,0,1,4,2.32,8.22,8.22,0,0,1,1.95,3.58,20.18,20.18,0,0,1,.48,4.52v19.16a25.44,25.44,0,0,0,.26,4,14.65,14.65,0,0,0,.9,3h-9a8,8,0,0,1-.68-1.84l-.48-2h0a7.92,7.92,0,0,1-3.78,3.69,15,15,0,0,1-5.27.84,8.93,8.93,0,0,1-4.1-.84,6.64,6.64,0,0,1-2.74-2.32,10.67,10.67,0,0,1-1.47-3.37,14.75,14.75,0,0,1-.48-3.68,15.34,15.34,0,0,1,.53-4.42,8.8,8.8,0,0,1,1.63-3.21,9.51,9.51,0,0,1,2.89-2.22,24.86,24.86,0,0,1,4.16-1.57l5.26-1.42a6,6,0,0,0,2.95-1.48,4.4,4.4,0,0,0,.79-2.79,5.3,5.3,0,0,0-1-3.25,4.19,4.19,0,0,0-3.37-1.21,3.93,3.93,0,0,0-3.25,1.31,5.3,5.3,0,0,0-1.11,3.42v1.06h-8.42Zm15.1,9.1a8.77,8.77,0,0,1-2,.63,7.18,7.18,0,0,0-4,2.06,5.69,5.69,0,0,0-1.21,3.89,7.65,7.65,0,0,0,.79,3.58,2.86,2.86,0,0,0,2.74,1.48,6.41,6.41,0,0,0,1.94-.32,5.21,5.21,0,0,0,1.9-.94,6.23,6.23,0,0,0,1.37-1.81,5.23,5.23,0,0,0,.52-2.58v-7.35a8.59,8.59,0,0,1-2,1.15Z"/><rect id="Rectangle_5122" data-name="Rectangle 5122" class="cls-1" x="563.73" y="218.16" width="19.11" height="8"/><path id="Path_26884" data-name="Path 26884" class="cls-1" d="M610.42,205a9.11,9.11,0,0,0-.95-2.63,6.26,6.26,0,0,0-1.74-1.95,4.26,4.26,0,0,0-2.58-.79,5.26,5.26,0,0,0-5.26,3.9,38.13,38.13,0,0,0-1.58,13.05v7.84a32,32,0,0,0,1,6,8.54,8.54,0,0,0,2.05,3.84,4.69,4.69,0,0,0,3.42,1.32,5.22,5.22,0,0,0,2-.47,7,7,0,0,0,1.95-1.42,9.32,9.32,0,0,0,1.53-2.43,8.67,8.67,0,0,0,.57-3.42v-4.95h-6.42v-7.05h15.79V242.1H613v-4.47h0a10.61,10.61,0,0,1-4.22,4.05,13.79,13.79,0,0,1-5.94,1.16,15,15,0,0,1-7.32-1.53,10.53,10.53,0,0,1-4.37-4.84,24,24,0,0,1-2.17-8,98.08,98.08,0,0,1-.52-11.1,71.39,71.39,0,0,1,.72-10.53,21.47,21.47,0,0,1,2.69-7.68,12.1,12.1,0,0,1,5.26-4.63,17.12,17.12,0,0,1,7.79-1.58,14.6,14.6,0,0,1,11.52,4A16.35,16.35,0,0,1,620,208.27h-9.24a12.35,12.35,0,0,0-.31-3.32Z"/><path id="Path_26885" data-name="Path 26885" class="cls-1" d="M635.63,205.26v4.9h0a13.62,13.62,0,0,1,3.42-4.27,7.87,7.87,0,0,1,5-1.58h1.74v9h-3a7.63,7.63,0,0,0-2.42.36,5.9,5.9,0,0,0-2.26,1.11,5.6,5.6,0,0,0-1.63,2.05,7.27,7.27,0,0,0-.58,3v21.9h-9.38V205.26Z"/><path id="Path_26886" data-name="Path 26886" class="cls-1" d="M649.21,215.79a12.18,12.18,0,0,1,1-5.26,10,10,0,0,1,2.73-3.48,10.63,10.63,0,0,1,4.11-1.89,21.13,21.13,0,0,1,5-.58,23.49,23.49,0,0,1,6.78.79,9.54,9.54,0,0,1,4,2.32,7.58,7.58,0,0,1,1.94,3.58,19.66,19.66,0,0,1,.53,4.52V235a26.7,26.7,0,0,0,0,4,12.56,12.56,0,0,0,1,3.05h-9a7.65,7.65,0,0,1-.72-1.84,11.92,11.92,0,0,0-.43-1.95h0a7.8,7.8,0,0,1-3.73,3.68,15.31,15.31,0,0,1-5.53.85,9.06,9.06,0,0,1-4.16-.85,6.46,6.46,0,0,1-2.73-2.31,10.47,10.47,0,0,1-1.48-3.37,14.74,14.74,0,0,1-.47-3.68,15.3,15.3,0,0,1,.53-4.42,8.56,8.56,0,0,1,4.52-5.43,24.9,24.9,0,0,1,4.16-1.58l5.26-1.42a5.68,5.68,0,0,0,2.89-1.47,4.25,4.25,0,0,0,.84-2.79,5.18,5.18,0,0,0-1-3.25,4.15,4.15,0,0,0-3.37-1.22,4,4,0,0,0-3.25,1.32,5.25,5.25,0,0,0-1.05,3.42v1.05h-8.42Zm15,9.11a9.45,9.45,0,0,1-2,.63,7.59,7.59,0,0,0-4.11,2.05,6,6,0,0,0-1.21,3.9,7,7,0,0,0,.85,3.58,2.78,2.78,0,0,0,2.68,1.47,6.46,6.46,0,0,0,2-.31,5.43,5.43,0,0,0,3.84-5.32v-7.37a7.94,7.94,0,0,1-2,1.15Z"/><path id="Path_26887" data-name="Path 26887" class="cls-1" d="M690.84,205.26V209h0a10.06,10.06,0,0,1,3.94-3.58,11.57,11.57,0,0,1,5.27-1.11,9.61,9.61,0,0,1,5.26,1.48,7.41,7.41,0,0,1,2.94,4.37h0a8.21,8.21,0,0,1,3.53-4.37,10.6,10.6,0,0,1,5.74-1.48,8.22,8.22,0,0,1,6.84,2.8,13,13,0,0,1,2.21,8.15v26.32H717.2v-25.3a6,6,0,0,0-.84-3.53,3,3,0,0,0-2.79-1.21A4.61,4.61,0,0,0,710,213a7,7,0,0,0-1.31,4.74v24h-9.37V216.26a6,6,0,0,0-.84-3.52,3,3,0,0,0-2.79-1.21A4.45,4.45,0,0,0,692.1,213a7,7,0,0,0-1.32,4.74v24h-9.36V205.26Z"/><path id="Path_26888" data-name="Path 26888" class="cls-1" d="M743,192.79v8h-9.37v-8Zm0,12.47v36.48h-9.37V205.26Z"/><path id="Path_26889" data-name="Path 26889" class="cls-1" d="M758.52,205.26v4.26h0a9.61,9.61,0,0,1,3.85-3.94,11.44,11.44,0,0,1,5.26-1.27,9.21,9.21,0,0,1,6.9,2.43,10.94,10.94,0,0,1,2.42,7.95v27.05h-9.37V216.59a6.24,6.24,0,0,0-1-4,3.78,3.78,0,0,0-3-1.11c-3.32,0-5,2-5,6v24.22h-9.37V205.26Z"/><path id="Path_26890" data-name="Path 26890" class="cls-2" d="M242.89,268.42V290.9h-4.42V282l-9.95,8.63h-1.89L224.79,289l8-6.27a5.27,5.27,0,0,1-4.16-1.68,6.86,6.86,0,0,1-1.63-3.42c0-.47,0-.95,0-1.42v-7.74h-3.69v-1.95h23v1.95Zm-4.52,0h-7.21v8.31a3.81,3.81,0,0,0,1.42,3.37l.72.58.84.32,1.21-.48,1.37-.95.68-.57.95-.95Z"/><path id="Path_26891" data-name="Path 26891" class="cls-2" d="M265.05,283.16l-1.68,1.15a9.69,9.69,0,0,1-6.21,1.9h-1.9a10.35,10.35,0,0,1-2.21-.27,5.69,5.69,0,0,1-3.42-2.79,4,4,0,0,1-.47-1.95,5.24,5.24,0,0,1,1.15-3.05l.48-.47.79-.64a9.67,9.67,0,0,1-2.9-2.42l-.94-1.74a5.35,5.35,0,0,1-.32-1.73,4.48,4.48,0,0,1,1.32-3.43,4.78,4.78,0,0,1,3.47-1.37h1.85a3.19,3.19,0,0,1,1.63.36,3.44,3.44,0,0,1,2.42,2,3.49,3.49,0,0,1,.31,1.42v1.42h-4v-2.42l-.84-.79-.48.32-.42.47-.47.95v1.05a4.7,4.7,0,0,0,1,3.16l.72.9.73.57H261l1,1.81h-3.16a5.65,5.65,0,0,0-4,1.42,3.34,3.34,0,0,0-.79,2.26,3,3,0,0,0,1.21,2.37l.9.53,1.05.31,1.16-.26,1.21-.47,1.16-.58,1.21-.9,1.05-.94,1.26-1.32h1.84v2.58Zm-6.32-14.74v-1.89H262v1.89Z"/><path id="Path_26892" data-name="Path 26892" class="cls-2" d="M268.47,268.16v22.48H264.1V268.16h-4.63v-2H273.1v2Z"/><path id="Path_26893" data-name="Path 26893" class="cls-2" d="M278.68,268.16v22.48h-4.42V268.16h-4.63v-2h13.63v2Z"/><path id="Path_26894" data-name="Path 26894" class="cls-2" d="M302.21,268.42V290.9h-4.42V276.58h-7v5.26l-.42.36h-2.36a2,2,0,0,1-1.05-.53l-1.74-1.84a11.63,11.63,0,0,1-1.53-2.1,4.24,4.24,0,0,1-.58-1.26,1.49,1.49,0,0,1,.73-1.37h14v-6.68H280.37v-1.95h25.79v1.95Z"/><path id="Path_26895" data-name="Path 26895" class="cls-2" d="M346.61,268.42V290.9h-4.33V279h-6.74v4.1l-.36.27h-2.53l-1.16-.48-.72-.68a22.13,22.13,0,0,1-1.74-1.89,5.29,5.29,0,0,1-1.11-2.22v-.58l.53-.47h2.47v-8.58h-6v-1.95h24.94v1.95Zm-4.37,0h-6.73v8.43h6.77Z"/><rect id="Rectangle_5123" data-name="Rectangle 5123" class="cls-2" x="343.1" y="257.84" width="5.16" height="3.05"/><path id="Path_26896" data-name="Path 26896" class="cls-2" d="M371.42,268.42V290.9h-4.37v-8l-9.42,5.27H356l-1.42-2.11,11.69-6.1-2.69-2.58a10.48,10.48,0,0,0-1.95-1.63l-1.42-.9-1.42.53-1.81.72-3.15,1.69h-1.9L350.46,276h.47l1-.58,4.05-1.73,2.37-.85a5.24,5.24,0,0,1,1.48,0h1.89a4.17,4.17,0,0,1,1.95.85,13.44,13.44,0,0,1,2.1,1.89l.63.68.85.84v-8.67H347.73v-1.94H375v1.95Z"/><path id="Path_26897" data-name="Path 26897" class="cls-2" d="M382.84,268.42V290.9h-4.37V268.42h-4.16v-1.95h3.62c.36-.36-.85-2.26-3.74-5.63a8.65,8.65,0,0,0-3.16-2.53l-.68.42-.64.68-.52,1v2.95a5.36,5.36,0,0,0,.58,1.48l.57,1.15.36.48h-4.63l-.57-.73-.48-.94-.36-1.06v-1.05a5.46,5.46,0,0,1,.42-2.32,5.92,5.92,0,0,1,2.95-3.52,6.88,6.88,0,0,1,2.32-.53h1.42a6,6,0,0,1,3.58,1.32,15.1,15.1,0,0,1,3.68,3.84l1.37,2.1,1.68,2.95h4.53v1.89Z"/><path id="Path_26898" data-name="Path 26898" class="cls-2" d="M432,268.42v22.46h-4.27V280.37h-3.25l.26,1.1v1a5.27,5.27,0,0,1-3.78,5.69,6.15,6.15,0,0,1-2.37.31h-1.9a10.52,10.52,0,0,1-7.47-4.26,11.09,11.09,0,0,1-3.05-4.89l1.89-1.26h1.89l1.48,2.58,1.21,1.8a8.09,8.09,0,0,0,1.26,1.48l1.32,1.31a6.53,6.53,0,0,0,2.47,1.37l.9-.41.78-.79a4.74,4.74,0,0,0,1.11-2.89,4.5,4.5,0,0,0-.42-1.95,3.48,3.48,0,0,0-2.48-2.42l-1.21-.32h-2.79l-.79-1.74a7,7,0,0,0,3.9-1.05,3.94,3.94,0,0,0,2-3.42,5.17,5.17,0,0,0,0-1.47l-.47-.95-.9-.72-.95-.36-1.31.57-1.42,1-.73.68-.94,1H410L408.17,270h0l.42-.42,1.52-1.32a8.92,8.92,0,0,1,5.27-1.89h1.89a4.82,4.82,0,0,1,2.21.52,5.25,5.25,0,0,1,2.84,3.06,6.57,6.57,0,0,1,.42,2.05v1.42l-.42,1.16a5.19,5.19,0,0,1-2.1,2h1.21l.84.36h1.42l1.16.47h3v-8.89h-4.58v-1.95h12.26v1.95Z"/><path id="Path_26899" data-name="Path 26899" class="cls-2" d="M443.84,268.16v22.48h-4.42V268.16h-4.63v-2h13.63v2Z"/><path id="Path_26900" data-name="Path 26900" class="cls-2" d="M467,268.42V290.9h-4.37v-6.37h0l-1.53.52h-3.37a7.44,7.44,0,0,1-4.89-1.8,6.74,6.74,0,0,1-1.69-2.17,5.23,5.23,0,0,1-.52-2.58,6.9,6.9,0,0,1,1.8-4.7,6,6,0,0,1,4.58-2.17h5.16l.53,2.47h-1.89l-.53-.31h-.42l-.79-.27h-.79a2.53,2.53,0,0,0-2.05,1.22,4.33,4.33,0,0,0-.72,1.42,5.59,5.59,0,0,0,.84,5.26l.95.89,1.31.48H460l.42-.32a10.28,10.28,0,0,0,1.37-.84l1-1.16V268.42H447v-1.95h24.47v1.95Z"/><path id="Path_26901" data-name="Path 26901" class="cls-2" d="M478.79,268.16v22.48h-4.38V268.16h-4.62v-2h13.63v2Z"/><path id="Path_26902" data-name="Path 26902" class="cls-2" d="M508.63,268.42V290.9h-4.37V278.32h-6.68l-1.69-1.9h8.37v-8h-7v8.37l-.32,1a2.22,2.22,0,0,1-.94,1.21,3.3,3.3,0,0,1-1.58.63h-2.2l2.89,4.53,1.32,1.63,2.26,2.63,1,.95-1.95,1.63h-1.91a6.81,6.81,0,0,1-2.26-2.42l-6-8.79-1.32-2.17-.84-1.48-.84-1.52,2-1.32h1.89l1.37,2.63.73,1,1.05.53h.47l.32-.31.31-.69v-8.14H481.63v-1.95h30.72v1.95Z"/><path id="Path_26903" data-name="Path 26903" class="cls-2" d="M554.2,268.42v22.47h-4.37v-6.31a11.09,11.09,0,0,1-1.85.68H544a10,10,0,0,1-3.48-.53,8.45,8.45,0,0,1-2.79-1.74,8.3,8.3,0,0,1-2.79-6.42h3.68l.9-.57a4,4,0,0,0,1.21-3.11,6.51,6.51,0,0,0-1.21-3.31l-1.16-1.53h-6.61V266.1h25.84v2.32Zm-4.37,0h-6.48l.58.94.36.73.79,1.84v1.47a5.25,5.25,0,0,1-2.74,4.79l-1.15.48-1.63.42v1.26h0a5.89,5.89,0,0,0,4.26,3.37,11.35,11.35,0,0,0,1.42-.36l1.26-.73.79-.63.63-.58L549,280Z"/><path id="Path_26904" data-name="Path 26904" class="cls-2" d="M566.1,268.16v22.47h-4.37V268.16h-4.15v-2h3.1l-9.1-10.12,1.73-1.81h1.9l9.58,11.9h4.73v1.95Z"/><path id="Path_26905" data-name="Path 26905" class="cls-2" d="M596.21,268.42V290.9h-4.42V276h-5.26a2.44,2.44,0,0,1,.63.95l.84,2.1.48,1.63v2.21a4.39,4.39,0,0,1-1.32,3,5.06,5.06,0,0,1-1.81,1.26,6,6,0,0,1-2.36.42h-1.9a7.4,7.4,0,0,1-3.1-.78,11.59,11.59,0,0,1-4.74-5.27,20.9,20.9,0,0,1-1.63-3.61l-.9-2.42v-1.05l2-1.53h1.9v.79l.89,2.63a22.79,22.79,0,0,0,2.48,5.26,8.61,8.61,0,0,0,4.31,3.74L583,285l.57-.52a4.68,4.68,0,0,0,.79-2.69,8.94,8.94,0,0,0-1.81-5.26l-1.21-1.81-.72-.84H592v-5.47H567.89v-1.95h32.37v1.95Z"/><path id="Path_26906" data-name="Path 26906" class="cls-2" d="M621.63,268.42V290.9h-4.42V276.58h-7v5.26l-.42.36h-2.37a2,2,0,0,1-1.05-.53l-1.74-1.84a15,15,0,0,1-1.53-2.1,4.24,4.24,0,0,1-.58-1.26,1.44,1.44,0,0,1,.79-1.37h13.95v-6.68H599.68v-1.95h25.84v1.95Z"/><path id="Path_26907" data-name="Path 26907" class="cls-2" d="M633.42,268.16v22.48H629V268.16h-4.63v-2H638v2Z"/><rect id="Rectangle_5124" data-name="Rectangle 5124" class="cls-2" x="648" y="275.32" width="11.58" height="4.26"/><path id="Path_26908" data-name="Path 26908" class="cls-2" d="M696.84,268.42V290.9h-4.42V268.42h-5.6v13.49l-.36.72h-2.53c-.89,0-2-.72-3.37-2.21a6.06,6.06,0,0,1-2.1-3.62v-.47h4v-7.91h-7.7v-1.95H702v1.95Z"/><path id="Path_26909" data-name="Path 26909" class="cls-2" d="M683.73,290.63h-1.89l-1.63-1.84,13.16-8.21h1.89v1.89Z"/><path id="Path_26910" data-name="Path 26910" class="cls-2" d="M706.53,268.16v22.48h-4.42V268.16h-4.64v-2H711.1v2Z"/><path id="Path_26911" data-name="Path 26911" class="cls-2" d="M731.42,268.42V290.9h-4.31V279h-6.78v4.1l-.36.27h-2.48l-1.22-.48-.68-.68-1.81-1.89a5.79,5.79,0,0,1-1.1-2.22v-.58l.52-.47h2.74v-8.58h-6v-1.95h25v1.95Zm-4.32,0h-6.78v8.43h6.79Z"/><path id="Path_26912" data-name="Path 26912" class="cls-2" d="M742.79,268.42V290.9h-4.37V268.42h-4.16v-1.95h3.58c.42-.36-.79-2.26-3.74-5.63a8.46,8.46,0,0,0-3.1-2.53l-.69.42-.63.68-.53,1-.26.95v2a7.27,7.27,0,0,0,.53,1.48l.63,1.15.31.48h-4.63l-.52-.73-.48-.94-.36-1.06v-1.05a5.17,5.17,0,0,1,.48-2.32,5.87,5.87,0,0,1,2.94-3.52,6.55,6.55,0,0,1,2.26-.53h1.85a5.74,5.74,0,0,1,3.58,1.32,15.13,15.13,0,0,1,3.73,3.84l1.37,2.1,1.69,2.95h4.47v1.89Z"/><path id="Path_26913" data-name="Path 26913" class="cls-2" d="M763.77,268.42v9.21a5.42,5.42,0,0,1-5.56,5h-1.9a10.13,10.13,0,0,1-2.32-.32,5.87,5.87,0,0,1-3.25-3.36,5.36,5.36,0,0,1-.42-2.27v-8.26h-4.11v-1.95h19.37v1.95Zm-4.42,0h-4.61v8.43a4.74,4.74,0,0,0,.84,2.84l.63.68.79.36a2.08,2.08,0,0,0,1.68-1.16l.53-1.26v-1.63Z"/><path id="Path_26914" data-name="Path 26914" class="cls-2" d="M773.78,268.16v22.48h-4.42V268.16h-4.58v-2h13.58v2Z"/><rect id="Rectangle_5125" data-name="Rectangle 5125" class="cls-2" x="223.11" y="266.21" width="46.11" height="1.89"/></g></svg>