<?xml version="1.0" encoding="utf-8"?>
<!-- Generator: Adobe Illustrator 21.1.0, SVG Export Plug-In . SVG Version: 6.00 Build 0)  -->
<svg version="1.1" id="Layer_1" xmlns="http://www.w3.org/2000/svg" xmlns:xlink="http://www.w3.org/1999/xlink" x="0px" y="0px"
	 viewBox="0 0 342.1 300" style="enable-background:new 0 0 342.1 300;" xml:space="preserve">
<style type="text/css">
	.st0{fill:#CCCCCC;}
	.st1{fill:#787878;stroke:#000000;stroke-miterlimit:10;}
	.st2{fill:#797979;}
	.st3{fill:none;}
</style>
<title>Revenue Department - Delhi</title>
<g>
	<ellipse class="st0" cx="164.3" cy="215.7" rx="46.4" ry="2.9"/>
	<path d="M148.9,121.7l76.5-65.6c0,0-62.5-68.8-130.7-34.4s-5.7,193.7,146.6,165c0,0,71.9-18.6,26.2-113.3c-1.4-2.9-3-5.6-4.9-8.2
		C254,53.4,226.9,19.7,183.3,0c0,0,78.4,24.5,103.9,95.1s-11.5,137.5-123,120.9S12.5,58.6,80.7,18.5c65-38.3,170.6,17.3,178.1,87.2
		c1.2,10-1.9,20-8.3,27.7C238.5,147.2,202.6,159.3,148.9,121.7z"/>
	<path class="st1" d="M129.1,93.7l51-40.8c0,0-26.9-17.5-49.5-3.5c-9.2,5.6-14,16.4-11.9,27C119.9,82.5,122.8,89.2,129.1,93.7z"/>
	<path class="st2" d="M0,253.6h10c6.4,0,10.8,0.3,13.1,0.8c1.9,0.4,3.7,1.3,5.2,2.6c1.1,1.1,1.9,2.5,2.2,4c0.4,2.9,0.5,5.8,0.4,8.7
		v16c0,4.1-0.2,6.9-0.6,8.2c-0.4,1.3-1.2,2.5-2.3,3.3c-1.2,0.8-2.6,1.4-4,1.6c-2.4,0.4-4.8,0.5-7.2,0.5H0V253.6z M13.4,261.4v30.1
		c1.9,0,3.1-0.3,3.5-1s0.7-2.5,0.7-5.6v-17.8c0.1-1.3,0-2.7-0.2-4c-0.1-0.6-0.5-1-1-1.3C15.4,261.5,14.4,261.3,13.4,261.4z"/>
	<path class="st2" d="M48.7,253.6v6H35.5v-6H48.7z M48.7,261.9v37.5H35.5v-37.5H48.7z"/>
	<path class="st2" d="M79.5,273.8H68.1v-2c0.1-1.1,0-2.2-0.3-3.3c-0.2-0.5-0.8-0.7-1.7-0.7c-0.6,0-1.2,0.2-1.6,0.6
		c-0.4,0.6-0.6,1.2-0.5,1.9c0,0.9,0.1,1.7,0.3,2.5c0.4,0.7,0.9,1.3,1.6,1.8c1.8,1.1,3.6,2,5.5,2.8c3.7,1.6,6.2,3.1,7.3,4.5
		s1.7,3.5,1.7,6.2c0.1,2.4-0.3,4.7-1.3,6.9c-1,1.7-2.6,2.9-4.5,3.6c-2.4,0.9-5,1.3-7.5,1.3c-2.8,0.1-5.7-0.4-8.3-1.4
		c-2-0.6-3.7-1.9-4.8-3.6c-0.9-1.5-1.3-3.9-1.3-7v-1.8H64v2.4c-0.1,1.3,0.1,2.7,0.4,3.9c0.3,0.6,1,1,1.7,0.9
		c0.7,0.1,1.4-0.1,1.9-0.6c0.5-0.8,0.6-1.7,0.5-2.6c0-1.8-0.2-2.9-0.7-3.4c-2.4-1.5-4.9-2.8-7.5-4c-3.8-1.9-6.1-3.6-6.9-5.1
		c-0.9-1.7-1.3-3.6-1.2-5.5c0-3,0.4-5.2,1.3-6.6c1.1-1.6,2.7-2.7,4.5-3.3c2.4-0.8,4.9-1.2,7.4-1.2c2.4-0.1,4.8,0.3,7.1,1
		c1.7,0.5,3.2,1.3,4.5,2.5c0.9,0.8,1.5,1.8,1.9,2.9c0.3,1.4,0.4,2.8,0.3,4.1L79.5,273.8z"/>
	<path class="st2" d="M97.4,256.9v5.9h3.5v5.9h-3.5v20c0,2.5,0.1,3.8,0.4,4.1s1.5,0.4,3.6,0.4v6h-5.2c-2.1,0.1-4.1,0-6.2-0.3
		c-1.2-0.2-2.4-0.7-3.3-1.5c-0.9-0.7-1.5-1.6-1.8-2.7c-0.3-2.4-0.4-4.7-0.3-7.1v-19h-2.8v-5.9h2.8v-5.9L97.4,256.9z"/>
	<path class="st2" d="M116.5,261.9l-0.5,4.9c1.9-3.5,4.6-5.4,8.1-5.6v13.2c-1.8-0.1-3.5,0.2-5.2,0.9c-1,0.5-1.7,1.3-2,2.4
		c-0.3,2.3-0.5,4.7-0.4,7v14.8h-12.8v-37.5H116.5z"/>
	<path class="st2" d="M140.1,253.6v6h-13.2v-6H140.1z M140.1,261.9v37.5h-13.2v-37.5H140.1z"/>
	<path class="st2" d="M173,276h-12.1v-4.3c0.1-1-0.1-2.1-0.4-3.1c-0.6-0.8-1.8-1.1-2.6-0.5c-0.1,0.1-0.3,0.2-0.4,0.4
		c-0.3,1-0.5,2.1-0.4,3.2v17.7c-0.1,1,0.1,2.1,0.6,3c0.3,0.6,1,1,1.7,1c0.7,0.1,1.4-0.3,1.8-1c0.4-1.3,0.5-2.6,0.5-4v-4.5H173
		c0,2.3-0.1,4.5-0.4,6.7c-0.3,1.7-1,3.3-2.1,4.6c-1.2,1.6-2.8,2.8-4.7,3.6c-5.1,1.7-10.7,1.6-15.7-0.5c-2-1-3.6-2.6-4.5-4.6
		c-1-2.7-1.4-5.6-1.3-8.5v-10.6c-0.1-2.4,0.2-4.9,1.1-7.2c1-1.9,2.6-3.4,4.6-4.3c2.6-1.3,5.6-2,8.6-1.9c3-0.1,5.9,0.6,8.6,1.9
		c2.1,1,3.8,2.7,4.7,4.8C172.7,270.5,173.1,273.2,173,276z"/>
	<path class="st2" d="M190.3,256.9v5.9h3.5v5.9h-3.5v20c0,2.5,0.1,3.8,0.4,4.1c0.3,0.3,1.5,0.4,3.6,0.4v6h-5.2
		c-2.1,0-4.2-0.1-6.3-0.3c-1.2-0.2-2.4-0.7-3.3-1.5c-0.9-0.7-1.5-1.6-1.8-2.7c-0.3-2.4-0.4-4.7-0.4-7.1v-19h-2.8v-5.9h2.8v-5.9
		L190.3,256.9z"/>
	<path class="st2" d="M208.4,253.6h10c6.4,0,10.8,0.3,13.1,0.8c1.9,0.4,3.7,1.3,5.2,2.6c1.1,1.1,1.9,2.5,2.2,4
		c0.4,2.9,0.5,5.8,0.4,8.7v16c0,4.1-0.2,6.9-0.6,8.2c-0.4,1.3-1.2,2.4-2.3,3.3c-1.2,0.8-2.6,1.4-4,1.6c-2.4,0.4-4.8,0.5-7.2,0.5
		h-16.8V253.6z M221.8,261.4v30.1c1.9,0,3.1-0.3,3.6-1c0.4-0.7,0.7-2.5,0.7-5.6v-17.8c0.1-1.3,0-2.7-0.2-4c-0.1-0.6-0.5-1-1-1.3
		C223.8,261.5,222.8,261.3,221.8,261.4z"/>
	<path class="st2" d="M272.9,281.3h-16.6v8.1c-0.1,1.1,0,2.2,0.4,3.3c0.3,0.5,1,0.8,1.6,0.7c0.8,0.1,1.6-0.3,2-1
		c0.4-1.2,0.6-2.5,0.5-3.8v-4.9H273v2.8c0.1,1.8-0.1,3.6-0.5,5.3c-0.5,1.5-1.2,2.9-2.3,4c-1.2,1.4-2.8,2.5-4.6,3.2
		c-2.3,0.8-4.6,1.1-7,1.1c-2.4,0.1-4.8-0.3-7.2-1c-1.8-0.5-3.5-1.5-4.8-2.9c-1.1-1.1-1.9-2.5-2.4-4c-0.5-2.1-0.7-4.2-0.7-6.4v-11
		c-0.1-2.7,0.4-5.3,1.5-7.8c1.1-2,2.8-3.5,4.9-4.4c2.5-1,5.1-1.6,7.8-1.5c3.1-0.1,6.1,0.5,8.9,1.9c2.1,1,3.9,2.7,4.9,4.8
		c1.1,2.7,1.5,5.6,1.4,8.5L272.9,281.3z M260.1,275.1v-2.7c0.1-1.3,0-2.5-0.4-3.8c-0.2-0.6-0.8-0.9-1.4-0.9c-0.9,0-1.4,0.2-1.6,0.7
		c-0.3,1.3-0.4,2.6-0.3,3.9v2.7L260.1,275.1z"/>
	<path class="st2" d="M290.3,253.6v45.7h-13.2v-45.7H290.3z"/>
	<path class="st2" d="M307.7,253.6v10.3c1.1-0.9,2.3-1.5,3.6-2c1.3-0.5,2.7-0.7,4.1-0.7c2-0.1,4,0.5,5.7,1.5c1.4,0.8,2.4,2,2.9,3.5
		c0.4,2.4,0.6,4.8,0.5,7.3v25.8h-12.8V273c0.1-1.4,0-2.8-0.4-4.2c-0.5-0.9-1.6-1.2-2.5-0.7c-0.3,0.2-0.6,0.4-0.7,0.7
		c-0.4,1.2-0.5,2.5-0.4,3.8v26.7h-12.8v-45.7H307.7z"/>
	<path class="st2" d="M342.1,253.6v6h-13.2v-6H342.1z M342.1,261.9v37.5h-13.2v-37.5H342.1z"/>
	<rect x="0" class="st3" width="342.1" height="300"/>
</g>
</svg>
