<svg id="Layer_1" data-name="Layer 1" xmlns="http://www.w3.org/2000/svg" viewBox="0 0 364.8 300"><defs><style>.cls-1,.cls-3,.cls-4,.cls-5,.cls-6,.cls-7{fill-rule:evenodd;}.cls-2,.cls-5{fill:#262626;}.cls-3{fill:#4d4d4d;}.cls-4{fill:#fff;}.cls-6{fill:#444;}.cls-7{fill:#727272;}</style></defs><title>Skill India</title><g id="Group_21637" data-name="Group 21637"><path id="Path_26278" data-name="Path 26278" class="cls-1" d="M0,222.47,6.51,213a23.8,23.8,0,0,0,18,7.5c6.51,0,9.5-3,9.5-6,0-10-32.53-3-32.53-24,0-9.5,8-17,21.52-17a30.13,30.13,0,0,1,22,8l-6.51,9a24.85,24.85,0,0,0-16.51-6c-5,0-8,2-8,5.5,0,9,32.53,3,32.53,24,0,10.48-7.51,18-22.52,18A35.4,35.4,0,0,1,0,222.47Z"/><path id="Path_26279" data-name="Path 26279" class="cls-1" d="M81.07,230.47l-11-15.5-5,5v10.48H54.57V174H65.06v34l15.51-18H94.08l-16.51,18.5,16.51,22Z"/><path id="Path_26280" data-name="Path 26280" class="cls-1" d="M185.66,174h12v56.5h-12Z"/><path id="Path_26281" data-name="Path 26281" class="cls-1" d="M236.2,230.46V206a6.71,6.71,0,0,0-5.51-7.5h-2a14.23,14.23,0,0,0-9.51,4.5v27.49H208.67V190h10.51v5a17.59,17.59,0,0,1,14.52-6,11.86,11.86,0,0,1,13.5,10v32h-11Z"/><path id="Path_26282" data-name="Path 26282" class="cls-1" d="M285.74,230.47v-5a14,14,0,0,1-12.51,6c-10,0-18-7.5-18-21.5s8-21.49,18-21.49a15.2,15.2,0,0,1,12.51,6v-21h10.51V230H285.74Zm0-13V203a10.75,10.75,0,0,0-9-4.5A12.62,12.62,0,0,0,266.24,212a12.19,12.19,0,0,0,10.49,10.48,12.69,12.69,0,0,0,9-5Z"/><path id="Path_26283" data-name="Path 26283" class="cls-1" d="M306.25,179a6.52,6.52,0,1,1,6.52,6.51h0A6.62,6.62,0,0,1,306.25,179Zm1,11h10.5v41h-10.5V190Z"/><path id="Path_26284" data-name="Path 26284" class="cls-1" d="M353.29,230.47V226a18.18,18.18,0,0,1-13,5.5,13.15,13.15,0,0,1-14-12.29c0-.24,0-.47,0-.71V218a12.91,12.91,0,0,1,12.82-13h1.7a16,16,0,0,1,13,5v-5c0-4-3.51-7-9-7a16.26,16.26,0,0,0-11.51,5l-4.53-8a26.73,26.73,0,0,1,18-6.51c9.5,0,18,4,18,15.5v26.5Zm0-10v-5a9.52,9.52,0,0,0-8.51-3.5c-4.5,0-7.5,2.5-7.5,6a6.83,6.83,0,0,0,7.5,6,10,10,0,0,0,8.51-3.5Z"/><path id="Path_26285" data-name="Path 26285" class="cls-2" d="M105.09,180l-8,11h2.51v39.5h11V191h2.51Z"/><path id="Path_26286" data-name="Path 26286" class="cls-3" d="M126.6,165l-8,11h2.5v54.5h11V176h2.5Z"/><path id="Path_26287" data-name="Path 26287" class="cls-1" d="M148.12,165l-8,11h2.51v54.5h10.52V176h2.5Z"/><path id="Path_26288" data-name="Path 26288" class="cls-1" d="M22,271a3.24,3.24,0,0,0-3,3h0v11H14v-5h0a5.69,5.69,0,0,1-4,1.5A6.76,6.76,0,0,1,3,275v-.54a7.6,7.6,0,0,1,7-7.5h1.5l1,4.5c-2.5-.5-4,.5-4,3a2.81,2.81,0,0,0,2.51,3h0a3.23,3.23,0,0,0,3-3v-10H.5V260H32v4H19v4h0a5.71,5.71,0,0,1,4-1.5,6.73,6.73,0,0,1,7,6.43V274a7.27,7.27,0,0,1-7,7.5H22L21,277a3,3,0,0,0,3.85-1.89A3.25,3.25,0,0,0,25,274a2.89,2.89,0,0,0-2.78-3H22Z"/><path id="Path_26289" data-name="Path 26289" class="cls-1" d="M38.53,264v21h-5V264H30v-4h1.5a42.56,42.56,0,0,1-11-7.48l4.5-3,10,10.48h0l-6-9.49,5.5-1,4,11h4v4Z"/><path id="Path_26290" data-name="Path 26290" class="cls-1" d="M47.54,271a4.85,4.85,0,0,1-4-5,6.36,6.36,0,0,1,6.66-6c.11,0,.23,0,.34,0h0a7.29,7.29,0,0,1,8,6.5h0v1a8.88,8.88,0,0,1-8.51,9h-.5a17.82,17.82,0,0,1,5,3.5l3.5,3-4.5,3-9-8.5-3-2.5,3-4a9.65,9.65,0,0,0,4,1,5.41,5.41,0,0,0,5.5-4.5V267c0-2-1-3.5-2.5-3.5-1,0-2,.5-2,1.5h0c0,1,.5,2,1.5,2l-3.5,4Zm14-11h9v4h-4v21h-5Z"/><path id="Path_26291" data-name="Path 26291" class="cls-1" d="M88.57,268v-4h-20v-4H98.08v4h-4v21h-5V272c-.5-.5-1-.5-2-.5-1.51,0-2,1-2,3V278h-5v-4a2.28,2.28,0,0,0-2-2.5c-1,0-2,.5-2,3a8.69,8.69,0,0,0,5.51,7.5l-3.5,3.49a13.26,13.26,0,0,1-8-11,7.08,7.08,0,0,1,6-7.5h.49a4.38,4.38,0,0,1,4.51,3h0a4.27,4.27,0,0,1,3.5-3,11.55,11.55,0,0,1,4,1Z"/><path id="Path_26292" data-name="Path 26292" class="cls-1" d="M118.1,260h12v4h-4v21h-5V275h-6v4h-5a8.08,8.08,0,0,1-3-6.51l3-2v-4c0-1.5-.5-2-2-2h-2.5V260h3.5a5.17,5.17,0,0,1,6,4.22c0,.1,0,.19,0,.28V270h6v-6h-3Z"/><path id="Path_26293" data-name="Path 26293" class="cls-1" d="M136.61,264v21h-5V264h-4v-4h13v4Z"/><path id="Path_26294" data-name="Path 26294" class="cls-1" d="M147.62,275.46a24.42,24.42,0,0,1,3,3.5l3.51,4-4.51,2.5-10.51-13,4-3a3.62,3.62,0,0,0,3,2c1,0,1.5-.5,1.5-2V264h-9.5v-4h18.51v4h-3.5v6c0,3-2,5-5.51,5.5Z"/><path id="Path_26295" data-name="Path 26295" class="cls-1" d="M162.63,285.46a15.19,15.19,0,0,1-6-10.48,7.6,7.6,0,0,1,6.51-7.5h5.51V264h-15v-4h24v4h-4v21h-5V272h-3.5a2.8,2.8,0,0,0-3,2.5v.5a7.55,7.55,0,0,0,4.51,7A29.06,29.06,0,0,0,162.63,285.46Z"/><path id="Path_26296" data-name="Path 26296" class="cls-1" d="M219.68,271a3.23,3.23,0,0,0-3,3v11h-5v-5h0a5.71,5.71,0,0,1-4,1.5,7.11,7.11,0,0,1-7.51-6V274a7.27,7.27,0,0,1,7-7.5h1.5l1,4.5c-2.51-.5-4.51.5-4.51,3a3.19,3.19,0,0,0,2.5,3h.5a3.24,3.24,0,0,0,3-3V264H199.67v-4h30v4h-13v4h0a5.69,5.69,0,0,1,4-1.5,7.09,7.09,0,0,1,7,6.51v.5a7.27,7.27,0,0,1-7,7.5h-1l-.5-4.5a3.17,3.17,0,0,0,4-1.5v-1.5c-1-1.5-2-2.5-3.51-2.5Z"/><path id="Path_26297" data-name="Path 26297" class="cls-1" d="M234.69,271a4.87,4.87,0,0,1-4-5,6.66,6.66,0,0,1,7-6,7.29,7.29,0,0,1,8,6.49h0v1a8.87,8.87,0,0,1-8.51,9h-.5a18,18,0,0,1,5,3.5l3.5,3-4.5,3-9-8.5-3-2.5,3-4a9.57,9.57,0,0,0,4,1,4.74,4.74,0,0,0,5-4.43,5.42,5.42,0,0,0,0-.57c0-2-1-3.5-2.51-3.5-1,0-2,.5-2,1.5h0a1.84,1.84,0,0,0,1.65,2h.35l-3.5,4Zm14-11h9v4h-4v21h-5V260Z"/><path id="Path_26298" data-name="Path 26298" class="cls-1" d="M275.73,268v-4h-20v-4h29.53v4h-4v21h-5V272c-.5-.5-1-.5-2-.5-1.5,0-2,1-2,3V278h-4.51v-4a2.28,2.28,0,0,0-2-2.5c-1,0-2,.5-2,3a8.69,8.69,0,0,0,5.51,7.5l-3.51,3.49a11.47,11.47,0,0,1-7-11,7.08,7.08,0,0,1,6-7.5h.5a4.36,4.36,0,0,1,4.5,3h0a4.3,4.3,0,0,1,3.51-3,3.81,3.81,0,0,1,2.5,1Z"/><path id="Path_26299" data-name="Path 26299" class="cls-1" d="M305.27,260h12v4h-4v21h-5V275h-6v4h-4.5a8.08,8.08,0,0,1-3-6.51l3-2v-4c0-1.5-.5-2-2-2h-3.51V260h4.51a5.17,5.17,0,0,1,6,4.22c0,.1,0,.19,0,.28V270h6v-6h-3.49Z"/><path id="Path_26300" data-name="Path 26300" class="cls-1" d="M324.27,264v21h-5.51V264h-4v-4h13v4Z"/><path id="Path_26301" data-name="Path 26301" class="cls-1" d="M335.28,275.46c.5,1,1.5,1.5,3,3.5l3.5,4-4,2.5-10.49-13,4-3a3.64,3.64,0,0,0,3,2c1,0,1.5-.5,1.5-2V264h-10v-4h18.52v4h-4v6a5.45,5.45,0,0,1-5,5.5Z"/><path id="Path_26302" data-name="Path 26302" class="cls-1" d="M349.79,285.46a15.16,15.16,0,0,1-6-10.48,7.58,7.58,0,0,1,6.51-7.5h5.5V264h-15v-4h24v4h-4v21h-5V272h-3.51a2.8,2.8,0,0,0-3,2.5v.5a8,8,0,0,0,4,7l-3.51,3.5Z"/><path id="Path_26303" data-name="Path 26303" class="cls-1" d="M216.18,300a15.67,15.67,0,0,1-12.51-6.51l3.5-3.5a9.44,9.44,0,0,0,9,5.5c1.5,0,3-.5,3-2.5a2.18,2.18,0,0,0-2-2h0a2.77,2.77,0,0,0-2.5,1.5l-3.5-3a8.08,8.08,0,0,1,6.51-3,5.56,5.56,0,0,1,6.43,4.5,6.77,6.77,0,0,1,.08,1v.49a7.23,7.23,0,0,1-6.91,7.54A6.86,6.86,0,0,1,216.18,300Z"/><path id="Path_26304" data-name="Path 26304" class="cls-1" d="M193.16,275.46H182.65v-5h10.51Z"/><path id="Path_26305" data-name="Path 26305" class="cls-4" d="M237.2,3H128.11a4.3,4.3,0,0,0-4,4V99.49a3.94,3.94,0,0,0,3.89,4H237.2a3.94,3.94,0,0,0,4-3.89V7a3.94,3.94,0,0,0-3.89-4ZM162.13,67a3.31,3.31,0,0,1-3-3.5c0-1.5,1.5-2.5,3-3a3.32,3.32,0,0,1,3,3.5Q164.39,67,162.13,67Z"/><path id="Path_26306" data-name="Path 26306" class="cls-1" d="M182.15,16.5A38.5,38.5,0,1,0,220.67,55v0h0A38.52,38.52,0,0,0,182.15,16.5ZM162.14,67a3.29,3.29,0,0,1-3-3.5c0-1.5,1.5-2.5,3-3a3.32,3.32,0,0,1,3,3.5q-.75,3-3,3Z"/><path id="Path_26307" data-name="Path 26307" class="cls-5" d="M194.16,39l4.51-5,1.5-1.5a8.58,8.58,0,0,0,10-2.5,13.36,13.36,0,0,0,2.5-11.5l-5.5,6.5-5.51-1.5-1.5-6,5.5-6.5a10.1,10.1,0,0,0-10.5,3,9.78,9.78,0,0,0-1.51,11h0l-8,9,8.51,5Z"/><path id="Path_26308" data-name="Path 26308" class="cls-6" d="M194.66,39l-1-1,6-7h.5a8.57,8.57,0,0,0,9.51-2,10.7,10.7,0,0,0,2.5-10l-5,6-6-1.5-2-6.5,5-6a9.65,9.65,0,0,0-9,3,9.05,9.05,0,0,0-1.5,10h0l.5.5-1,1-7,8-1-1,7-8.5a10.06,10.06,0,0,1,2-11,10.44,10.44,0,0,1,10.51-3h1l-6,7.5,1.5,5.5,5,1.5,6-7,.49,1a11.71,11.71,0,0,1-2.5,12,8.56,8.56,0,0,1-10,2.5l-1,1-4.5,5Z"/><path id="Path_26309" data-name="Path 26309" class="cls-5" d="M155.13,66.49l-11.51,12h0a4.72,4.72,0,0,0,5,8l1.5-1.5h0l11.51-12.5Zm-8,17.5c-1,.5-1.5,0-2-1h0c-.5-1,0-1.5,1-2h0c.5-.5,1.51,0,2,.5h0C148.62,83,148.12,84,147.12,84Z"/><path id="Path_26310" data-name="Path 26310" class="cls-6" d="M147.12,87.49h0a4.59,4.59,0,0,1-3.5-1.5,5.42,5.42,0,0,1,0-7.5h0l12-12.5,7.51,7.5-12,12.5h0A5.71,5.71,0,0,1,147.12,87.49Zm-3.5-8h0l11.52-12,6,6-11,11.5h0a4.36,4.36,0,0,1-3,1.5,7.3,7.3,0,0,1-3-1,5.38,5.38,0,0,1-.5-6Zm3,5c-1,0-1.5-.5-2-1.5v-1.5a1.08,1.08,0,0,1,1-1h.5c1,0,1.5.49,2,1.5s0,2.5-1,2.5C147.12,85,147.12,85,146.62,84.49Zm0-3h0a1.68,1.68,0,0,0-1,.5v1a1.12,1.12,0,0,0,2-1c0-.49-.5-.49-1-.49Z"/><path id="Path_26311" data-name="Path 26311" class="cls-3" d="M219.18,33,133.11,66.49l3,7.5,23.52-9a2.92,2.92,0,0,1,2.29-3.46l.21,0a4.53,4.53,0,0,1,3.5,1.5l57.05-22,5.51-6.5-9-1.5Z"/><path id="Path_26312" data-name="Path 26312" class="cls-1" d="M224.19,33.49l1,3,2-2.5Z"/><path id="Path_26313" data-name="Path 26313" class="cls-6" d="M218.68,32.5l-86.57,34,3.5,8.5,23-8.5c0-.5-1-.5-1-1l-21,8-2.5-6L219.18,34l7,1-4.51,5.5L164.63,63l1,1,57-22,6-7.5-10-2Z"/><path id="Path_26314" data-name="Path 26314" class="cls-4" d="M224.69,34.49,219.18,34l2.51,6,3.5-4Z"/><path id="Path_26315" data-name="Path 26315" class="cls-7" d="M219.18,34l2.51,6Z"/><path id="Path_26316" data-name="Path 26316" class="cls-6" d="M221.18,40l-3-6,1.5-.5,2.5,6Z"/><path id="Path_26317" data-name="Path 26317" class="cls-1" d="M239.2,129c-.5-.5-1-1-1.5-1H129.61a1.83,1.83,0,0,0-1.51.5l-11,13a1.52,1.52,0,0,0,0,2c.5.5,1,1,1.5,1H246.7c.5,0,1.5-.5,1.5-1a1.52,1.52,0,0,0,0-2l-9-12.5Zm-3.5,1.5,1,2h-4.51l-1-2Zm-46,0h4.5v2h-4.5Zm0,4.5h4.5v1.5h-5Zm-8-4.5h4.5v2h-4.5Zm-.5,4.5h4.51v1.5h-5Zm-7.5-4.5h4.5l-.5,2h-4.5Zm-1.51,4.5h4.51l-.5,1.5h-5l1-1.5Zm-7-4.5h4.5l-.5,2h-4.51Zm-1.5,4.5h4.5l-.5,1.5h-5l1-1.5Zm-6.52-4.5h4l-.5,2h-4.51Zm-2.5,4.5h4.5l-.49,1.5h-4.51Zm-6-4.5h4l-1,2h-4.51Zm-8.51,0h4l-1,2h-4Zm-8,0h4l-1,2h-4Zm-4,11h-5l1.51-1.5h4.5Zm3-4.5h-4.5l1.5-1.5h4.5Zm6.51,4.5h-5l1-1.5h5Zm3-4.5h-4.5l1-1.5h4.51Zm6.52,4.5h-5l1-1.5h5Zm2.5-4.5h-4.5l1-1.5h4.5l-1,1.5Zm2,4.5,1-1.5h42v1.5Zm46.54-11v2h4.5l-.5-2Zm.5,4.5h9l-1-4.5h4.51l1.5,6.51h-14v-2Zm.5,6.51V140h5l.5,1.5Zm9.5,0-.5-1.5h5l.5,1.5Zm6.51-11h4.51l.5,2h-5Zm1,4.5h4.5l.5,1.5h-5Zm2,6.5-.5-1.5h5l.5,1.5Zm5-11h4l1,2h-4.51Zm2,4.49h4.5l1,1.5h-4.51Zm2.5,6.51-.5-1.5h5l1,1.5Zm6.52-6.51h4.5l1,1.5h-4.5Zm3,6.51-1-1.5h5l1,1.5Z"/><path id="Path_26318" data-name="Path 26318" class="cls-1" d="M159.13,122.48c-2,1.5,1,2.5,1,2.5h45s3-1,1-2.5a11.84,11.84,0,0,1-7-10.48v-6h-33v6c-1,7.49-5.51,8.49-7,10.48Z"/><path id="Path_26319" data-name="Path 26319" class="cls-1" d="M236.2,106H128.61a7.71,7.71,0,0,1-7.51-7.5h0V7.5A7.69,7.69,0,0,1,128.61,0H236.2a7.7,7.7,0,0,1,7.51,7.5h0v91a6.86,6.86,0,0,1-6.12,7.5A8.07,8.07,0,0,1,236.2,106ZM128.61,3.5a4,4,0,0,0-4,3.88V98.49a4,4,0,0,0,3.89,4H236.2a3.94,3.94,0,0,0,4-3.89v-.11h0V7.5a4.29,4.29,0,0,0-4-4Z"/><path id="Path_26320" data-name="Path 26320" class="cls-1" d="M236.2,106H128.61a7.71,7.71,0,0,1-7.51-7.5h0V7.5A7.69,7.69,0,0,1,128.61,0H236.2a7.7,7.7,0,0,1,7.51,7.5h0v91a6.86,6.86,0,0,1-6.12,7.5A8.07,8.07,0,0,1,236.2,106ZM128.61,3.5a4,4,0,0,0-4,3.88V98.49a4,4,0,0,0,3.89,4H236.2a3.94,3.94,0,0,0,4-3.89v-.11h0V7.5a4.29,4.29,0,0,0-4-4Z"/><path id="Path_26321" data-name="Path 26321" class="cls-4" d="M161.13,55l.5.5Z"/><path id="Path_26322" data-name="Path 26322" class="cls-1" d="M194.16,39.49l-13.51-8-11.51,5-8.51,4-10.51,18,7,7.5,9,9,32-25a18.83,18.83,0,0,0-4-10.48Zm-32,27.5a3.31,3.31,0,0,1-3-3.5c0-1.5,1.5-2.5,3-3a3.31,3.31,0,0,1,3,3.5c-.5,2-1.51,3-3,3Z"/><path id="Path_26323" data-name="Path 26323" class="cls-4" d="M216.68,102.48c.5-.49-1-.49-.5-1-.5-.5-15.51,1-16,.5l-2-2L180.65,82c-.5-.5-1.5-.5-2-1-2-.49-3.5-1-5.5-1.5a25.17,25.17,0,0,1-4-3.49l-4.5-4.5c2-2,4.5-3.5,5-6.51l.5-.5a10.73,10.73,0,0,0,2.5-2,4,4,0,0,0,2-4.49,1.71,1.71,0,0,0,.5-1l4.51-4.49,3-.5c0,.5-.5,1.5-.5,2a3.8,3.8,0,0,0,.5,4.5,75.39,75.39,0,0,0,5,8.5c0,.5,1,.5,1.5,1v-1.5a50.57,50.57,0,0,1-4-7c-.5-1.5-1.5-2.51-1-4a48.57,48.57,0,0,1,2.5-5.5c1.5-3,1.5-3-1-5.5l-.5-.49a3.07,3.07,0,0,0-3.5-.5l-3.5,1.5a3,3,0,0,1-4-.5l-1.5-1.5c-1-1-1-1.5,0-2.5l8-6.51a2.43,2.43,0,0,1,3.42-.08l.08.08a113.56,113.56,0,0,0,10,6.51,3.35,3.35,0,0,1,2,3.5l1.5,13.49a12.36,12.36,0,0,1-2.5,11c-.5.5-1,1.5-1.51,2-1,1-.5,1.5,0,2.5l9.52,8.51,14,12.5,1,1a6.82,6.82,0,0,0-1.5-2l-19-18.5c-1-1-2.51-1.5-2.51-2.5s1-2,1.5-3.5,1-2,1.5-3.49c0-.5.5-.5.5-1,12,11,27.53,24,39.54,35l-21.52,3.5Z"/><path id="Path_26324" data-name="Path 26324" class="cls-4" d="M163.64,58.49l4.5,4.5c1.5,1.5,2,1,3,0l2-2c.5-.5,1-1.5.5-2a.48.48,0,0,0-.48-.49h0c-3-3-6.51-6-9.5-9a1.66,1.66,0,0,0-2.33-.18,1.53,1.53,0,0,0-.18.18h0l-2,2.5c-1,.5-1,1.5-.5,2.5a.5.5,0,0,0,.48.5h0l4.51,3.5Z"/><path id="Path_26325" data-name="Path 26325" class="cls-4" d="M168.14,51.49l4.5,4.5c.5,1,1.5,1,2.51.5a.48.48,0,0,0,.5-.47v0l2-2a1.65,1.65,0,0,0,.17-2.33l-.17-.18h0c-3-3-6-6-9.51-9-.5-1-1.5-1-2.5-.5a.48.48,0,0,0-.5.47v0c-.5,1-1.5,1.5-2,2.5-.5.5-1,1.5-.5,2l.5.49,5,4Z"/><path id="Path_26326" data-name="Path 26326" class="cls-4" d="M163.64,61l-.5-.5h0l-3.5-3.5a2.12,2.12,0,0,0-2.91-.6,2.28,2.28,0,0,0-.6.6l-1.5,1.5c-1,.5-1,1.5-.5,2.5l.5.5,8.51,8c.5.5,1.5,1,2,0h0l2.5-2.5a1.65,1.65,0,0,0,.18-2.33,1,1,0,0,0-.18-.17l-2.5-2.5-1.5-1Z"/><path id="Path_26327" data-name="Path 26327" class="cls-4" d="M176.65,48l3.5,3.5a1.52,1.52,0,0,0,2,0h0c1-1,1.5-2,2.5-2.5a1.52,1.52,0,0,0,0-2c-.5-1-1-2-2.5-1l-5.51,2Z"/><path id="Path_26328" data-name="Path 26328" class="cls-4" d="M169.64,41l5-4.5V36a3.08,3.08,0,0,0-2,.5C171.64,38,169.64,39,169.64,41Z"/></g></svg>